SplineFontDB: 3.0
FontName: Handlee-Regular
FullName: Handlee Regular
FamilyName: Handlee
Weight: Regular
Copyright: Copyright (c) 2011, Admix Designs (http://www.admixdesigns.com/) with Reserved Font Name Handlee.
Version: 001.001
ItalicAngle: 0
UnderlinePosition: -50
UnderlineWidth: 50
Ascent: 800
Descent: 200
sfntRevision: 0x00010000
LayerCount: 2
Layer: 0 1 "Back"  1
Layer: 1 1 "Fore"  0
NeedsXUIDChange: 1
XUID: [1021 288 713564382 8848533]
FSType: 0
OS2Version: 2
OS2_WeightWidthSlopeOnly: 0
OS2_UseTypoMetrics: 1
CreationTime: 1323279259
ModificationTime: 1323308101
PfmFamily: 17
TTFWeight: 400
TTFWidth: 5
LineGap: 0
VLineGap: 0
Panose: 2 0 0 0 0 0 0 0 0 0
OS2TypoAscent: 133
OS2TypoAOffset: 1
OS2TypoDescent: -201
OS2TypoDOffset: 1
OS2TypoLinegap: 0
OS2WinAscent: 0
OS2WinAOffset: 1
OS2WinDescent: 0
OS2WinDOffset: 1
HheadAscent: 0
HheadAOffset: 1
HheadDescent: 0
HheadDOffset: 1
OS2SubXSize: 700
OS2SubYSize: 650
OS2SubXOff: 0
OS2SubYOff: 140
OS2SupXSize: 700
OS2SupYSize: 650
OS2SupXOff: 0
OS2SupYOff: 477
OS2StrikeYSize: 50
OS2StrikeYPos: 250
OS2Vendor: 'pyrs'
OS2CodePages: 20000111.00000000
OS2UnicodeRanges: 80000027.4000004a.00000000.00000000
Lookup: 258 0 0 "'kern' Horizontal Kerning in Latin lookup 0"  {"'kern' Horizontal Kerning in Latin lookup 0 subtable"  } ['kern' ('DFLT' <'dflt' > 'latn' <'dflt' > ) ]
MarkAttachClasses: 1
DEI: 91125
TtTable: prep
PUSHW_1
 511
SCANCTRL
PUSHB_1
 4
SCANTYPE
EndTTInstrs
LangName: 1033 "" "" "" "JoePrince: Handlee Regular: 2011" "Handlee-Regular" "Version 1.001" "" "Handlee is a trademark of Admix Designs (www.admixdesigns.com)" "Joe Prince" "Joe Prince" "" "http://www.admixdesigns.com/" "http://www.admixdesigns.com/" "This Font Software is licensed under the SIL Open Font License, Version 1.1. This license is available with a FAQ at: http://scripts.sil.org/OFL" "http://scripts.sil.org/OFL" 
GaspTable: 1 65535 15
Encoding: UnicodeBmp
UnicodeInterp: none
NameList: Adobe Glyph List
DisplaySize: -36
AntiAlias: 1
FitToEm: 1

StartChar: a
Encoding: 97 97 1
Width: 449
Flags: HMW
HStem: -8 44 -2 21G<367 424.5> 450 55<183 265>
VStem: 40 62<108 174 108 221> 312 63<277 343.5 259 348>
LayerCount: 2
Fore
SplineSet
375 288 m 1,0,-1
 370 173 l 1,1,2
 370 85.92 370 85.92 389.5 55.5 c 0,3,4
 402 36 402 36 423 36 c 0,5,6
 429 36 429 36 440 39 c 0,7,8
 461.455445545 44.8514851485 461.455445545 44.8514851485 475 33 c 1,9,10
 468 -2 468 -2 405 -2 c 0,11,12
 361.710526316 -2 361.710526316 -2 347.5 34 c 0,13,14
 336.994906621 60.6129032258 336.994906621 60.6129032258 331.997453311 101.306451613 c 128,-1,15
 327 142 327 142 324 157 c 1,16,17
 258.796470588 33.4564705882 258.796470588 33.4564705882 198 6 c 0,18,19
 167 -8 167 -8 126 -8 c 128,-1,20
 85 -8 85 -8 62.5 31.5 c 128,-1,21
 40 71 40 71 40 147 c 128,-1,22
 40 223 40 223 65 306.5 c 128,-1,23
 90 390 90 390 138 447.5 c 128,-1,24
 186 505 186 505 243 505 c 0,25,26
 325.212121212 505 325.212121212 505 352 437 c 0,27,28
 375 378.615384615 375 378.615384615 375 288 c 1,0,-1
109 217.5 m 128,-1,30
 102 169 102 169 102 131.5 c 128,-1,31
 102 94 102 94 117.5 67 c 128,-1,32
 133 40 133 40 158 40 c 0,33,34
 212 40 212 40 262 142 c 128,-1,35
 312 244 312 244 312 332 c 0,36,37
 312 388.75 312 388.75 282 425.5 c 0,38,39
 262 450 262 450 229.5 450 c 128,-1,40
 197 450 197 450 170.5 412.5 c 128,-1,41
 144 375 144 375 130 320.5 c 128,-1,29
 116 266 116 266 109 217.5 c 128,-1,30
EndSplineSet
EndChar

StartChar: b
Encoding: 98 98 2
Width: 452
Flags: HMW
HStem: -6 49<214 255 214 274.5> 470 38<221 276.5>
VStem: 71 58 347 66<236.5 330>
LayerCount: 2
Fore
SplineSet
71 719 m 1,0,1
 83.4444444444 740.777777778 83.4444444444 740.777777778 115.172839506 740.777777778 c 0,2,3
 122.333333333 740.777777778 122.333333333 740.777777778 129 739 c 1,4,5
 131 686 131 686 131 443 c 1,6,7
 132 444 132 444 140.5 452 c 128,-1,8
 149 460 149 460 151 462 c 128,-1,9
 153 464 153 464 161 471.5 c 128,-1,10
 169 479 169 479 173.5 481.5 c 128,-1,11
 178 484 178 484 186 489.5 c 128,-1,12
 194 495 194 495 200 497.5 c 128,-1,13
 206 500 206 500 214.5 503 c 0,14,15
 228.666666667 508 228.666666667 508 249 508 c 0,16,17
 323 508 323 508 368 446.5 c 128,-1,18
 413 385 413 385 413 309 c 128,-1,19
 413 233 413 233 390 164.5 c 128,-1,20
 367 96 367 96 319 45 c 128,-1,21
 271 -6 271 -6 207.5 -6 c 128,-1,22
 144 -6 144 -6 101.5 41 c 128,-1,23
 59 88 59 88 59 148.5 c 128,-1,24
 59 209 59 209 66.2 372.6 c 128,-1,25
 73.4 536.2 73.4 536.2 73.4 607.4 c 128,-1,26
 73.4 678.6 73.4 678.6 71 719 c 1,0,1
214 43 m 1,27,28
 253 43 253 43 284.5 80 c 0,29,30
 347 153.412698413 347 153.412698413 347 287 c 0,31,32
 347 359 347 359 319 414.5 c 128,-1,33
 291 470 291 470 240 470 c 0,34,35
 211 470 211 470 189 441.5 c 128,-1,36
 167 413 167 413 155 366.5 c 0,37,38
 132 277.375 132 277.375 132 168 c 0,39,40
 132 76.4285714286 132 76.4285714286 169.5 55 c 0,41,42
 187 45 187 45 214 43 c 1,27,28
EndSplineSet
EndChar

StartChar: c
Encoding: 99 99 3
Width: 446
Flags: HMW
HStem: -1 43<180 268> -1 163<155.5 402> 356 145<179.5 363.5> 461 40<236 278>
VStem: 40 63<142 226 142 241.5>
LayerCount: 2
Fore
SplineSet
395 375 m 1,0,1
 376 356 376 356 357 356 c 128,-1,2
 338 356 338 356 326.5 372.5 c 128,-1,3
 315 389 315 389 308 408.5 c 128,-1,4
 301 428 301 428 282.5 444.5 c 128,-1,5
 264 461 264 461 236 461 c 1,6,7
 197 457 197 457 165 405.5 c 128,-1,8
 133 354 133 354 118 292 c 128,-1,9
 103 230 103 230 103 175.5 c 128,-1,10
 103 121 103 121 133.5 81.5 c 128,-1,11
 164 42 164 42 216 42 c 0,12,13
 275.571428571 42 275.571428571 42 312 84.5 c 0,14,15
 327 102 327 102 340 119.5 c 0,16,17
 371.571428571 162 371.571428571 162 398 162 c 0,18,19
 407 162 407 162 424 157 c 1,20,21
 424 120 424 120 356.5 59.5 c 128,-1,22
 289 -1 289 -1 210 -1 c 128,-1,23
 131 -1 131 -1 85.5 49.5 c 128,-1,24
 40 100 40 100 40 180 c 0,25,26
 40 282.93877551 40 282.93877551 90.5 386 c 0,27,28
 115 436 115 436 158 468.5 c 128,-1,29
 201 501 201 501 254 501 c 128,-1,30
 307 501 307 501 339.5 465.5 c 128,-1,31
 372 430 372 430 395 375 c 1,0,1
EndSplineSet
EndChar

StartChar: d
Encoding: 100 100 4
Width: 473
Flags: HMW
HStem: 2 44<143.5 192> 448 52<193 251.5 160.5 277> 788 20G<373 411>
VStem: 43 63<161.5 250.5 161.5 250.5> 106 225<161.5 368.5>
LayerCount: 2
Fore
SplineSet
435 801 m 1,0,1
 397.25 456.53125 397.25 456.53125 397.25 310.434742647 c 128,-1,2
 397.25 164.338235294 397.25 164.338235294 424 18 c 1,3,4
 404.4 -1.6 404.4 -1.6 389 -1.6 c 128,-1,5
 373.6 -1.6 373.6 -1.6 364 2 c 1,6,7
 343 76 343 76 339 163 c 1,8,9
 315 125 315 125 303.5 109 c 128,-1,10
 292 93 292 93 264.5 61.5 c 0,11,12
 212.555555556 2 212.555555556 2 143 2 c 0,13,14
 90 2 90 2 66.5 51.5 c 128,-1,15
 43 101 43 101 43 178.5 c 128,-1,16
 43 256 43 256 60.5 326.5 c 128,-1,17
 78 397 78 397 121 448.5 c 128,-1,18
 164 500 164 500 227 500 c 0,19,20
 265 500 265 500 297 484 c 128,-1,21
 329 468 329 468 341 441 c 1,22,23
 343 468 343 468 345 524 c 128,-1,24
 347 580 347 580 349.5 623.5 c 128,-1,25
 352 667 352 667 357.5 712 c 0,26,27
 369.233333333 808 369.233333333 808 407 808 c 0,28,29
 420 808 420 808 435 801 c 1,0,1
285 437.5 m 128,-1,31
 264 448 264 448 229.5 448 c 128,-1,32
 195 448 195 448 165 409 c 0,33,34
 106 332.3 106 332.3 106 186 c 0,35,36
 106 139 106 139 121 92.5 c 128,-1,37
 136 46 136 46 165 46 c 0,38,39
 207 46 207 46 247 101 c 128,-1,40
 287 156 287 156 309 227.5 c 128,-1,41
 331 299 331 299 331 356 c 0,42,43
 331 382.555555556 331 382.555555556 318.5 404.777777778 c 128,-1,30
 306 427 306 427 285 437.5 c 128,-1,31
EndSplineSet
EndChar

StartChar: e
Encoding: 101 101 5
Width: 473
Flags: HMW
HStem: 3 47<201.5 280.5> 3 136<168 427.5> 198 38<164 218> 457 37<230.5 286>
VStem: 39 69<134.5 180 134.5 244> 338 69<365 406.5>
LayerCount: 2
Fore
SplineSet
110 203 m 1,0,1
 108 183 108 183 108 176 c 0,2,3
 108 116 108 116 144.5 83 c 128,-1,4
 181 50 181 50 231 50 c 128,-1,5
 281 50 281 50 312.5 64 c 128,-1,6
 344 78 344 78 357.5 94.5 c 0,7,8
 393.909090909 139 393.909090909 139 424 139 c 0,9,10
 435 139 435 139 450 133 c 1,11,12
 440 84 440 84 374.5 43.5 c 128,-1,13
 309 3 309 3 210 3 c 0,14,15
 140 3 140 3 89.5 47.5 c 128,-1,16
 39 92 39 92 39 169 c 128,-1,17
 39 246 39 246 69.5 318.5 c 128,-1,18
 100 391 100 391 157.5 442.5 c 128,-1,19
 215 494 215 494 274.5 494 c 128,-1,20
 334 494 334 494 370.5 469.5 c 128,-1,21
 407 445 407 445 407 398 c 0,22,23
 407 311 407 311 329.5 254.5 c 128,-1,24
 252 198 252 198 165 198 c 0,25,26
 142 198 142 198 110 203 c 1,0,1
186 236 m 0,27,28
 233 236 233 236 270 266 c 128,-1,29
 307 296 307 296 322.5 329 c 128,-1,30
 338 362 338 362 338 389 c 128,-1,31
 338 416 338 416 317 436.5 c 128,-1,32
 296 457 296 457 268 457 c 0,33,34
 218 457 218 457 175.5 388 c 128,-1,35
 133 319 133 319 115 245 c 1,36,37
 159 236 159 236 186 236 c 0,27,28
EndSplineSet
EndChar

StartChar: f
Encoding: 102 102 6
Width: 314
Flags: HMW
HStem: -7 21G<121.5 155.5> 451 49 723 50<210.5 267.5>
VStem: 2 186 113 75 113 202
LayerCount: 2
Fore
SplineSet
134 -7 m 0,0,1
 116 -7 116 -7 116 296.5 c 0,2,3
 116 424 116 424 115 451 c 1,4,-1
 95 451 l 2,5,6
 81 451 81 451 73 451.5 c 128,-1,7
 65 452 65 452 52.5 452.5 c 128,-1,8
 40 453 40 453 32.5 455 c 128,-1,9
 25 457 25 457 17 460 c 0,10,11
 2 465.625 2 465.625 2 481 c 0,12,13
 2 500 2 500 64 500 c 0,14,15
 91 500 91 500 113 498 c 1,16,17
 114 518 114 518 114.5 549.5 c 128,-1,18
 115 581 115 581 116 598.5 c 128,-1,19
 117 616 117 616 118.5 641 c 128,-1,20
 120 666 120 666 123.5 680 c 128,-1,21
 127 694 127 694 133 711.5 c 128,-1,22
 139 729 139 729 149 738 c 128,-1,23
 159 747 159 747 172 756.5 c 0,24,25
 194.578947368 773 194.578947368 773 248.289473684 773 c 128,-1,26
 302 773 302 773 327.5 746.5 c 128,-1,27
 353 720 353 720 373 657 c 1,28,29
 358 639 358 639 337.9375 639 c 0,30,31
 331.25 639 331.25 639 324 641 c 1,32,33
 306 689 306 689 291.5 706 c 128,-1,34
 277 723 277 723 252 723 c 128,-1,35
 227 723 227 723 214.5 714 c 128,-1,36
 202 705 202 705 195 691 c 0,37,38
 180.130543223 661.261086447 180.130543223 661.261086447 180.130543223 545.853723978 c 0,39,40
 180.130543223 540.977796815 180.130543223 540.977796815 180.065271612 527.988898408 c 128,-1,41
 180 515 180 515 180 504 c 1,42,-1
 265 512 l 1,43,44
 315 512 315 512 315 489 c 0,45,46
 315 474 315 474 291 469 c 128,-1,47
 267 464 267 464 230.5 463 c 128,-1,48
 194 462 194 462 180 457 c 1,49,50
 177.826086957 429.173913043 177.826086957 429.173913043 177.826086957 383.695652174 c 128,-1,51
 177.826086957 338.217391304 177.826086957 338.217391304 182.913043478 239.608695652 c 128,-1,52
 188 141 188 141 188 89 c 128,-1,53
 188 37 188 37 177.5 15 c 128,-1,54
 167 -7 167 -7 134 -7 c 0,0,1
EndSplineSet
EndChar

StartChar: g
Encoding: 103 103 7
Width: 466
Flags: HMW
HStem: -215 49<165 267> -215 90<45 267> 8 43<144 207> 452 48<176.5 256>
VStem: 42 61<171 229.5 171 261> 329 84 357 56<26 106>
LayerCount: 2
Fore
SplineSet
234 500 m 0,0,1
 324.701298701 500 324.701298701 500 360.5 425.5 c 0,2,3
 379 387 379 387 391 352 c 128,-1,4
 403 317 403 317 407 255.5 c 0,5,6
 413 163.25 413 163.25 413 44.625 c 128,-1,7
 413 -74 413 -74 356.5 -144.5 c 128,-1,8
 300 -215 300 -215 191.5 -215 c 128,-1,9
 83 -215 83 -215 11 -145 c 1,10,11
 31 -125 31 -125 54.5 -125 c 128,-1,12
 78 -125 78 -125 119.5 -145.5 c 128,-1,13
 161 -166 161 -166 208 -166 c 128,-1,14
 255 -166 255 -166 286 -144.5 c 128,-1,15
 317 -123 317 -123 331.5 -84 c 0,16,17
 357 -15.4137931034 357 -15.4137931034 357 86 c 0,18,19
 357 101 357 101 354 197 c 1,20,21
 327 115 327 115 277 61.5 c 128,-1,22
 227 8 227 8 164 8 c 128,-1,23
 101 8 101 8 71.5 64.5 c 128,-1,24
 42 121 42 121 42 193 c 128,-1,25
 42 265 42 265 62 333.5 c 128,-1,26
 82 402 82 402 127 451 c 128,-1,27
 172 500 172 500 234 500 c 0,0,1
109 265 m 128,-1,29
 103 226 103 226 103 186.5 c 128,-1,30
 103 147 103 147 119.5 99 c 128,-1,31
 136 51 136 51 168 51 c 0,32,33
 231 51 231 51 280 145.5 c 128,-1,34
 329 240 329 240 329 336 c 0,35,36
 329 369 329 369 298.5 410.5 c 128,-1,37
 268 452 268 452 222 452 c 0,38,39
 190 452 190 452 165.5 422 c 128,-1,40
 141 392 141 392 128 348 c 128,-1,28
 115 304 115 304 109 265 c 128,-1,29
EndSplineSet
EndChar

StartChar: h
Encoding: 104 104 8
Width: 488
Flags: HMW
HStem: 9 21G<64 134> 14 32<408.5 453> 455 33<245.5 328> 722 20G<114 123>
LayerCount: 2
Fore
SplineSet
64.619047619 207.409297052 m 1,0,-1
 74.4 655.28 l 1,1,2
 74.4 706.8 74.4 706.8 68 726 c 1,3,4
 86 742 86 742 123 742 c 1,5,6
 137.888888889 635.070707071 137.888888889 635.070707071 137.888888889 466.549382716 c 0,7,8
 137.888888889 417.222222222 137.888888889 417.222222222 129 235 c 1,9,10
 176 488 176 488 297 488 c 0,11,12
 340 488 340 488 363.5 442.5 c 128,-1,13
 387 397 387 397 393 332 c 128,-1,14
 399 267 399 267 403 202 c 0,15,16
 412.6 46 412.6 46 459 46 c 0,17,18
 460 46 460 46 477.5 51.5 c 0,19,20
 518.265895954 64.3121387283 518.265895954 64.3121387283 523 58 c 1,21,22
 523 47 523 47 492 30.5 c 128,-1,23
 461 14 461 14 435 14 c 0,24,25
 391 14 391 14 367.5 59.5 c 128,-1,26
 344 105 344 105 338.5 170 c 128,-1,27
 333 235 333 235 330.5 299.5 c 128,-1,28
 328 364 328 364 317 409.5 c 128,-1,29
 306 455 306 455 280 455 c 0,30,31
 248 455 248 455 221.5 385.5 c 128,-1,32
 195 316 195 316 180 232 c 128,-1,33
 165 148 165 148 143.5 78.5 c 128,-1,34
 122 9 122 9 100 9 c 0,35,36
 64.619047619 9 64.619047619 9 64.619047619 207.409297052 c 1,0,-1
EndSplineSet
EndChar

StartChar: i
Encoding: 105 105 9
Width: 200
Flags: HMW
HStem: 611 135<83 101>
VStem: 71 62<47 132.5 47 416>
LayerCount: 2
Fore
SplineSet
130 736 m 1,0,1
 128.875 713.125 128.875 713.125 128.875 685.0625 c 128,-1,2
 128.875 657 128.875 657 132 627 c 1,3,4
 118 611 118 611 94 611 c 0,5,6
 64 611 64 611 64 659 c 0,7,8
 64 661 64 661 64 674 c 128,-1,9
 64 687 64 687 64.5 697.5 c 128,-1,10
 65 708 65 708 68.5 721.5 c 0,11,12
 74.8518518519 746 74.8518518519 746 98.9259259259 746 c 128,-1,13
 123 746 123 746 130 736 c 1,0,1
65.5 246 m 0,14,15
 65.5 442.2 65.5 442.2 86.05 472.34 c 0,16,17
 93.1 482.68 93.1 482.68 103.276666667 482.68 c 128,-1,18
 113.453333333 482.68 113.453333333 482.68 136 472 c 1,19,20
 130.6 386.95 130.6 386.95 130.6 286.84 c 1,21,22
 133 66 l 2,23,24
 133 35 133 35 119.516393443 22.2868852459 c 128,-1,25
 106.032786885 9.5737704918 106.032786885 9.5737704918 94.7131147541 9.5737704918 c 128,-1,26
 83.393442623 9.5737704918 83.393442623 9.5737704918 71 16 c 1,27,28
 65.5 146 65.5 146 65.5 246 c 0,14,15
EndSplineSet
EndChar

StartChar: j
Encoding: 106 106 10
Width: 201
Flags: HMW
HStem: -249 52<-30 48 -30 98> 483 130<88.5 92.5 82 116.5> 726 20G<89 93>
VStem: 61 62<387 439 350.5 456.5>
LayerCount: 2
Fore
SplineSet
123 641 m 1,0,1
 121 613 121 613 82 613 c 1,2,3
 49.6 614.8 49.6 614.8 49.6 700.03 c 0,4,5
 49.6 709.5 49.6 709.5 50 720 c 0,6,7
 50.9333333333 746.133333333 50.9333333333 746.133333333 84.0977777778 746.133333333 c 0,8,9
 102.7 746.133333333 102.7 746.133333333 112 742 c 1,10,11
 123 700 123 700 123 641 c 1,0,1
-20 -197 m 0,12,13
 72.2 -197 72.2 -197 72.2 118.54 c 0,14,15
 72.2 194.52 72.2 194.52 66.6 308.76 c 128,-1,16
 61 423 61 423 61 441 c 0,17,18
 61 483 61 483 101 483 c 0,19,20
 124 483 124 483 124 457 c 2,21,-1
 123 429 l 2,22,23
 123 402 123 402 127.5 342.5 c 0,24,25
 141.421052632 158.432748538 141.421052632 158.432748538 141.421052632 86.0584795322 c 128,-1,26
 141.421052632 13.6842105263 141.421052632 13.6842105263 134.710526316 -38.6578947368 c 128,-1,27
 128 -91 128 -91 112 -141.5 c 128,-1,28
 96 -192 96 -192 62 -220.5 c 128,-1,29
 28 -249 28 -249 -20 -249 c 0,30,31
 -48 -249 -48 -249 -70 -241.5 c 128,-1,32
 -92 -234 -92 -234 -92 -222 c 0,33,34
 -92 -208 -92 -208 -83 -201.5 c 128,-1,35
 -74 -195 -74 -195 -64.5 -194.5 c 128,-1,36
 -55 -194 -55 -194 -39 -195.5 c 128,-1,37
 -23 -197 -23 -197 -20 -197 c 0,12,13
EndSplineSet
EndChar

StartChar: k
Encoding: 107 107 11
Width: 472
Flags: HMW
VStem: 62 67 79 50
LayerCount: 2
Fore
SplineSet
140 742 m 1,0,1
 141.333333333 672 141.333333333 672 141.333333333 637.5 c 128,-1,2
 141.333333333 603 141.333333333 603 140.666666667 569 c 128,-1,3
 140 535 140 535 137 437.5 c 128,-1,4
 134 340 134 340 133 283 c 1,5,6
 171 309 171 309 224 363.5 c 128,-1,7
 277 418 277 418 320.5 457 c 0,8,9
 388.122486289 517.627056673 388.122486289 517.627056673 417 494 c 0,10,11
 428 485 428 485 424 477 c 0,12,13
 414 456 414 456 378.5 426 c 128,-1,14
 343 396 343 396 295 358 c 128,-1,15
 247 320 247 320 219 288 c 1,16,17
 291.742857143 278.428571429 291.742857143 278.428571429 335.5 205.5 c 0,18,19
 355 173 355 173 373 139.5 c 0,20,21
 419.417074878 53.1126662001 419.417074878 53.1126662001 473 22 c 1,22,23
 453 2 453 2 427 2 c 128,-1,24
 401 2 401 2 375.5 27 c 128,-1,25
 350 52 350 52 331.5 88 c 128,-1,26
 313 124 313 124 294.5 160.5 c 0,27,28
 250.657534247 247 250.657534247 247 194 247 c 0,29,30
 167 247 167 247 148 229.5 c 128,-1,31
 129 212 129 212 129 193 c 0,32,33
 129 73 129 73 125 15 c 1,34,35
 110.885714286 -4.31428571429 110.885714286 -4.31428571429 95.1159183673 -4.31428571429 c 0,36,37
 89.6571428571 -4.31428571429 89.6571428571 -4.31428571429 84 -2 c 0,38,39
 62 7 62 7 62.5 35 c 128,-1,40
 63 63 63 63 67.5 205 c 0,41,42
 79 567.888888889 79 567.888888889 79 669 c 0,43,44
 79 716 79 716 88.5294117647 731.882352941 c 128,-1,45
 98.0588235294 747.764705882 98.0588235294 747.764705882 111.411764706 747.764705882 c 128,-1,46
 124.764705882 747.764705882 124.764705882 747.764705882 140 742 c 1,0,1
EndSplineSet
EndChar

StartChar: l
Encoding: 108 108 12
Width: 238
Flags: HMW
HStem: 7 37<125.5 208.5>
LayerCount: 2
Fore
SplineSet
92.380952381 597.963718821 m 0,0,1
 92.380952381 696.773809524 92.380952381 696.773809524 65 731 c 1,2,3
 77.6923076923 749.615384615 77.6923076923 749.615384615 110.431952663 749.615384615 c 0,4,5
 116.384615385 749.615384615 116.384615385 749.615384615 123 749 c 1,6,7
 148.125 723.875 148.125 723.875 148.125 603.65625 c 0,8,9
 148.125 539.25 148.125 539.25 141.5625 452.625 c 0,10,11
 130.219512195 302.897560976 130.219512195 302.897560976 130.219512195 233.059785842 c 0,12,13
 130.219512195 44 130.219512195 44 203 44 c 1,14,15
 240.5 51 l 1,16,17
 249 51 249 51 255 43 c 1,18,19
 252 7 252 7 196.5 7 c 128,-1,20
 141 7 141 7 111 40.5 c 128,-1,21
 81 74 81 74 73.6315789474 124.657894737 c 128,-1,22
 66.2631578947 175.315789474 66.2631578947 175.315789474 66.2631578947 208.289473684 c 128,-1,23
 66.2631578947 241.263157895 66.2631578947 241.263157895 67.1315789474 280.631578947 c 128,-1,24
 68 320 68 320 76 393.5 c 0,25,26
 92.380952381 544 92.380952381 544 92.380952381 597.963718821 c 0,0,1
EndSplineSet
EndChar

StartChar: m
Encoding: 109 109 13
Width: 668
Flags: HMW
HStem: 3 24<572 634> 454 34 454 47<210 289>
LayerCount: 2
Fore
SplineSet
106 437 m 0,0,1
 117.333333333 437 117.333333333 437 117.333333333 305.277777778 c 0,2,3
 117.333333333 284 117.333333333 284 116.666666667 238 c 128,-1,4
 116 192 116 192 116 190 c 1,5,6
 125.723404255 303.439716312 125.723404255 303.439716312 136.361702128 344.219858156 c 128,-1,7
 147 385 147 385 158 414.5 c 128,-1,8
 169 444 169 444 182 460.5 c 0,9,10
 213.909090909 501 213.909090909 501 256 501 c 0,11,12
 309 501 309 501 335.5 448 c 128,-1,13
 362 395 362 395 363 307 c 1,14,15
 388 488 388 488 495 488 c 0,16,17
 541 488 541 488 559.756410256 441.108974359 c 128,-1,18
 578.512820513 394.217948718 578.512820513 394.217948718 578.512820513 328.948389218 c 2,19,-1
 576.35483871 177.03069719 l 1,20,21
 576.35483871 27 576.35483871 27 641 27 c 1,22,-1
 697.702422145 36.0588235294 l 2,23,24
 703.411764706 36.0588235294 703.411764706 36.0588235294 708 35 c 1,25,26
 698 20 698 20 671 11.5 c 128,-1,27
 644 3 644 3 618 3 c 0,28,29
 567 3 567 3 541.5 48.5 c 128,-1,30
 516 94 516 94 514.055555556 144.555555556 c 128,-1,31
 512.111111111 195.111111111 512.111111111 195.111111111 512.111111111 231.067901235 c 2,32,-1
 513.5 319.5625 l 2,33,34
 513.5 364.375 513.5 364.375 508.25 404.1875 c 128,-1,35
 503 444 503 444 480 444 c 0,36,37
 446 444 446 444 414.5 301.5 c 128,-1,38
 383 159 383 159 376 31 c 1,39,40
 359.181818182 12.5 359.181818182 12.5 332.75 12.5 c 0,41,42
 325 12.5 325 12.5 318 15 c 1,43,44
 309 67 309 67 308.5 188.5 c 128,-1,45
 308 310 308 310 296 382 c 128,-1,46
 284 454 284 454 242 454 c 0,47,48
 214.147540984 454 214.147540984 454 196 392.5 c 0,49,50
 167.336862368 295.363811357 167.336862368 295.363811357 143.5 89.5 c 0,51,52
 138 42 138 42 135 21 c 1,53,54
 113.676470588 2.61764705882 113.676470588 2.61764705882 92.3529411765 2.61764705882 c 1,55,-1
 77 5 l 1,56,57
 63 172 63 172 63 419 c 1,58,59
 74 437 74 437 106 437 c 0,0,1
EndSplineSet
EndChar

StartChar: n
Encoding: 110 110 14
Width: 476
Flags: HMW
HStem: 457 36<238.5 337>
LayerCount: 2
Fore
SplineSet
470 28 m 1,0,1
 452 9 452 9 429 9 c 0,2,3
 386 9 386 9 365 55 c 128,-1,4
 344 101 344 101 340.5 167 c 128,-1,5
 337 233 337 233 336 299 c 128,-1,6
 335 365 335 365 325.5 411 c 128,-1,7
 316 457 316 457 290 457 c 0,8,9
 255 457 255 457 230.5 394 c 128,-1,10
 206 331 206 331 196 254 c 0,11,12
 168.089552239 39.0895522388 168.089552239 39.0895522388 142 13 c 1,13,14
 123.545454545 4.09090909091 123.545454545 4.09090909091 110.636363636 4.09090909091 c 128,-1,15
 97.7272727273 4.09090909091 97.7272727273 4.09090909091 89 7 c 1,16,17
 67.5467735777 99.4138984345 67.5467735777 99.4138984345 62.5 324.5 c 0,18,19
 60 436 60 436 58 469 c 1,20,21
 79.3793103448 482.793103448 79.3793103448 482.793103448 94.1896551724 482.793103448 c 128,-1,22
 109 482.793103448 109 482.793103448 118 480 c 1,23,24
 123 437 123 437 123.5 304 c 128,-1,25
 124 171 124 171 125 151 c 1,26,27
 130 172 130 172 137.5 219 c 128,-1,28
 145 266 145 266 151 296.5 c 128,-1,29
 157 327 157 327 170 368 c 128,-1,30
 183 409 183 409 199 433.5 c 128,-1,31
 215 458 215 458 243 475.5 c 128,-1,32
 271 493 271 493 306 493 c 0,33,34
 353 493 353 493 374.5 450.5 c 128,-1,35
 396 408 396 408 398 345 c 128,-1,36
 400 282 400 282 400.5 217 c 128,-1,37
 401 152 401 152 416.5 98 c 128,-1,38
 432 44 432 44 470 28 c 1,0,1
EndSplineSet
EndChar

StartChar: o
Encoding: 111 111 15
Width: 490
Flags: HMW
HStem: 0 39<179.5 271.5 179.5 294> 452 41<190 283.5>
VStem: 43 68<171.5 252 171.5 290.5> 384 67<175 273>
LayerCount: 2
Fore
SplineSet
240 493 m 128,-1,1
 336 493 336 493 393.5 415 c 128,-1,2
 451 337 451 337 451 237.5 c 128,-1,3
 451 138 451 138 388 69 c 128,-1,4
 325 0 325 0 228 0 c 128,-1,5
 131 0 131 0 87 54.5 c 128,-1,6
 43 109 43 109 43 208 c 0,7,8
 43 337 43 337 93.5 415 c 128,-1,0
 144 493 144 493 240 493 c 128,-1,1
117.5 284 m 128,-1,10
 111 245 111 245 111 211.5 c 128,-1,11
 111 178 111 178 116 150.5 c 128,-1,12
 121 123 121 123 133 96.5 c 128,-1,13
 145 70 145 70 169 54.5 c 128,-1,14
 193 39 193 39 226 39 c 0,15,16
 293 39 293 39 338.5 94 c 128,-1,17
 384 149 384 149 384 227 c 128,-1,18
 384 305 384 305 342.5 378.5 c 128,-1,19
 301 452 301 452 241 452 c 0,20,21
 205 452 205 452 178 427 c 128,-1,22
 151 402 151 402 137.5 362.5 c 128,-1,9
 124 323 124 323 117.5 284 c 128,-1,10
EndSplineSet
EndChar

StartChar: p
Encoding: 112 112 16
Width: 471
Flags: HMW
HStem: 9 50<215 276.5 215 289> 444 54<192.5 287>
VStem: 53 61<137 229.5 137 262.5> 81 33 362 68<176.5 283>
LayerCount: 2
Fore
SplineSet
117 31 m 1,0,1
 120.5 -49.5 120.5 -49.5 137 -198 c 1,2,3
 118.107142857 -216.892857143 118.107142857 -216.892857143 92.4668367347 -216.892857143 c 0,4,5
 86.8928571429 -216.892857143 86.8928571429 -216.892857143 81 -216 c 1,6,7
 80 -177 80 -177 66.5 -39 c 128,-1,8
 53 99 53 99 53 172.5 c 128,-1,9
 53 246 53 246 62 300 c 128,-1,10
 71 354 71 354 93 401 c 0,11,12
 138.404255319 498 138.404255319 498 259 498 c 0,13,14
 334 498 334 498 382 416 c 128,-1,15
 430 334 430 334 430 225 c 0,16,17
 430 139 430 139 374 74 c 128,-1,18
 318 9 318 9 219 9 c 0,19,20
 158 9 158 9 117 31 c 1,0,1
251 444 m 0,21,22
 166.482758621 444 166.482758621 444 138 355.5 c 0,23,24
 114 280.928571429 114 280.928571429 114 149 c 0,25,26
 114 101 114 101 115 78 c 1,27,28
 204 59 204 59 236 59 c 0,29,30
 294 59 294 59 328 105.5 c 128,-1,31
 362 152 362 152 362 219 c 0,32,33
 362 318 362 318 332.5 381 c 128,-1,34
 303 444 303 444 251 444 c 0,21,22
EndSplineSet
EndChar

StartChar: q
Encoding: 113 113 17
Width: 463
Flags: HMW
HStem: 14 54<138 211.5> 439 47<180.5 254>
VStem: 44 62<161 226.5 161 252.5> 106 211<161 383>
LayerCount: 2
Fore
SplineSet
389.5 343 m 128,-1,1
 401 281 401 281 402.640625 227.84375 c 128,-1,2
 404.28125 174.6875 404.28125 174.6875 404.28125 135.28125 c 128,-1,3
 404.28125 95.875 404.28125 95.875 400.373958333 43.3041666667 c 128,-1,4
 396.466666667 -9.26666666667 396.466666667 -9.26666666667 396.466666667 -87.9307692308 c 128,-1,5
 396.466666667 -166.594871795 396.466666667 -166.594871795 412 -212 c 1,6,7
 397.908571429 -233.92 397.908571429 -233.92 370.7776 -233.92 c 0,8,9
 361.84 -233.92 361.84 -233.92 354 -230 c 1,10,11
 347.25 -168.5 347.25 -168.5 347.25 -79.71875 c 1,12,-1
 348.818181818 50.2975206612 l 1,13,14
 348.818181818 136.181818182 348.818181818 136.181818182 343 198 c 1,15,16
 292.364556962 62.9721518987 292.364556962 62.9721518987 226.5 29.5 c 0,17,18
 196 14 196 14 158 14 c 0,19,20
 94 14 94 14 69 58 c 128,-1,21
 44 102 44 102 44 170 c 128,-1,22
 44 238 44 238 54.5 289.5 c 128,-1,23
 65 341 65 341 87 386.5 c 128,-1,24
 109 432 109 432 148 459 c 128,-1,25
 187 486 187 486 245 486 c 128,-1,26
 303 486 303 486 340.5 445.5 c 128,-1,0
 378 405 378 405 389.5 343 c 128,-1,1
317 370 m 0,27,28
 317 392 317 392 290.5 415.5 c 128,-1,29
 264 439 264 439 229 439 c 128,-1,30
 194 439 194 439 169 412 c 128,-1,31
 144 385 144 385 131 343 c 0,32,33
 106 262.230769231 106 262.230769231 106 201.615384615 c 0,34,35
 106 68 106 68 158 68 c 0,36,37
 202 68 202 68 235 102 c 128,-1,38
 268 136 268 136 284.5 187 c 0,39,40
 317 287.454545455 317 287.454545455 317 370 c 0,27,28
EndSplineSet
EndChar

StartChar: r
Encoding: 114 114 18
Width: 398
Flags: HMW
HStem: 381 115<240.5 365> 452 44<240.5 308.5>
LayerCount: 2
Fore
SplineSet
156.75 98.3828125 m 1,0,-1
 159.727272727 41.3388429752 l 1,1,2
 159.727272727 18.7272727273 159.727272727 18.7272727273 147.363636364 10.1414141414 c 128,-1,3
 135 1.55555555556 135 1.55555555556 122.666666667 1.55555555556 c 128,-1,4
 110.333333333 1.55555555556 110.333333333 1.55555555556 97 6 c 1,5,6
 74.8268156425 121.793296089 74.8268156425 121.793296089 63.4134078212 294.896648045 c 128,-1,7
 52 468 52 468 50 491 c 1,8,9
 65.09375 504.78125 65.09375 504.78125 81.515625 504.78125 c 128,-1,10
 97.9375 504.78125 97.9375 504.78125 111 501 c 1,11,12
 115 472 115 472 117 373 c 128,-1,13
 119 274 119 274 122 249 c 1,14,15
 136.315196998 332.846153846 136.315196998 332.846153846 172 406 c 0,16,17
 192 447 192 447 224.5 471.5 c 128,-1,18
 257 496 257 496 294.5 496 c 128,-1,19
 332 496 332 496 363.5 462.5 c 128,-1,20
 395 429 395 429 395 402 c 0,21,22
 395 392 395 392 383 386.5 c 128,-1,23
 371 381 371 381 356.5 381 c 128,-1,24
 342 381 342 381 334 392 c 128,-1,25
 326 403 326 403 323 416.5 c 128,-1,26
 320 430 320 430 310 441 c 128,-1,27
 300 452 300 452 283 452 c 0,28,29
 238 452 238 452 205.5 371 c 0,30,31
 156.75 249.5 156.75 249.5 156.75 98.3828125 c 1,0,-1
EndSplineSet
EndChar

StartChar: s
Encoding: 115 115 19
Width: 436
Flags: HMW
HStem: 1 48<199.5 253.5 185 267> 1 111 350 147<185.5 355.5> 449 48<193 240>
VStem: 25 87 47 65<301.5 393.5 301.5 401.5> 344 38 344 65<99 192>
LayerCount: 2
Fore
SplineSet
310 400 m 0,0,1
 301 423 301 423 276 436 c 128,-1,2
 251 449 251 449 214 449 c 128,-1,3
 177 449 177 449 144.5 427 c 128,-1,4
 112 405 112 405 112 368 c 128,-1,5
 112 331 112 331 142.5 309.5 c 128,-1,6
 173 288 173 288 216.5 277 c 128,-1,7
 260 266 260 266 304 253.5 c 128,-1,8
 348 241 348 241 378.5 212.5 c 128,-1,9
 409 184 409 184 409 138 c 0,10,11
 409 71 409 71 353.5 36 c 128,-1,12
 298 1 298 1 220 1 c 0,13,14
 174 1 174 1 99.5 26 c 128,-1,15
 25 51 25 51 25 86 c 0,16,17
 25 112 25 112 69 112 c 0,18,19
 82 112 82 112 103 96.5 c 0,20,21
 167.35483871 49 167.35483871 49 234 49 c 0,22,23
 270.176470588 49 270.176470588 49 295.588235294 61 c 0,24,25
 344 83.8611111111 344 83.8611111111 344 135 c 0,26,27
 344 166 344 166 313.5 185 c 128,-1,28
 283 204 283 204 239.5 215 c 128,-1,29
 196 226 196 226 152 239 c 128,-1,30
 108 252 108 252 77.5 282.5 c 128,-1,31
 47 313 47 313 47 360 c 0,32,33
 47 421 47 421 102 459 c 128,-1,34
 157 497 157 497 238 497 c 0,35,36
 293 497 293 497 337.5 468.5 c 128,-1,37
 382 440 382 440 382 386 c 0,38,39
 382 350 382 350 341 350 c 0,40,41
 324 350 324 350 318.5 356 c 128,-1,42
 313 362 313 362 312.5 377.5 c 128,-1,43
 312 393 312 393 310 400 c 0,0,1
EndSplineSet
EndChar

StartChar: t
Encoding: 116 116 20
Width: 358
Flags: HMW
HStem: 8 51<203 260.5> 8 78<172 335>
VStem: 94 66
LayerCount: 2
Fore
SplineSet
60 418.666666667 m 0,0,1
 15.4561403509 418.666666667 15.4561403509 418.666666667 -1 441 c 1,2,3
 -1 457 -1 457 12.5 466 c 128,-1,4
 26 475 26 475 42 477.5 c 128,-1,5
 58 480 58 480 94 482 c 1,6,7
 97 509 97 509 97.5 551.5 c 128,-1,8
 98 594 98 594 99 623.5 c 0,9,10
 101.685785536 702.730673317 101.685785536 702.730673317 123 721 c 0,11,12
 132.333333333 729 132.333333333 729 142.666666667 729 c 128,-1,13
 153 729 153 729 161 727 c 1,14,15
 164 655 164 655 164 640.5 c 2,16,-1
 158 490 l 1,17,18
 160.4 489.2 160.4 489.2 168.56 489.2 c 2,19,-1
 240.806122449 492.285714286 l 1,20,21
 319 492.285714286 319 492.285714286 319 468 c 0,22,23
 319 434 319 434 291 428 c 0,24,25
 278.076923077 425.230769231 278.076923077 425.230769231 260.384615385 425.230769231 c 128,-1,26
 242.692307692 425.230769231 242.692307692 425.230769231 215.446153846 429.565384615 c 128,-1,27
 188.2 433.9 188.2 433.9 176.35 433.9 c 128,-1,28
 164.5 433.9 164.5 433.9 160 433 c 1,29,30
 156.666666667 404.333333333 156.666666667 404.333333333 156.666666667 375.833333333 c 128,-1,31
 156.666666667 347.333333333 156.666666667 347.333333333 158.333333333 304.666666667 c 128,-1,32
 160 262 160 262 166.5 203 c 128,-1,33
 173 144 173 144 195 101.5 c 128,-1,34
 217 59 217 59 251 59 c 0,35,36
 268 59 268 59 291 72.5 c 128,-1,37
 314 86 314 86 326.5 86 c 128,-1,38
 339 86 339 86 348.5 80.5 c 128,-1,39
 358 75 358 75 358 68 c 0,40,41
 358 47 358 47 315.5 27.5 c 128,-1,42
 273 8 273 8 243 8 c 0,43,44
 132.519217938 8 132.519217938 8 106.025125643 215.757741797 c 0,45,46
 98.3124979771 276.237568375 98.3124979771 276.237568375 94 422 c 1,47,48
 78 418.666666667 78 418.666666667 60 418.666666667 c 0,0,1
EndSplineSet
EndChar

StartChar: u
Encoding: 117 117 21
Width: 458
Flags: HMW
HStem: -1 40<184 311 184 340.5>
LayerCount: 2
Fore
SplineSet
141 469 m 1,0,1
 114.734375 420.050426136 114.734375 420.050426136 114.734375 323.206054688 c 0,2,3
 114.734375 177.282451923 114.734375 177.282451923 169.5 90.5 c 0,4,5
 202 39 202 39 246.5 39 c 128,-1,6
 291 39 291 39 317.5 86.5 c 0,7,8
 349.523809524 143.901168014 349.523809524 143.901168014 349.523809524 246.399092971 c 0,9,10
 349.523809524 374.292063492 349.523809524 374.292063492 314.5 435 c 0,11,12
 297.707964602 464.10619469 297.707964602 464.10619469 295.353982301 477.053097345 c 128,-1,13
 293 490 293 490 302 496 c 128,-1,14
 311 502 311 502 332 502 c 0,15,16
 393 502 393 502 412.5 376 c 0,17,18
 417.932142857 340.9 417.932142857 340.9 417.932142857 305.83880102 c 0,19,20
 417.932142857 215.039285714 417.932142857 215.039285714 381.5 124.5 c 0,21,22
 331 -1 331 -1 221 -1 c 0,23,24
 163 -1 163 -1 122 42.5 c 0,25,26
 45 124.195121951 45 124.195121951 45 289 c 0,27,28
 45 361 45 361 55 399 c 128,-1,29
 65 437 65 437 72 448.5 c 128,-1,30
 79 460 79 460 89 470 c 128,-1,31
 99 480 99 480 111.5 478 c 128,-1,32
 124 476 124 476 141 469 c 1,0,1
EndSplineSet
EndChar

StartChar: v
Encoding: 118 118 22
Width: 449
Flags: HMW
HStem: 1 21G<213 249.5>
LayerCount: 2
Fore
SplineSet
12 481 m 1,0,1
 20.7818181818 499.818181818 20.7818181818 499.818181818 50.7851239669 499.818181818 c 0,2,3
 64.2727272727 499.818181818 64.2727272727 499.818181818 73 494 c 1,4,5
 100.642857143 417.214285714 100.642857143 417.214285714 128.321428571 338.607142857 c 0,6,7
 178.672253259 195.610800745 178.672253259 195.610800745 223 113 c 1,8,9
 244 235 244 235 304.5 359 c 128,-1,10
 365 483 365 483 415 483 c 0,11,12
 430 483 430 483 445 476 c 1,13,14
 330 325 330 325 280 76 c 1,15,16
 270.3125 17.875 270.3125 17.875 258.5 10 c 0,17,18
 245 1 245 1 231 1 c 128,-1,19
 217 1 217 1 209.5 7 c 128,-1,20
 202 13 202 13 198.5 19 c 128,-1,21
 195 25 195 25 189.5 39 c 128,-1,22
 184 53 184 53 181 58 c 0,23,24
 79 249 79 249 12 481 c 1,0,1
EndSplineSet
EndChar

StartChar: w
Encoding: 119 119 23
Width: 672
Flags: HMW
HStem: 6 21G<132.5 204.5> 12 29<464.5 520.5> 491 20G<488 498>
VStem: 55 68<223.5 238.5> 278 87<206 354> 566 65<152 232.5 133.5 248>
LayerCount: 2
Fore
SplineSet
328 116 m 1,0,1
 312 70 312 70 266.5 38 c 128,-1,2
 221 6 221 6 167.5 6 c 128,-1,3
 114 6 114 6 84.5 59.5 c 128,-1,4
 55 113 55 113 55 208 c 0,5,6
 55 476 55 476 134 476 c 0,7,8
 144 476 144 476 159 473 c 1,9,10
 156 457 156 457 145 412.5 c 0,11,12
 123 323.5 123 323.5 123 256.75 c 128,-1,13
 123 190 123 190 142 115.5 c 128,-1,14
 161 41 161 41 196 41 c 0,15,16
 214 41 214 41 231 64 c 128,-1,17
 248 87 248 87 258 112.5 c 128,-1,18
 268 138 268 138 279 171 c 128,-1,19
 290 204 290 204 293 211 c 1,20,21
 278 269 278 269 278 329 c 0,22,23
 278 332 278 332 278 347.5 c 128,-1,24
 278 363 278 363 279 378 c 128,-1,25
 280 393 280 393 285 414 c 0,26,27
 295 456 295 456 339 456 c 0,28,29
 376 456 376 456 376 344 c 0,30,31
 376 324 376 324 370.5 286 c 128,-1,32
 365 248 365 248 365 233 c 0,33,34
 365 187 365 187 409 114 c 128,-1,35
 453 41 453 41 491.5 41 c 128,-1,36
 530 41 530 41 548 85 c 128,-1,37
 566 129 566 129 566 183 c 0,38,39
 566 245.384615385 566 245.384615385 555.5 277.692307692 c 128,-1,40
 545 310 545 310 542.5 320 c 128,-1,41
 540 330 540 330 529.5 351.5 c 128,-1,42
 519 373 519 373 516.5 379 c 128,-1,43
 514 385 514 385 501 408 c 128,-1,44
 488 431 488 431 486 434.5 c 0,45,46
 457.333333333 484.666666667 457.333333333 484.666666667 452 490 c 1,47,48
 477 511 477 511 498 511 c 1,49,50
 559 467 559 467 595 367.5 c 128,-1,51
 631 268 631 268 631 186.5 c 128,-1,52
 631 105 631 105 596.5 58.5 c 128,-1,53
 562 12 562 12 489 12 c 0,54,55
 438 12 438 12 392.5 40.5 c 128,-1,56
 347 69 347 69 328 116 c 1,0,1
EndSplineSet
EndChar

StartChar: x
Encoding: 120 120 24
Width: 387
Flags: HW
LayerCount: 2
Fore
SplineSet
27 470 m 1,0,1
 44.1923076923 492.923076923 44.1923076923 492.923076923 69.7396449704 492.923076923 c 0,2,3
 80.1538461538 492.923076923 80.1538461538 492.923076923 90 488 c 1,4,5
 111 354 111 354 178 242 c 1,6,7
 222 324 222 324 284 473 c 1,8,9
 308 486.333333333 308 486.333333333 322.666666667 486.333333333 c 128,-1,10
 337.333333333 486.333333333 337.333333333 486.333333333 346 483 c 1,11,12
 326.259459459 418.394594595 326.259459459 418.394594595 299.12972973 362.197297297 c 128,-1,13
 272 306 272 306 248 259 c 128,-1,14
 224 212 224 212 213 190 c 1,15,16
 241 155 241 155 260.5 134.5 c 128,-1,17
 280 114 280 114 315 91.5 c 0,18,19
 360.888888889 62 360.888888889 62 402 62 c 0,20,21
 423 62 423 62 431 54 c 1,22,23
 420 20 420 20 378 20 c 0,24,25
 307.904761905 20 307.904761905 20 238.5 75 c 0,26,27
 212 96 212 96 207.5 100.5 c 128,-1,28
 203 105 203 105 180 127 c 1,29,30
 172 115 172 115 157.5 85 c 128,-1,31
 143 55 143 55 133 37.5 c 128,-1,32
 123 20 123 20 105.8 10.4 c 128,-1,33
 88.6 0.8 88.6 0.8 76.2 0.8 c 128,-1,34
 63.8 0.8 63.8 0.8 53 4 c 1,35,36
 69 37 69 37 100.5 94 c 128,-1,37
 132 151 132 151 143 172 c 1,38,39
 93 250 93 250 63.5 317.5 c 128,-1,40
 34 385 34 385 27 470 c 1,0,1
EndSplineSet
EndChar

StartChar: y
Encoding: 121 121 25
Width: 442
Flags: HMW
HStem: -247 33<163 244.5 163 265> 11 30<176 242>
VStem: 298 64 326 64<-91 3>
LayerCount: 2
Fore
SplineSet
298 420 m 0,0,1
 298 492.37037037 298 492.37037037 344.44170096 492.37037037 c 0,2,3
 352.518518519 492.37037037 352.518518519 492.37037037 362 490 c 1,4,5
 361.764705882 478.470588235 361.764705882 478.470588235 361.764705882 425.294117647 c 128,-1,6
 361.764705882 372.117647059 361.764705882 372.117647059 375.882352941 213.058823529 c 128,-1,7
 390 54 390 54 390 -25 c 0,8,9
 390 -151 390 -151 346 -199 c 128,-1,10
 302 -247 302 -247 196.5 -247 c 128,-1,11
 91 -247 91 -247 -2 -179 c 1,12,13
 16 -157 16 -157 45 -157 c 1,14,15
 56 -158 56 -158 80.5 -172.5 c 0,16,17
 150.620689655 -214 150.620689655 -214 198 -214 c 0,18,19
 268 -214 268 -214 297 -170 c 128,-1,20
 326 -126 326 -126 326 -22 c 0,21,22
 326 3 326 3 321 158 c 1,23,24
 320 155 320 155 314 132.5 c 128,-1,25
 308 110 308 110 305 103 c 128,-1,26
 302 96 302 96 294.5 77 c 128,-1,27
 287 58 287 58 279 50 c 128,-1,28
 271 42 271 42 258.5 31 c 0,29,30
 235.772727273 11 235.772727273 11 202.386363636 11 c 128,-1,31
 169 11 169 11 149 20 c 128,-1,32
 129 29 129 29 115.5 48 c 128,-1,33
 102 67 102 67 91.5 88 c 128,-1,34
 81 109 81 109 75 141.5 c 128,-1,35
 69 174 69 174 65.5 201 c 128,-1,36
 62 228 62 228 60.5 267 c 128,-1,37
 59 306 59 306 58.5 332 c 128,-1,38
 58 358 58 358 58 398 c 2,39,-1
 58 458 l 1,40,41
 68.4347826087 475.391304348 68.4347826087 475.391304348 93.6143667297 475.391304348 c 0,42,43
 130.260869565 475.391304348 130.260869565 475.391304348 130.260869565 448.680529301 c 1,44,-1
 124.214285714 352.048469388 l 1,45,46
 124.214285714 225.244680851 124.214285714 225.244680851 151.107142857 133.122340426 c 128,-1,47
 178 41 178 41 207 41 c 0,48,49
 229 41 229 41 246 65 c 128,-1,50
 263 89 263 89 272 132.5 c 128,-1,51
 281 176 281 176 287 215 c 128,-1,52
 293 254 293 254 295 306.5 c 0,53,54
 298 385.25 298 385.25 298 420 c 0,0,1
EndSplineSet
EndChar

StartChar: z
Encoding: 122 122 26
Width: 440
Flags: HMW
HStem: 11 70 24 57<316.5 363.5> 414 79 438 55<245 266.5>
VStem: 316 68<369 412.5>
LayerCount: 2
Fore
SplineSet
148 68 m 1,0,1
 301 81 301 81 362 81 c 128,-1,2
 423 81 423 81 423 52 c 0,3,4
 423 30.6 423 30.6 400.5 27 c 0,5,6
 381.75 24 381.75 24 325.375 24 c 128,-1,7
 269 24 269 24 182.5 17.5 c 128,-1,8
 96 11 96 11 66.6478105518 11 c 128,-1,9
 37.2956211035 11 37.2956211035 11 37.2956211035 27.9908661954 c 0,10,11
 37.2956211035 51.8735928063 37.2956211035 51.8735928063 99.9362377657 109.326393115 c 1,12,-1
 159.5 170 l 2,13,14
 205 216 205 216 233 247.5 c 128,-1,15
 261 279 261 279 288.5 323 c 128,-1,16
 316 367 316 367 316 397 c 0,17,18
 316 438 316 438 247 438 c 0,19,20
 214 438 214 438 150.5 426 c 128,-1,21
 87 414 87 414 55 414 c 128,-1,22
 23 414 23 414 23 436 c 0,23,24
 23 464 23 464 113.5 478.5 c 128,-1,25
 204 493 204 493 269 493 c 0,26,27
 384 493 384 493 384 422 c 0,28,29
 384 375 384 375 342.5 309.5 c 128,-1,30
 301 244 301 244 227.5 160 c 128,-1,31
 154 76 154 76 148 68 c 1,0,1
EndSplineSet
EndChar

StartChar: A
Encoding: 65 65 27
Width: 694
Flags: HMW
HStem: 247 52 664 53<286.5 425.5>
LayerCount: 2
Fore
SplineSet
661 5 m 1,0,1
 645.013605442 -17.380952381 645.013605442 -17.380952381 614.691609977 -17.380952381 c 0,2,3
 606.619047619 -17.380952381 606.619047619 -17.380952381 599 -15 c 1,4,5
 577.027444254 35.2229845626 577.027444254 35.2229845626 566.513722127 126.611492281 c 128,-1,6
 556 218 556 218 551 247 c 1,7,8
 441.814814815 251.481481481 441.814814815 251.481481481 332.87037037 251.481481481 c 128,-1,9
 223.925925926 251.481481481 223.925925926 251.481481481 138 242 c 1,10,11
 129 201 129 201 118.5 119.5 c 128,-1,12
 108 38 108 38 103 10 c 1,13,14
 66.6956521739 -19.0434782609 66.6956521739 -19.0434782609 38 2 c 1,15,16
 41 26 41 26 47 78 c 128,-1,17
 53 130 53 130 57.5 166.5 c 128,-1,18
 62 203 62 203 71 259 c 128,-1,19
 80 315 80 315 88.5 355.5 c 128,-1,20
 97 396 97 396 112 446.5 c 128,-1,21
 127 497 127 497 143 533 c 128,-1,22
 159 569 159 569 182.5 606 c 128,-1,23
 206 643 206 643 233 665.5 c 0,24,25
 294.8 717 294.8 717 367.9 717 c 128,-1,26
 441 717 441 717 489.5 661 c 128,-1,27
 538 605 538 605 563 514 c 128,-1,28
 588 423 588 423 603 331 c 128,-1,29
 618 239 618 239 632 143 c 128,-1,30
 646 47 646 47 661 5 c 1,0,1
426 636.5 m 128,-1,32
 396 664 396 664 352 664 c 128,-1,33
 308 664 308 664 267 621 c 128,-1,34
 226 578 226 578 202.5 513.5 c 0,35,36
 159.176870748 394.591836735 159.176870748 394.591836735 148 294 c 1,37,38
 248.181818182 304.939393939 248.181818182 304.939393939 349 304.939393939 c 128,-1,39
 449.818181818 304.939393939 449.818181818 304.939393939 544 299 c 1,40,41
 540 314 540 314 529 370 c 128,-1,42
 518 426 518 426 506.5 468.5 c 128,-1,43
 495 511 495 511 475.5 560 c 128,-1,31
 456 609 456 609 426 636.5 c 128,-1,32
EndSplineSet
EndChar

StartChar: B
Encoding: 66 66 28
Width: 696
Flags: HMW
HStem: -11 53<267 344 267 370.5> 658 53<286.5 363.5>
VStem: 80 70 564 62<493.5 564> 580 46 580 73<135 234.5>
LayerCount: 2
Fore
SplineSet
88 62 m 2,0,-1
 80 647 l 2,1,2
 80 711 80 711 339 711 c 0,3,4
 461 711 461 711 543.5 665 c 128,-1,5
 626 619 626 619 626 533 c 0,6,7
 626 476 626 476 582 425 c 128,-1,8
 538 374 538 374 483 360 c 1,9,10
 552 339 552 339 602.5 299 c 128,-1,11
 653 259 653 259 653 195 c 128,-1,12
 653 131 653 131 598 82.5 c 0,13,14
 491.969072165 -11 491.969072165 -11 272 -11 c 0,15,16
 88 -11 88 -11 88 62 c 2,0,-1
153 357 m 1,17,18
 214.714285714 381 214.714285714 381 289.5 381 c 0,19,20
 324.75 381 324.75 381 360 381 c 0,21,22
 413 381 413 381 488.5 428.5 c 128,-1,23
 564 476 564 476 564 519 c 0,24,25
 564 583 564 583 484 620.5 c 128,-1,26
 404 658 404 658 307 658 c 128,-1,27
 210 658 210 658 150 636 c 1,28,29
 149.666666667 617.666666667 149.666666667 617.666666667 149.666666667 583.416666667 c 128,-1,30
 149.666666667 549.166666667 149.666666667 549.166666667 151.333333333 469.583333333 c 128,-1,31
 153 390 153 390 153 357 c 1,17,18
580 195 m 0,32,33
 580 282 580 282 392 322 c 1,34,35
 296.102040816 294.06122449 296.102040816 294.06122449 209.897126197 294.06122449 c 0,36,37
 181.93877551 294.06122449 181.93877551 294.06122449 155 297 c 1,38,39
 158 178 158 178 158 55 c 1,40,41
 216 42 216 42 275.5 42 c 128,-1,42
 335 42 335 42 381.5 49.5 c 128,-1,43
 428 57 428 57 474.5 73 c 128,-1,44
 521 89 521 89 550.5 121 c 128,-1,45
 580 153 580 153 580 195 c 0,32,33
EndSplineSet
EndChar

StartChar: C
Encoding: 67 67 29
Width: 738
Flags: HMW
HStem: -6 45<303.5 431 303.5 434.5> 655 50<339.5 448>
VStem: 48 66<219.5 383.5>
LayerCount: 2
Fore
SplineSet
645 565 m 1,0,1
 630 551 630 551 619 545 c 128,-1,2
 608 539 608 539 597.5 544 c 128,-1,3
 587 549 587 549 583 552 c 128,-1,4
 579 555 579 555 567.5 571.5 c 128,-1,5
 556 588 556 588 553 592 c 0,6,7
 502 655 502 655 421.5 655 c 128,-1,8
 341 655 341 655 270.5 603.5 c 128,-1,9
 200 552 200 552 157 468 c 128,-1,10
 114 384 114 384 114 293 c 0,11,12
 114 181 114 181 188.5 110 c 128,-1,13
 263 39 263 39 386.5 39 c 128,-1,14
 510 39 510 39 603 108 c 0,15,16
 617.807692308 118.769230769 617.807692308 118.769230769 635.403846154 139.884615385 c 128,-1,17
 653 161 653 161 665.5 170 c 128,-1,18
 678 179 678 179 689.5 178 c 128,-1,19
 701 177 701 177 722 171 c 1,20,21
 679 87 679 87 578.5 40.5 c 128,-1,22
 478 -6 478 -6 351 -6 c 128,-1,23
 224 -6 224 -6 136 65 c 128,-1,24
 48 136 48 136 48 271 c 0,25,26
 48 355 48 355 76 433.5 c 128,-1,27
 104 512 104 512 153.5 572.5 c 128,-1,28
 203 633 203 633 277.5 669 c 128,-1,29
 352 705 352 705 439 705 c 0,30,31
 594 705 594 705 645 565 c 1,0,1
EndSplineSet
EndChar

StartChar: D
Encoding: 68 68 30
Width: 757
Flags: HMW
HStem: -6 57<248.5 370.5 248.5 373.5> 660 51<292.5 419.5>
VStem: 77 71 93 70<520.5 615 520.5 649> 639 71<254 440.5>
LayerCount: 2
Fore
SplineSet
264 -6 m 1,0,-1
 180.71875 -8.625 l 1,1,2
 111.077380952 -8.625 111.077380952 -8.625 89.5 9.5 c 0,3,4
 77 20 77 20 77 38 c 0,5,6
 77 151 77 151 85 334.5 c 128,-1,7
 93 518 93 518 93 620 c 0,8,9
 93 661 93 661 169 686 c 128,-1,10
 245 711 245 711 332 711 c 0,11,12
 495 711 495 711 602.5 619 c 128,-1,13
 710 527 710 527 710 380 c 0,14,15
 710 306 710 306 684.5 243 c 128,-1,16
 659 180 659 180 616 134.5 c 128,-1,17
 573 89 573 89 515.5 57 c 0,18,19
 402.296875 -6 402.296875 -6 264 -6 c 1,0,-1
639 356 m 0,20,21
 639 485 639 485 551.5 572.5 c 128,-1,22
 464 660 464 660 325 660 c 0,23,24
 257 660 257 660 163 615 c 1,25,26
 163 534 163 534 155.125 372.5625 c 128,-1,27
 147.25 211.125 147.25 211.125 147.25 149.4375 c 128,-1,28
 147.25 87.75 147.25 87.75 148 62 c 1,29,30
 204 51 204 51 268 51 c 0,31,32
 430 51 430 51 534.5 130 c 128,-1,33
 639 209 639 209 639 356 c 0,20,21
EndSplineSet
EndChar

StartChar: E
Encoding: 69 69 31
Width: 630
Flags: HMW
HStem: 1 63 314 60<355 406.5> 651 64<463.5 506.5 432.5 539.5>
VStem: 84 71
LayerCount: 2
Fore
SplineSet
333.15625 717.625 m 2,0,-1
 487 715 l 1,1,2
 564 715 564 715 593 697 c 1,3,4
 590 669 590 669 572 660 c 128,-1,5
 554 651 554 651 520 651 c 2,6,-1
 303.6875 653.625 l 2,7,8
 221.5 653.625 221.5 653.625 166 649 c 1,9,10
 155.4 592.971428571 155.4 592.971428571 155.4 488.42 c 2,11,-1
 155.666666667 443 l 2,12,13
 155.666666667 413.666666667 155.666666667 413.666666667 155 381 c 1,14,15
 201.4 373 201.4 373 275 373 c 2,16,-1
 394 374 l 2,17,18
 461.866024949 374 461.866024949 374 471.933012475 366.832342023 c 128,-1,19
 482 359.664684046 482 359.664684046 482 352 c 0,20,21
 482 314 482 314 385 314 c 1,22,-1
 158 321 l 1,23,24
 157 297 157 297 156 239 c 0,25,26
 153.918367347 118.265306122 153.918367347 118.265306122 147 56 c 1,27,28
 210.846153846 52.1538461538 210.846153846 52.1538461538 239.076923077 52.1538461538 c 128,-1,29
 267.307692308 52.1538461538 267.307692308 52.1538461538 297.153846154 53.0769230769 c 128,-1,30
 327 54 327 54 409 59 c 128,-1,31
 491 64 491 64 531.5 64 c 128,-1,32
 572 64 572 64 587 58.5 c 128,-1,33
 602 53 602 53 602 34 c 0,34,35
 602 21.6666666667 602 21.6666666667 595.5 17.3333333333 c 128,-1,36
 589 13 589 13 584 10.5 c 128,-1,37
 579 8 579 8 571.5 6.5 c 128,-1,38
 564 5 564 5 558.5 4 c 128,-1,39
 553 3 553 3 543.5 2.5 c 128,-1,40
 534 2 534 2 528.5 1.5 c 128,-1,41
 523 1 523 1 513.5 1 c 2,42,-1
 500 1 l 1,43,44
 304 -8.33333333333 304 -8.33333333333 249.333333333 -8.33333333333 c 0,45,46
 84 -8.33333333333 84 -8.33333333333 84 38 c 0,47,48
 82.3666666667 130.866666667 82.3666666667 130.866666667 82.3666666667 215.131111111 c 0,49,50
 82.3666666667 492 82.3666666667 492 100 676 c 1,51,52
 120.903225806 709.44516129 120.903225806 709.44516129 222 714.5 c 0,53,54
 284.5 717.625 284.5 717.625 333.15625 717.625 c 2,0,-1
EndSplineSet
EndChar

StartChar: F
Encoding: 70 70 32
Width: 602
Flags: HMW
HStem: 318 54<318 360> 653 65
VStem: 76 75
LayerCount: 2
Fore
SplineSet
443 718 m 1,0,-1
 488.5 717 l 2,1,2
 515 717 515 717 530 714.5 c 2,3,-1
 557 710 l 2,4,5
 577.869565217 706.52173913 577.869565217 706.52173913 594 695 c 1,6,7
 586 653 586 653 528 653 c 1,8,-1
 262.986111111 661.166666667 l 1,9,10
 220 661.166666667 220 661.166666667 160 657 c 1,11,12
 162 548 162 548 162 362 c 1,13,14
 276 372 276 372 352 372 c 0,15,16
 499 372 499 372 499 343 c 0,17,18
 499 306.416666667 499 306.416666667 452.972222222 306.416666667 c 0,19,20
 436.583333333 306.416666667 436.583333333 306.416666667 417.791666667 308.708333333 c 0,21,22
 341.6 318 341.6 318 285.8 318 c 128,-1,23
 230 318 230 318 161 310 c 1,24,25
 159 277 159 277 156 205.5 c 128,-1,26
 153 134 153 134 151.5 110 c 128,-1,27
 150 86 150 86 149 76 c 128,-1,28
 148 66 148 66 146.5 52 c 128,-1,29
 145 38 145 38 142.5 29 c 128,-1,30
 140 20 140 20 136 10 c 0,31,32
 129.75 -5.625 129.75 -5.625 114 -13.5 c 0,33,34
 109.1 -15.95 109.1 -15.95 104.725 -15.95 c 0,35,36
 91.9 -15.95 91.9 -15.95 76 -8 c 1,37,38
 75.7333333333 3.06666666667 75.7333333333 3.06666666667 75.7333333333 54.8333333333 c 128,-1,39
 75.7333333333 106.6 75.7333333333 106.6 85.0405797101 276.27826087 c 128,-1,40
 94.347826087 445.956521739 94.347826087 445.956521739 94.347826087 532.804347826 c 128,-1,41
 94.347826087 619.652173913 94.347826087 619.652173913 90 674 c 1,42,43
 90 698.2 90 698.2 139 708 c 0,44,45
 192.716216216 718.743243243 192.716216216 718.743243243 242.358108108 719.371621622 c 128,-1,46
 292 720 292 720 317.5 720 c 2,47,-1
 443 718 l 1,0,-1
EndSplineSet
EndChar

StartChar: G
Encoding: 71 71 33
Width: 761
Flags: HMW
HStem: -14 45<334.5 495> 672 42<348 496 337 502.5>
VStem: 48 61<204.5 393.5 204.5 413> 656 70<238 315>
LayerCount: 2
Fore
SplineSet
418.638671875 304.96875 m 0,0,1
 363 304.96875 363 304.96875 363 324 c 0,2,3
 363 346 363 346 432 358.5 c 128,-1,4
 501 371 501 371 572 371 c 128,-1,5
 643 371 643 371 675 367 c 128,-1,6
 707 363 707 363 716.5 356 c 128,-1,7
 726 349 726 349 726 336 c 0,8,9
 726 156 726 156 640 71 c 128,-1,10
 554 -14 554 -14 392.5 -14 c 128,-1,11
 231 -14 231 -14 139.5 65 c 128,-1,12
 48 144 48 144 48 283 c 0,13,14
 48 475 48 475 163 594.5 c 128,-1,15
 278 714 278 714 449 714 c 0,16,17
 524 714 524 714 591 683 c 128,-1,18
 658 652 658 652 673 603 c 1,19,20
 659 591 659 591 646.166666667 591 c 128,-1,21
 633.333333333 591 633.333333333 591 614.666666667 597 c 128,-1,22
 596 603 596 603 577 620 c 128,-1,23
 558 637 558 637 519 654.5 c 128,-1,24
 480 672 480 672 437 672 c 0,25,26
 304 672 304 672 206.5 558.5 c 128,-1,27
 109 445 109 445 109 291 c 0,28,29
 109 169 109 169 198.5 100 c 128,-1,30
 288 31 288 31 408 31 c 0,31,32
 545.12345679 31 545.12345679 31 602.5 115.5 c 0,33,34
 656 194.290909091 656 194.290909091 656 315 c 1,35,36
 648.421052632 321.736842105 648.421052632 321.736842105 635.078947368 321.736842105 c 128,-1,37
 621.736842105 321.736842105 621.736842105 321.736842105 604.368421053 320.868421053 c 0,38,39
 558.4 318.57 558.4 318.57 497.95 311.769375 c 128,-1,40
 437.5 304.96875 437.5 304.96875 418.638671875 304.96875 c 0,0,1
EndSplineSet
EndChar

StartChar: H
Encoding: 72 72 34
Width: 721
Flags: HMW
VStem: 80 65 103 55 564 67
LayerCount: 2
Fore
SplineSet
563 684 m 1,0,1
 577.74137931 707.586206897 577.74137931 707.586206897 609.211652794 707.586206897 c 0,2,3
 621.068965517 707.586206897 621.068965517 707.586206897 631 702 c 1,4,5
 638 593 638 593 638 487 c 128,-1,6
 638 381 638 381 633.5 218 c 128,-1,7
 629 55 629 55 628 7 c 1,8,9
 604.303030303 -9.0303030303 604.303030303 -9.0303030303 589.393939394 -9.0303030303 c 128,-1,10
 574.484848485 -9.0303030303 574.484848485 -9.0303030303 566 -6 c 1,11,12
 560 47 560 47 560 102.5 c 1,13,-1
 566 330 l 1,14,15
 479.58490566 337.547169811 479.58490566 337.547169811 373.575471698 337.547169811 c 128,-1,16
 267.566037736 337.547169811 267.566037736 337.547169811 153 317 c 1,17,18
 145 119 145 119 145 25 c 1,19,20
 120.046511628 5.44186046512 120.046511628 5.44186046512 104.581395349 5.44186046512 c 128,-1,21
 89.1162790698 5.44186046512 89.1162790698 5.44186046512 80 10 c 1,22,23
 76.693877551 59.2244897959 76.693877551 59.2244897959 76.693877551 147.897959184 c 128,-1,24
 76.693877551 236.571428571 76.693877551 236.571428571 89.3469387755 442.285714286 c 128,-1,25
 102 648 102 648 103 680 c 1,26,27
 115.756521739 701.260869565 115.756521739 701.260869565 147.548204159 701.260869565 c 0,28,29
 158.47826087 701.260869565 158.47826087 701.260869565 167 697 c 1,30,31
 169.666666667 669 169.666666667 669 169.666666667 626.166666667 c 128,-1,32
 169.666666667 583.333333333 169.666666667 583.333333333 163.833333333 494.666666667 c 128,-1,33
 158 406 158 406 158 372 c 1,34,35
 279.469387755 391.612244898 279.469387755 391.612244898 382.428571429 391.612244898 c 128,-1,36
 485.387755102 391.612244898 485.387755102 391.612244898 564 385 c 1,37,38
 566.769230769 421.923076923 566.769230769 421.923076923 566.769230769 494 c 128,-1,39
 566.769230769 566.076923077 566.769230769 566.076923077 563 684 c 1,0,1
EndSplineSet
EndChar

StartChar: I
Encoding: 73 73 35
Width: 244
Flags: HMW
VStem: 83 80
LayerCount: 2
Fore
SplineSet
163 704 m 1,0,1
 153 252 153 252 152 -2 c 1,2,3
 136.780487805 -18.487804878 136.780487805 -18.487804878 125.256097561 -18.487804878 c 0,4,5
 113.731707317 -18.487804878 113.731707317 -18.487804878 105.5 -13 c 0,6,7
 83 2 83 2 83 43 c 0,8,9
 85 524 85 524 90.211362165 605.828954099 c 0,10,11
 95.42272433 687.657908198 95.42272433 687.657908198 105.202338886 700.827715892 c 0,12,13
 114.981953442 713.997523586 114.981953442 713.997523586 129.14047554 713.997523586 c 0,14,15
 143.298997639 713.997523586 143.298997639 713.997523586 163 704 c 1,0,1
EndSplineSet
EndChar

StartChar: J
Encoding: 74 74 36
Width: 477
Flags: HMW
HStem: -3 44<168.5 276.5 168.5 289> -3 124<44 289>
VStem: 316 67<624 635> 336 69<165 296.5>
LayerCount: 2
Fore
SplineSet
383 700 m 1,0,1
 383 625 383 625 394 468 c 128,-1,2
 405 311 405 311 405 232 c 0,3,4
 405 115 405 115 363 56 c 128,-1,5
 321 -3 321 -3 211 -3 c 0,6,7
 145 -3 145 -3 88 25 c 128,-1,8
 31 53 31 53 9 100 c 1,9,10
 34 121 34 121 52.5 121 c 0,11,12
 71 121 71 121 86.5 108.5 c 128,-1,13
 102 96 102 96 114.5 81 c 128,-1,14
 127 66 127 66 158.5 53.5 c 128,-1,15
 190 41 190 41 241.5 41 c 0,16,17
 293 41 293 41 314.5 86 c 128,-1,18
 336 131 336 131 336 216 c 0,19,20
 336 301 336 301 326 427 c 128,-1,21
 316 553 316 553 316 612.419313678 c 0,22,23
 316 671.838627355 316 671.838627355 325.971584308 688.031116539 c 0,24,25
 335.943168616 704.223605723 335.943168616 704.223605723 352.331679396 704.223605723 c 0,26,27
 368.720190176 704.223605723 368.720190176 704.223605723 383 700 c 1,0,1
EndSplineSet
EndChar

StartChar: K
Encoding: 75 75 37
Width: 644
Flags: HMW
HStem: -16 21G<544.5 607.5> 696 20G<535.5 579>
VStem: 88 70
LayerCount: 2
Fore
SplineSet
158 706 m 1,0,-1
 161 471 l 2,1,2
 161 421 161 421 158 374 c 1,3,4
 246 409 246 409 314.5 457.5 c 128,-1,5
 383 506 383 506 420 549.5 c 128,-1,6
 457 593 457 593 484.5 631.5 c 128,-1,7
 512 670 512 670 532.5 693 c 128,-1,8
 553 716 553 716 571 716 c 128,-1,9
 589 716 589 716 606 703 c 1,10,11
 565 600 565 600 490.5 525.5 c 128,-1,12
 416 451 416 451 302 374 c 1,13,14
 355 347 355 347 402.5 297.5 c 128,-1,15
 450 248 450 248 481 200.5 c 0,16,17
 568.24742268 66.8144329897 568.24742268 66.8144329897 644 10 c 1,18,19
 627 -16 627 -16 594.5 -16 c 128,-1,20
 562 -16 562 -16 516 35.5 c 128,-1,21
 470 87 470 87 431 150 c 128,-1,22
 392 213 392 213 342 272.5 c 128,-1,23
 292 332 292 332 250 344 c 1,24,25
 242 341 242 341 209.5 325.5 c 128,-1,26
 177 310 177 310 158 304 c 1,27,28
 158 135 158 135 153 20 c 1,29,30
 135 2 135 2 88 2 c 1,31,32
 85.7142857143 31.7142857143 85.7142857143 31.7142857143 85.7142857143 139.469387755 c 2,33,-1
 90 686 l 1,34,35
 102.210526316 708.131578947 102.210526316 708.131578947 135.387811634 708.131578947 c 0,36,37
 145.684210526 708.131578947 145.684210526 708.131578947 158 706 c 1,0,-1
EndSplineSet
EndChar

StartChar: L
Encoding: 76 76 38
Width: 535
Flags: HMW
VStem: 90 69<568.5 701>
LayerCount: 2
Fore
SplineSet
159 681 m 2,0,-1
 154 238 l 1,1,2
 154 135 154 135 160 43 c 1,3,4
 220 39 220 39 269 39 c 2,5,-1
 479 43 l 2,6,7
 528 43 528 43 528 15 c 0,8,9
 528 -17.6296296296 528 -17.6296296296 317.724965706 -17.6296296296 c 0,10,11
 267 -17.6296296296 267 -17.6296296296 187 -12.8148148148 c 128,-1,12
 107 -8 107 -8 90 3 c 1,13,14
 85 109.25 85 109.25 85 349 c 1,15,-1
 90 701 l 1,16,17
 116.053254438 720.923076923 116.053254438 720.923076923 132.210059172 720.923076923 c 0,18,19
 159 720.923076923 159 720.923076923 159 681 c 2,0,-1
EndSplineSet
EndChar

StartChar: M
Encoding: 77 77 39
Width: 861
Flags: HMW
HStem: 293 68<396.5 455.5 396.5 472.5> 714 20G<695.5 750.5>
VStem: 86 67 707 62
LayerCount: 2
Fore
SplineSet
93.3928571429 398.446428571 m 1,0,1
 93.3928571429 559.826530612 93.3928571429 559.826530612 76 694 c 1,2,3
 76 715 76 715 105 715 c 128,-1,4
 134 715 134 715 182 659.5 c 128,-1,5
 230 604 230 604 274 538 c 128,-1,6
 318 472 318 472 362.5 416.5 c 128,-1,7
 407 361 407 361 426 361 c 128,-1,8
 445 361 445 361 487.5 419.5 c 128,-1,9
 530 478 530 478 571.5 547.5 c 128,-1,10
 613 617 613 617 661.5 675.5 c 128,-1,11
 710 734 710 734 739.5 734 c 128,-1,12
 769 734 769 734 769 718 c 1,13,14
 777.5 594.75 777.5 594.75 777.5 497.75 c 128,-1,15
 777.5 400.75 777.5 400.75 776.75 340.375 c 128,-1,16
 776 280 776 280 775.5 252.5 c 128,-1,17
 775 225 775 225 772 127.5 c 128,-1,18
 769 30 769 30 769 13 c 1,19,20
 753.6 -8 753.6 -8 728.333333333 -8 c 0,21,22
 717 -8 717 -8 707 -2 c 1,23,24
 700.631578947 120.736842105 700.631578947 120.736842105 700.631578947 288.105263158 c 128,-1,25
 700.631578947 455.473684211 700.631578947 455.473684211 704 634 c 1,26,27
 684 618 684 618 647.5 559.5 c 128,-1,28
 611 501 611 501 577 443.5 c 128,-1,29
 543 386 543 386 500 339.5 c 128,-1,30
 457 293 457 293 420 293 c 128,-1,31
 383 293 383 293 335.5 347 c 128,-1,32
 288 401 288 401 230.5 493.5 c 128,-1,33
 173 586 173 586 155 609 c 1,34,35
 159.75 524.6875 159.75 524.6875 159.75 434.09375 c 128,-1,36
 159.75 343.5 159.75 343.5 159.375 308.25 c 0,37,38
 157.666666667 147.666666667 157.666666667 147.666666667 153 17 c 1,39,40
 136.745819398 -4.13043478261 136.745819398 -4.13043478261 103.285444234 -4.13043478261 c 0,41,42
 93.8260869565 -4.13043478261 93.8260869565 -4.13043478261 86 -1 c 1,43,44
 93.3928571429 398.446428571 l 1,0,1
EndSplineSet
EndChar

StartChar: N
Encoding: 78 78 40
Width: 781
Flags: HMW
HStem: -20 21G<88 102.5>
VStem: 88 68 620 71
LayerCount: 2
Fore
SplineSet
620 78 m 1,0,-1
 629 698 l 1,1,2
 645.48 714.48 645.48 714.48 663.2 714.48 c 128,-1,3
 680.92 714.48 680.92 714.48 691 708 c 1,4,5
 698.111111111 574.666666667 698.111111111 574.666666667 698.111111111 488.740740741 c 1,6,-1
 689.8 25.72 l 2,7,8
 689.8 5.6 689.8 5.6 690 -12 c 1,9,10
 656.410714286 -34.3928571429 656.410714286 -34.3928571429 633.714285714 -34.3928571429 c 1,11,-1
 621.5 -31.5 l 1,12,13
 612 -27 612 -27 606.5 -24.5 c 128,-1,14
 601 -22 601 -22 592 -10.5 c 128,-1,15
 583 1 583 1 580 6 c 128,-1,16
 577 11 577 11 566.5 28 c 128,-1,17
 556 45 556 45 552 51.5 c 128,-1,18
 548 58 548 58 495.5 142.5 c 128,-1,19
 443 227 443 227 429 248 c 128,-1,20
 415 269 415 269 369.5 337 c 128,-1,21
 324 405 324 405 298.5 437.5 c 0,22,23
 221.011922504 536.259314456 221.011922504 536.259314456 156 596 c 1,24,25
 160.761904762 465.047619048 160.761904762 465.047619048 160.761904762 316.119047619 c 128,-1,26
 160.761904762 167.19047619 160.761904762 167.19047619 155 -2 c 1,27,28
 143 -20 143 -20 88 -20 c 1,29,30
 88 545 88 545 84 676 c 1,31,32
 103.439814815 694.296296296 103.439814815 694.296296296 121.127314815 694.296296296 c 128,-1,33
 138.814814815 694.296296296 138.814814815 694.296296296 156.407407407 683.648148148 c 0,34,35
 181.6 668.4 181.6 668.4 214 636 c 0,36,37
 320 530 320 530 414.5 395 c 128,-1,38
 509 260 509 260 620 78 c 1,0,-1
EndSplineSet
EndChar

StartChar: O
Encoding: 79 79 41
Width: 815
Flags: HMW
HStem: -20 53<302.5 474.5> 629 59<323.5 478>
VStem: 49 66<230 424 230 442.5> 696 71<251 428.5>
LayerCount: 2
Fore
SplineSet
735.5 500.5 m 128,-1,1
 767 436 767 436 767 350 c 128,-1,2
 767 264 767 264 732 189 c 128,-1,3
 697 114 697 114 641 70 c 0,4,5
 526.454545455 -20 526.454545455 -20 386.727272727 -20 c 128,-1,6
 247 -20 247 -20 148 70.5 c 128,-1,7
 49 161 49 161 49 318 c 0,8,9
 49 408 49 408 78.5 480 c 128,-1,10
 108 552 108 552 158.5 596.5 c 0,11,12
 262.337078652 688 262.337078652 688 404 688 c 0,13,14
 544.1 688 544.1 688 652 605 c 0,15,0
 704 565 704 565 735.5 500.5 c 128,-1,1
115 316 m 0,16,17
 115 187 115 187 188.5 110 c 128,-1,18
 262 33 262 33 384 33 c 0,19,20
 525 33 525 33 610.5 119.5 c 128,-1,21
 696 206 696 206 696 338.5 c 128,-1,22
 696 471 696 471 610 550 c 128,-1,23
 524 629 524 629 401 629 c 128,-1,24
 278 629 278 629 196.5 548.5 c 128,-1,25
 115 468 115 468 115 316 c 0,16,17
EndSplineSet
EndChar

StartChar: P
Encoding: 80 80 42
Width: 671
Flags: HMW
HStem: -16 21G<87 98.5> 203 53<296 332 296 397> 654 54<296.5 385>
VStem: 75 80 87 68 572 73<411.5 538>
LayerCount: 2
Fore
SplineSet
88 322.5 m 1,0,1
 88 477.636363636 88 477.636363636 75 597 c 1,2,3
 75 628 75 628 101 651 c 128,-1,4
 127 674 127 674 170.5 685.5 c 0,5,6
 255.608695652 708 255.608695652 708 359 708 c 0,7,8
 492 708 492 708 568.5 649.5 c 128,-1,9
 645 591 645 591 645 470 c 128,-1,10
 645 349 645 349 547 276 c 128,-1,11
 449 203 449 203 308 203 c 0,12,13
 236 203 236 203 157 233 c 1,14,15
 152.333333333 184.777777778 152.333333333 184.777777778 152.333333333 103.111111111 c 2,16,-1
 152.666666667 54.4444444444 l 2,17,18
 152.666666667 30 152.666666667 30 152 4 c 1,19,20
 146.6 -3.2 146.6 -3.2 140.8 -6.1 c 128,-1,21
 135 -9 135 -9 132.5 -10.5 c 128,-1,22
 130 -12 130 -12 125 -13 c 128,-1,23
 120 -14 120 -14 118 -14.5 c 0,24,25
 112 -16 112 -16 103.5 -16 c 2,26,-1
 87 -16 l 1,27,28
 84.7142857143 59.4285714286 84.7142857143 59.4285714286 84.7142857143 119.346938776 c 2,29,-1
 88 322.5 l 1,0,1
155 305 m 1,30,31
 228 256 228 256 330 256.5 c 128,-1,32
 432 257 432 257 502 319.5 c 128,-1,33
 572 382 572 382 572 473 c 128,-1,34
 572 564 572 564 500 609 c 128,-1,35
 428 654 428 654 327.5 654 c 128,-1,36
 227 654 227 654 150 608 c 1,37,38
 155 543 155 543 155 305 c 1,30,31
EndSplineSet
EndChar

StartChar: Q
Encoding: 81 81 43
Width: 782
Flags: HMW
HStem: 2 55<278.5 404.5 278.5 404.5> 655 56<287 440.5>
VStem: 49 71<265.5 406 265.5 409.5> 656 74<330.5 466.5>
LayerCount: 2
Fore
SplineSet
730 393 m 0,0,1
 730 190 730 190 609 84 c 1,2,3
 631 60 631 60 647 44 c 1,4,5
 654 35 654 35 678 24.5 c 128,-1,6
 702 14 702 14 711 4 c 128,-1,7
 720 -6 720 -6 720 -22 c 1,8,9
 707.789473684 -27.0526315789 707.789473684 -27.0526315789 691.078947368 -27.0526315789 c 128,-1,10
 674.368421053 -27.0526315789 674.368421053 -27.0526315789 643.184210526 -14.0263157895 c 128,-1,11
 612 -1 612 -1 593 21 c 1,12,-1
 564 52 l 1,13,14
 481 2 481 2 364 2 c 0,15,16
 219 2 219 2 134 92.5 c 128,-1,17
 49 183 49 183 49 316 c 0,18,19
 49 412 49 412 83.5 501 c 128,-1,20
 118 590 118 590 188.5 650.5 c 128,-1,21
 259 711 259 711 349 711 c 0,22,23
 495.105263158 711 495.105263158 711 608 633 c 0,24,25
 663 595 663 595 696.5 532.5 c 128,-1,26
 730 470 730 470 730 393 c 0,0,1
536 164 m 2,27,-1
 570 126 l 1,28,29
 656 209 656 209 656 360 c 128,-1,30
 656 511 656 511 573.5 583 c 128,-1,31
 491 655 491 655 353 655 c 0,32,33
 290 655 290 655 235 604.5 c 128,-1,34
 180 554 180 554 150 480.5 c 128,-1,35
 120 407 120 407 120 343 c 128,-1,36
 120 279 120 279 133.5 232 c 128,-1,37
 147 185 147 185 175 144.5 c 128,-1,38
 203 104 203 104 254 80.5 c 128,-1,39
 305 57 305 57 382.5 57 c 128,-1,40
 460 57 460 57 524 92 c 1,41,42
 437 179 437 179 423 195 c 128,-1,43
 409 211 409 211 402 232 c 1,44,45
 412.909090909 239.757575758 412.909090909 239.757575758 426.404040404 239.757575758 c 0,46,47
 468.575757576 239.757575758 468.575757576 239.757575758 536 164 c 2,27,-1
EndSplineSet
EndChar

StartChar: R
Encoding: 82 82 44
Width: 693
Flags: HMW
HStem: -24 52<552.5 637.5> 660 55<271 365.5>
VStem: 91 62 561 75<412.5 550.5>
LayerCount: 2
Fore
SplineSet
150 192.25 m 2,0,-1
 153 41 l 2,1,2
 153 10 153 10 139.162790698 -0.988372093023 c 128,-1,3
 125.325581395 -11.976744186 125.325581395 -11.976744186 113.058139535 -11.976744186 c 128,-1,4
 100.790697674 -11.976744186 100.790697674 -11.976744186 90 -9 c 1,5,6
 77 98 77 98 77 200 c 128,-1,7
 77 302 77 302 83.5 431 c 128,-1,8
 90 560 90 560 91 635 c 1,9,10
 91 715 91 715 305 715 c 0,11,12
 417.645833333 715 417.645833333 715 518.5 668 c 0,13,14
 570 644 570 644 603 600.5 c 128,-1,15
 636 557 636 557 636 503.5 c 128,-1,16
 636 450 636 450 612 407 c 128,-1,17
 588 364 588 364 551 335.5 c 128,-1,18
 514 307 514 307 466.5 285.5 c 0,19,20
 387.09541698 249.558978212 387.09541698 249.558978212 290 238 c 1,21,22
 337.649122807 210.771929825 337.649122807 210.771929825 446 107.5 c 0,23,24
 478 77 478 77 527 52.5 c 128,-1,25
 576 28 576 28 628 28 c 0,26,27
 633 28 633 28 649 30.5 c 128,-1,28
 665 33 665 33 676 34 c 128,-1,29
 687 35 687 35 696.5 29.5 c 128,-1,30
 706 24 706 24 706 10 c 0,31,32
 706 -24 706 -24 621 -24 c 0,33,34
 522.230769231 -24 522.230769231 -24 423.5 51.5 c 0,35,36
 381 84 381 84 340 118.5 c 0,37,38
 239.065081352 203.433041302 239.065081352 203.433041302 151 225 c 1,39,40
 150 215.5 150 215.5 150 192.25 c 2,0,-1
561 491 m 0,41,42
 561 575 561 575 485.5 617.5 c 128,-1,43
 410 660 410 660 294 660 c 0,44,45
 221 660 221 660 158 644 c 1,46,47
 158 565 158 565 153 468.333333333 c 128,-1,48
 148 371.666666667 148 371.666666667 148 335.666666667 c 128,-1,49
 148 299.666666667 148 299.666666667 149 283 c 1,50,51
 296.651006711 294.073825503 296.651006711 294.073825503 378 318 c 0,52,53
 464.566292135 343.460674157 464.566292135 343.460674157 507.5 380 c 0,54,55
 561 425.531914894 561 425.531914894 561 491 c 0,41,42
EndSplineSet
EndChar

StartChar: S
Encoding: 83 83 45
Width: 627
Flags: HMW
HStem: -31 53<289.5 359 289.5 389> -31 149 671 51<271 356>
VStem: 40 88 55 73<426 575.5 426 587> 514 70<121 269>
LayerCount: 2
Fore
SplineSet
223 710 m 128,-1,1
 268 722 268 722 312 722 c 128,-1,2
 356 722 356 722 394.5 716.5 c 128,-1,3
 433 711 433 711 473.5 698 c 128,-1,4
 514 685 514 685 540 658 c 128,-1,5
 566 631 566 631 569 594 c 0,6,7
 570 579 570 579 557.5 571.5 c 128,-1,8
 545 564 545 564 529.5 564 c 128,-1,9
 514 564 514 564 506.5 571.5 c 128,-1,10
 499 579 499 579 491.5 594.5 c 0,11,12
 454.483870968 671 454.483870968 671 326 671 c 0,13,14
 239 671 239 671 183.5 634 c 128,-1,15
 128 597 128 597 128 526 c 0,16,17
 128 486 128 486 153 457.5 c 128,-1,18
 178 429 178 429 218.5 413 c 128,-1,19
 259 397 259 397 307.5 384 c 128,-1,20
 356 371 356 371 404.5 355 c 128,-1,21
 453 339 453 339 493.5 317 c 128,-1,22
 534 295 534 295 559 255.5 c 128,-1,23
 584 216 584 216 584 161 c 0,24,25
 584 81 584 81 505.5 25 c 128,-1,26
 427 -31 427 -31 308 -31 c 0,27,28
 216 -31 216 -31 128 8 c 128,-1,29
 40 47 40 47 40 88 c 0,30,31
 40 99 40 99 53 108.5 c 128,-1,32
 66 118 66 118 78.5 118 c 128,-1,33
 91 118 91 118 102 110.5 c 128,-1,34
 113 103 113 103 127 90 c 128,-1,35
 141 77 141 77 152 70 c 0,36,37
 228 22 228 22 322 22 c 0,38,39
 388 22 388 22 451 62.5 c 128,-1,40
 514 103 514 103 514 171 c 0,41,42
 514 217 514 217 480 247.5 c 128,-1,43
 446 278 446 278 395 291.5 c 128,-1,44
 344 305 344 305 284.5 322 c 128,-1,45
 225 339 225 339 174 357 c 128,-1,46
 123 375 123 375 89 415 c 128,-1,47
 55 455 55 455 55 510.5 c 128,-1,48
 55 566 55 566 78.5 607.5 c 128,-1,49
 102 649 102 649 140 673.5 c 128,-1,0
 178 698 178 698 223 710 c 128,-1,1
EndSplineSet
EndChar

StartChar: T
Encoding: 84 84 46
Width: 645
Flags: HMW
HStem: -18 21G<299 310>
VStem: 299 72
LayerCount: 2
Fore
SplineSet
-13 667 m 0,0,1
 -13 714.513888889 -13 714.513888889 330.695601852 714.513888889 c 0,2,3
 409.930555556 714.513888889 409.930555556 714.513888889 533.965277778 708.256944444 c 128,-1,4
 658 702 658 702 662 690 c 1,5,6
 660 645 660 645 579 645 c 0,7,8
 556 645 556 645 501.982142857 649.910714286 c 128,-1,9
 447.964285714 654.821428571 447.964285714 654.821428571 409.482142857 654.821428571 c 128,-1,10
 371 654.821428571 371 654.821428571 371 638 c 0,11,12
 371 423 371 423 361 -3 c 1,13,14
 340 -18 340 -18 299 -18 c 1,15,16
 297.8 25.6 297.8 25.6 297.8 87.44 c 2,17,-1
 302.882352941 519.287197232 l 2,18,19
 302.882352941 596.823529412 302.882352941 596.823529412 301 650 c 1,20,21
 279.75 652.083333333 279.75 652.083333333 246.229166667 652.083333333 c 128,-1,22
 212.708333333 652.083333333 212.708333333 652.083333333 141.854166667 646.541666667 c 128,-1,23
 71 641 71 641 42 641 c 0,24,25
 -13 641 -13 641 -13 667 c 0,0,1
EndSplineSet
EndChar

StartChar: U
Encoding: 85 85 47
Width: 686
Flags: HMW
HStem: -24 58<254 401.5 254 425.5>
VStem: 69 65<328 443.5 328 447.5> 564 72<319.5 448>
LayerCount: 2
Fore
SplineSet
99 692 m 1,0,1
 131.16 713.44 131.16 713.44 155 704.5 c 0,2,3
 167 700 167 700 164 682 c 0,4,5
 134 484 134 484 134 409.5 c 128,-1,6
 134 335 134 335 142.5 280.5 c 128,-1,7
 151 226 151 226 171.5 166.5 c 128,-1,8
 192 107 192 107 236 70.5 c 128,-1,9
 280 34 280 34 343 34 c 0,10,11
 431 34 431 34 497.5 141.5 c 128,-1,12
 564 249 564 249 564 400.5 c 128,-1,13
 564 552 564 552 493 697 c 1,14,15
 514.428571429 714.857142857 514.428571429 714.857142857 530.5 714.857142857 c 128,-1,16
 546.571428571 714.857142857 546.571428571 714.857142857 556 712 c 1,17,18
 636 597 636 597 636 413 c 0,19,20
 636 261.613333333 636 261.613333333 557.5 124.5 c 0,21,22
 520 59 520 59 458 17.5 c 128,-1,23
 396 -24 396 -24 328.5 -24 c 128,-1,24
 261 -24 261 -24 214.5 4.5 c 128,-1,25
 168 33 168 33 141.5 76.5 c 128,-1,26
 115 120 115 120 98 178.5 c 0,27,28
 69 278.294117647 69 278.294117647 69 397 c 0,29,30
 69 573 69 573 99 692 c 1,0,1
EndSplineSet
EndChar

StartChar: V
Encoding: 86 86 48
Width: 672
Flags: HMW
HStem: -24 21G<282 421.5> 695 20G<578.5 647>
LayerCount: 2
Fore
SplineSet
12 687 m 1,0,1
 20.5 711.083333333 20.5 711.083333333 53.625 711.083333333 c 0,2,3
 63.8333333333 711.083333333 63.8333333333 711.083333333 72 707 c 1,4,5
 106 632 106 632 150 496 c 128,-1,6
 194 360 194 360 239.5 242 c 128,-1,7
 285 124 285 124 341 43 c 1,8,9
 395.656144307 59.396843292 395.656144307 59.396843292 459 294.5 c 0,10,11
 485 391 485 391 512 487 c 128,-1,12
 539 583 539 583 573 649 c 128,-1,13
 607 715 607 715 643 715 c 0,14,15
 657 715 657 715 673 707 c 1,16,17
 647 682 647 682 618 596 c 128,-1,18
 589 510 589 510 561 408.5 c 128,-1,19
 533 307 533 307 501.5 207.5 c 128,-1,20
 470 108 470 108 426.5 42 c 128,-1,21
 383 -24 383 -24 334 -24 c 0,22,23
 266.062240664 -24 266.062240664 -24 177.5 205.5 c 0,24,25
 131 326 131 326 107 395.5 c 128,-1,26
 83 465 83 465 51.5 564.5 c 128,-1,27
 20 664 20 664 12 687 c 1,0,1
EndSplineSet
EndChar

StartChar: W
Encoding: 87 87 49
Width: 1047
Flags: HMW
HStem: -22 49 -10 37<725 813.5 640.5 821.5>
VStem: 67 77<221 351> 896 90<394 464.5 327 516>
LayerCount: 2
Fore
SplineSet
186 711 m 1,0,1
 183 685 183 685 173.5 621 c 128,-1,2
 164 557 164 557 159 516 c 0,3,4
 144 393 144 393 144 313 c 128,-1,5
 144 233 144 233 149.5 188.5 c 128,-1,6
 155 144 155 144 167 104.5 c 128,-1,7
 179 65 179 65 202.5 42 c 128,-1,8
 226 19 226 19 258 19 c 0,9,10
 304 19 304 19 339.5 69 c 128,-1,11
 375 119 375 119 395 197.5 c 128,-1,12
 415 276 415 276 429.5 356 c 128,-1,13
 444 436 444 436 457.5 512 c 128,-1,14
 471 588 471 588 483 616 c 1,15,16
 510.142857143 633.857142857 510.142857143 633.857142857 524.142857143 633.857142857 c 128,-1,17
 538.142857143 633.857142857 538.142857143 633.857142857 545 631 c 1,18,19
 551.436031332 583.373368146 551.436031332 583.373368146 557.718015666 456.686684073 c 128,-1,20
 564 330 564 330 575.5 260 c 128,-1,21
 587 190 587 190 605.5 141 c 128,-1,22
 624 92 624 92 661 59.5 c 128,-1,23
 698 27 698 27 746.5 27 c 128,-1,24
 795 27 795 27 826 72 c 128,-1,25
 857 117 857 117 871 192 c 0,26,27
 896 325.928571429 896 325.928571429 896 468.464285714 c 128,-1,28
 896 611 896 611 872 691 c 1,29,30
 897 709 897 709 918 709 c 128,-1,31
 939 709 939 709 954 676 c 128,-1,32
 969 643 969 643 975 592.5 c 0,33,34
 986 499.916666667 986 499.916666667 986 424.958333333 c 128,-1,35
 986 350 986 350 972 274 c 128,-1,36
 958 198 958 198 928.5 132.5 c 128,-1,37
 899 67 899 67 846.5 28.5 c 128,-1,38
 794 -10 794 -10 725 -10 c 1,39,40
 679 -9 679 -9 642.5 12.5 c 128,-1,41
 606 34 606 34 584 63.5 c 128,-1,42
 562 93 562 93 544 141 c 0,43,44
 518.206896552 209.781609195 518.206896552 209.781609195 500 317 c 1,45,46
 457.602234471 170.086812469 457.602234471 170.086812469 428.78192748 113.904618432 c 0,47,48
 357.97047256 -21.2317245987 357.97047256 -21.2317245987 234 -22 c 0,49,50
 153.735849057 -22 153.735849057 -22 114 36.5 c 0,51,52
 78.6815464328 88.4966121961 78.6815464328 88.4966121961 70.5 182 c 0,53,54
 67 222 67 222 67 273 c 0,55,56
 67 440 67 440 121 699 c 1,57,58
 146.9 713.7 146.9 713.7 162.25 713.7 c 128,-1,59
 177.6 713.7 177.6 713.7 186 711 c 1,0,1
EndSplineSet
EndChar

StartChar: X
Encoding: 88 88 50
Width: 643
Flags: HMW
HStem: -26 21G<14.5 88.5> -16 21G<567.5 614.5> 697 20G<503 552>
LayerCount: 2
Fore
SplineSet
576 713 m 1,0,1
 487 538 487 538 371 364 c 1,2,3
 431.762075134 275.320214669 431.762075134 275.320214669 525.381037567 162.660107335 c 128,-1,4
 619 50 619 50 651 10 c 1,5,6
 650 -1 650 -1 635 -8.5 c 128,-1,7
 620 -16 620 -16 604 -16 c 0,8,9
 571 -16 571 -16 520.5 41.5 c 128,-1,10
 470 99 470 99 407 192 c 128,-1,11
 344 285 344 285 331 302 c 1,12,13
 314 282 314 282 286 237.5 c 128,-1,14
 258 193 258 193 230.5 151 c 128,-1,15
 203 109 203 109 170 67 c 128,-1,16
 137 25 137 25 97 -0.5 c 128,-1,17
 57 -26 57 -26 17 -26 c 0,18,19
 6 -26 6 -26 0 -25 c 1,20,21
 67 53 67 53 105.5 99 c 0,22,23
 214.755068938 229.538523925 214.755068938 229.538523925 292 352 c 1,24,25
 241 418 241 418 170 497 c 128,-1,26
 99 576 99 576 65.5 617.5 c 128,-1,27
 32 659 32 659 32 674.5 c 128,-1,28
 32 690 32 690 47.5 697 c 128,-1,29
 63 704 63 704 79 704 c 0,30,31
 104 704 104 704 142 656.5 c 128,-1,32
 180 609 180 609 234 531.5 c 128,-1,33
 288 454 288 454 329 412 c 1,34,35
 355 454 355 454 387.5 518 c 128,-1,36
 420 582 420 582 439.5 620 c 128,-1,37
 459 658 459 658 488 687.5 c 128,-1,38
 517 717 517 717 548 717 c 0,39,40
 556 717 556 717 576 713 c 1,0,1
EndSplineSet
EndChar

StartChar: Y
Encoding: 89 89 51
Width: 597
Flags: HMW
HStem: -20 21G<218 270.5> 692 20G<48.5 85.5>
LayerCount: 2
Fore
SplineSet
336 320 m 1,0,1
 346 346 346 346 367.5 402 c 128,-1,2
 389 458 389 458 401 487.5 c 128,-1,3
 413 517 413 517 432.5 561 c 128,-1,4
 452 605 452 605 465 624.5 c 128,-1,5
 478 644 478 644 496 666 c 0,6,7
 527.090909091 704 527.090909091 704 574 704 c 0,8,9
 583 704 583 704 600 699 c 1,10,11
 562 677 562 677 506 559 c 128,-1,12
 450 441 450 441 403.5 314 c 128,-1,13
 357 187 357 187 305.5 83.5 c 128,-1,14
 254 -20 254 -20 222 -20 c 0,15,16
 209 -20 209 -20 194 -14 c 1,17,18
 213 27 213 27 247.5 116.5 c 128,-1,19
 282 206 282 206 307 255 c 1,20,21
 168 404 168 404 93.5 516 c 128,-1,22
 19 628 19 628 19 687 c 0,23,24
 19 697 19 697 31 704.5 c 128,-1,25
 43 712 43 712 58 712 c 128,-1,26
 73 712 73 712 84 695 c 128,-1,27
 95 678 95 678 110.5 642.5 c 128,-1,28
 126 607 126 607 148.5 562.5 c 128,-1,29
 171 518 171 518 220 452 c 128,-1,30
 269 386 269 386 336 320 c 1,0,1
EndSplineSet
EndChar

StartChar: Z
Encoding: 90 90 52
Width: 644
Flags: HMW
HStem: -23 21G<141.5 215> -12 21G<476.5 559.5> 640 67
LayerCount: 2
Fore
SplineSet
113 696 m 1,0,-1
 548 707 l 2,1,2
 573 707 573 707 587.122807018 700.543859649 c 128,-1,3
 601.245614035 694.087719298 601.245614035 694.087719298 601.245614035 685.028008618 c 0,4,5
 601.245614035 679.333333333 601.245614035 679.333333333 597 672 c 0,6,7
 481.340669279 499.374133253 481.340669279 499.374133253 271 237.5 c 0,8,9
 171 113 171 113 115 39 c 1,10,11
 156.034482759 35.6206896552 156.034482759 35.6206896552 217.228299643 35.6206896552 c 1,12,-1
 516.747138398 43.1290322581 l 1,13,14
 583.161290323 43.1290322581 583.161290323 43.1290322581 626 39 c 1,15,16
 620 -12 620 -12 536 -12 c 1,17,-1
 158 -23 l 1,18,19
 24.6259032629 -23 24.6259032629 -23 24.6259032629 10.0762685363 c 0,20,21
 24.6259032629 18.8994531624 24.6259032629 18.8994531624 33 30 c 0,22,23
 106 140 106 140 269.5 336 c 128,-1,24
 433 532 433 532 511 651 c 1,25,26
 238 640 238 640 81 640 c 0,27,28
 38 640 38 640 38 664 c 0,29,30
 38 696 38 696 113 696 c 1,0,-1
EndSplineSet
EndChar

StartChar: zero
Encoding: 48 48 53
Width: 644
Flags: HMW
HStem: -22 51<203 348.5 196.5 368> 639 54<221.5 349>
VStem: 54 68<328 397.5 328 409> 525 70<276.5 416>
LayerCount: 2
Fore
SplineSet
131 612 m 0,0,1
 159 648 159 648 205.5 670.5 c 128,-1,2
 252 693 252 693 312 693 c 0,3,4
 430 693 430 693 512.5 589.5 c 128,-1,5
 595 486 595 486 595 345 c 0,6,7
 595 253 595 253 555.5 169.5 c 128,-1,8
 516 86 516 86 440 32 c 128,-1,9
 364 -22 364 -22 265.5 -22 c 128,-1,10
 167 -22 167 -22 110.5 66.5 c 128,-1,11
 54 155 54 155 54 334 c 128,-1,12
 54 513 54 513 131 612 c 0,0,1
271 29 m 0,13,14
 345 29 345 29 404.5 78.5 c 128,-1,15
 464 128 464 128 494.5 201.5 c 128,-1,16
 525 275 525 275 525 345.5 c 128,-1,17
 525 416 525 416 492.5 482.5 c 128,-1,18
 460 549 460 549 403 594 c 128,-1,19
 346 639 346 639 284 639 c 0,20,21
 240 639 240 639 206.5 609 c 128,-1,22
 173 579 173 579 155.5 531.5 c 0,23,24
 122 440.571428571 122 440.571428571 122 343 c 0,25,26
 122 287.25 122 287.25 131 227.625 c 128,-1,27
 140 168 140 168 154 129.5 c 128,-1,28
 168 91 168 91 198.5 60 c 128,-1,29
 229 29 229 29 271 29 c 0,13,14
EndSplineSet
EndChar

StartChar: one
Encoding: 49 49 54
Width: 338
Flags: HMW
HStem: 625 53<147.5 168>
VStem: 17 246<389 600.5> 173 68 186 55
LayerCount: 2
Fore
SplineSet
173 678 m 0,0,1
 263 678 263 678 263 460 c 0,2,3
 263 360 263 360 241 32 c 0,4,5
 240 22 240 22 222.986111111 13.7361111111 c 128,-1,6
 205.972222222 5.47222222222 205.972222222 5.47222222222 198.638888889 5.47222222222 c 0,7,8
 176.175925926 5.47222222222 176.175925926 5.47222222222 173 15 c 1,9,10
 172.181818182 37.6363636364 172.181818182 37.6363636364 172.181818182 89.6363636364 c 128,-1,11
 172.181818182 141.636363636 172.181818182 141.636363636 179.090909091 279.818181818 c 128,-1,12
 186 418 186 418 186 486 c 0,13,14
 186 625 186 625 153 625 c 0,15,16
 130 625 130 625 82 583 c 1,17,18
 68.8717948718 569.871794872 68.8717948718 569.871794872 43.7564102564 569.871794872 c 128,-1,19
 18.641025641 569.871794872 18.641025641 569.871794872 17 583 c 1,20,21
 17 609 17 609 75.5 643.5 c 128,-1,22
 134 678 134 678 173 678 c 0,0,1
EndSplineSet
EndChar

StartChar: two
Encoding: 50 50 55
Width: 568
Flags: HMW
HStem: -7 21G<40 66.5> 54 55<202 255.5> 626 53<252.5 302>
VStem: 377 68<450 565.5>
LayerCount: 2
Fore
SplineSet
454.5 79 m 0,0,1
 517 67 517 67 533.528227871 64.5359630479 c 128,-1,2
 550.056455743 62.0719260958 550.056455743 62.0719260958 550.056455743 49.405102929 c 0,3,4
 550.056455743 44.0515075493 550.056455743 44.0515075493 546.831021582 36.9582742801 c 0,5,6
 533.334622451 15.058115496 533.334622451 15.058115496 513 12 c 0,7,8
 508 12 508 12 387 33 c 128,-1,9
 266 54 266 54 217 54 c 128,-1,10
 168 54 168 54 136 48 c 1,11,12
 131 44 131 44 118 31.5 c 128,-1,13
 105 19 105 19 96.5 12.5 c 0,14,15
 71 -7 71 -7 44 -7 c 128,-1,16
 17 -7 17 -7 17 12 c 0,17,18
 17 44 17 44 42.5 65.5 c 128,-1,19
 68 87 68 87 107 98 c 1,20,21
 220.396275295 208.607842296 220.396275295 208.607842296 258.829021622 254.829382962 c 0,22,23
 377 396.948934764 377 396.948934764 377 535 c 0,24,25
 377 626 377 626 267 626 c 0,26,27
 202 626 202 626 136 592 c 1,28,29
 122 586 122 586 106 593 c 128,-1,30
 90 600 90 600 90 616 c 0,31,32
 90 639 90 639 160 659 c 128,-1,33
 230 679 230 679 290.5 679 c 128,-1,34
 351 679 351 679 398 641.5 c 128,-1,35
 445 604 445 604 445 531 c 0,36,37
 445 330 445 330 202 109 c 1,38,39
 298.25 109 298.25 109 454.5 79 c 0,0,1
EndSplineSet
EndChar

StartChar: three
Encoding: 51 51 56
Width: 524
Flags: HMW
HStem: -4 54<217.5 276.5 217.5 283.5> 602 61<258.5 300.5>
VStem: 382 67<502.5 559.5> 396 75<151 226.5>
LayerCount: 2
Fore
SplineSet
151.5 635 m 128,-1,1
 237 663 237 663 299.5 663 c 128,-1,2
 362 663 362 663 405.5 633 c 128,-1,3
 449 603 449 603 449 542 c 0,4,5
 449 441 449 441 315 354 c 1,6,7
 380 343 380 343 425.5 304.5 c 128,-1,8
 471 266 471 266 471 210 c 0,9,10
 471 124 471 124 393.5 60 c 128,-1,11
 316 -4 316 -4 225 -4 c 0,12,13
 178 -4 178 -4 129 18.5 c 128,-1,14
 80 41 80 41 44 79 c 0,15,16
 39.5642223069 83.4357776931 39.5642223069 83.4357776931 39.5642223069 88.0866286069 c 0,17,18
 39.5642223069 97.8385675419 39.5642223069 97.8385675419 57.7154219645 107.794959199 c 128,-1,19
 75.8666216221 117.751350857 75.8666216221 117.751350857 86.9331927628 117.751350857 c 128,-1,20
 97.9997639034 117.751350857 97.9997639034 117.751350857 105 112 c 1,21,22
 159 50 159 50 243 50 c 0,23,24
 300 50 300 50 348 87.5 c 128,-1,25
 396 125 396 125 396 192 c 0,26,27
 396 243 396 243 358.5 276.5 c 128,-1,28
 321 310 321 310 269 310 c 0,29,30
 236 310 236 310 203 292 c 0,31,32
 190 286 190 286 174.5 293 c 128,-1,33
 159 300 159 300 159 314 c 128,-1,34
 159 328 159 328 174 335 c 0,35,36
 382 436 382 436 382 535 c 0,37,38
 382 569 382 569 351 585.5 c 128,-1,39
 320 602 320 602 271 602 c 0,40,41
 187 602 187 602 121 567 c 0,42,43
 115.296296296 563.37037037 115.296296296 563.37037037 106.944444444 563.37037037 c 128,-1,44
 98.5925925926 563.37037037 98.5925925926 563.37037037 88 566.5 c 0,45,46
 66 573 66 573 66 587 c 0,47,0
 66 607 66 607 151.5 635 c 128,-1,1
EndSplineSet
EndChar

StartChar: four
Encoding: 52 52 57
Width: 544
Flags: HMW
HStem: 4 21G<358 393>
VStem: 338 65 338 175
LayerCount: 2
Fore
SplineSet
330.454545455 406.669421488 m 1,0,-1
 338 632 l 2,1,2
 338 642 338 642 355 649 c 128,-1,3
 372 656 372 656 389.5 656 c 128,-1,4
 407 656 407 656 407 648 c 0,5,6
 407 629 407 629 402.714285714 536.857142857 c 128,-1,7
 398.428571429 444.714285714 398.428571429 444.714285714 398.428571429 394.357142857 c 128,-1,8
 398.428571429 344 398.428571429 344 403 308 c 0,9,10
 404 308 404 308 421 309.5 c 128,-1,11
 438 311 438 311 451 311.5 c 128,-1,12
 464 312 464 312 479.5 311 c 0,13,14
 513 308.838709677 513 308.838709677 513 292 c 0,15,16
 513 268.321428571 513 268.321428571 486 263.5 c 0,17,18
 459.569506726 258.780269058 459.569506726 258.780269058 435.784753363 259.390134529 c 128,-1,19
 412 260 412 260 406 260 c 1,20,21
 413 108 413 108 413 89 c 128,-1,22
 413 70 413 70 413.5 57.5 c 128,-1,23
 414 45 414 45 413.5 41 c 128,-1,24
 413 37 413 37 410.5 27.5 c 128,-1,25
 408 18 408 18 403 14.5 c 0,26,27
 388 4 388 4 366.5 4 c 128,-1,28
 345 4 345 4 345 12 c 0,29,30
 345 121 345 121 337 259 c 1,31,32
 332.304632401 260.795287611 332.304632401 260.795287611 301.815058807 260.795287611 c 2,33,-1
 149.061852267 257.574556131 l 1,34,35
 25.123954781 257.574556131 25.123954781 257.574556131 25.123954781 283.967814122 c 0,36,37
 25.123954781 286.371864343 25.123954781 286.371864343 26 289 c 0,38,39
 74 431 74 431 91.7016695024 516.568013611 c 128,-1,40
 109.403339005 602.136027223 109.403339005 602.136027223 128.887844951 631.919348666 c 1,41,42
 148.71554683 660.310512362 148.71554683 660.310512362 174 661 c 0,43,44
 193 661 193 661 200 654 c 128,-1,45
 207 647 207 647 203 638 c 0,46,47
 171 571 171 571 140 451 c 128,-1,48
 109 331 109 331 102 309 c 1,49,-1
 335 307 l 1,50,51
 330.454545455 368.818181818 330.454545455 368.818181818 330.454545455 406.669421488 c 1,0,-1
EndSplineSet
EndChar

StartChar: five
Encoding: 53 53 58
Width: 578
Flags: HMW
HStem: 2 48<237 336> 324 56<238 343> 599 49
VStem: 477 61<183.5 267.5>
LayerCount: 2
Fore
SplineSet
455 599 m 2,0,-1
 228.012345679 602.888888889 l 2,1,2
 195.222222222 602.888888889 195.222222222 602.888888889 173 602 c 1,3,4
 182.615384615 558.153846154 182.615384615 558.153846154 182.615384615 500.576923077 c 128,-1,5
 182.615384615 443 182.615384615 443 158 371 c 1,6,7
 228 378 228 378 282 379 c 128,-1,8
 336 380 336 380 374 372.5 c 128,-1,9
 412 365 412 365 450.5 348.5 c 128,-1,10
 489 332 489 332 513.5 300 c 128,-1,11
 538 268 538 268 538 225 c 0,12,13
 538 137 538 137 457 69.5 c 128,-1,14
 376 2 376 2 244 2 c 0,15,16
 164 2 164 2 107.5 35 c 128,-1,17
 51 68 51 68 37 134 c 1,18,19
 38 145 38 145 54.5526315789 153.763157895 c 128,-1,20
 71.1052631579 162.526315789 71.1052631579 162.526315789 78.4210526316 162.526315789 c 0,21,22
 100.789473684 162.526315789 100.789473684 162.526315789 105 152 c 1,23,24
 116 103 116 103 165 76.5 c 128,-1,25
 214 50 214 50 277 50 c 0,26,27
 370 50 370 50 423.5 103 c 128,-1,28
 477 156 477 156 477 227 c 0,29,30
 477 324 477 324 238 324 c 0,31,32
 230.25 324.25 230.25 324.25 221.65625 324.25 c 2,33,-1
 110 319 l 2,34,35
 95 319 95 319 85.5 326 c 128,-1,36
 76 333 76 333 81.5 348 c 128,-1,37
 87 363 87 363 97.5 442.5 c 128,-1,38
 108 522 108 522 108 568 c 1,39,40
 106.096944698 613.72942065 l 1,41,42
 106.096944698 640.867701254 106.096944698 640.867701254 119.548472349 646.433850627 c 128,-1,43
 133 652 133 652 187 652 c 2,44,-1
 250 652 l 2,45,46
 336 652 336 652 452 648 c 0,47,48
 479 648 479 648 487 635.5 c 128,-1,49
 495 623 495 623 484.5 611 c 128,-1,50
 474 599 474 599 455 599 c 2,0,-1
EndSplineSet
EndChar

StartChar: six
Encoding: 54 54 59
Width: 581
Flags: HMW
HStem: -7 57<247.5 295.5 247.5 316.5> 277 65<392 451> 601 54<277.5 377.5>
VStem: 51 70<232 329.5 232 337> 491 64<173 236.5>
LayerCount: 2
Fore
SplineSet
148 411 m 128,-1,1
 121 332 121 332 121 261.5 c 128,-1,2
 121 191 121 191 139 143 c 1,3,4
 194 211 194 211 284 276.5 c 128,-1,5
 374 342 374 342 444 342 c 0,6,7
 486 342 486 342 520.5 306 c 128,-1,8
 555 270 555 270 555 215 c 128,-1,9
 555 160 555 160 505 106.5 c 128,-1,10
 455 53 455 53 386 23 c 128,-1,11
 317 -7 317 -7 254 -7 c 128,-1,12
 191 -7 191 -7 143 31.5 c 0,13,14
 51 105.291666667 51 105.291666667 51 243 c 0,15,16
 51 338 51 338 91 432.5 c 128,-1,17
 131 527 131 527 205 591 c 128,-1,18
 279 655 279 655 366 655 c 0,19,20
 399.061718449 655 399.061718449 655 399.061718449 631.777189732 c 0,21,22
 399.061718449 614.712645522 399.061718449 614.712645522 374.517908429 605.599213935 c 0,23,24
 361.415654223 601.167243302 361.415654223 601.167243302 346 601 c 0,25,26
 281 601 281 601 228 545.5 c 128,-1,0
 175 490 175 490 148 411 c 128,-1,1
265 50 m 0,27,28
 298 50 298 50 350 72.5 c 128,-1,29
 402 95 402 95 446.5 135.5 c 128,-1,30
 491 176 491 176 491 217 c 0,31,32
 491 245 491 245 475.5 261 c 128,-1,33
 460 277 460 277 436 277 c 0,34,35
 378 277 378 277 294.5 209 c 128,-1,36
 211 141 211 141 173 90 c 1,37,38
 215 50 215 50 265 50 c 0,27,28
EndSplineSet
EndChar

StartChar: seven
Encoding: 55 55 60
Width: 486
Flags: HMW
HStem: 587 51<71 105.5> 603 54<272 303.5>
VStem: 388 68<533 571.5>
LayerCount: 2
Fore
SplineSet
29 602 m 0,0,1
 29 620 29 620 45.5 629 c 128,-1,2
 62 638 62 638 88.5 638 c 128,-1,3
 115 638 115 638 192.5 647.5 c 128,-1,4
 270 657 270 657 318.5 657 c 128,-1,5
 367 657 367 657 411.5 631.5 c 128,-1,6
 456 606 456 606 456 552 c 0,7,8
 456 516 456 516 415 434 c 1,9,-1
 219 26 l 2,10,11
 210.14669853 7.40806691253 210.14669853 7.40806691253 172.639543566 7.40806691253 c 0,12,13
 149.922791402 7.40806691253 149.922791402 7.40806691253 149.922791402 22.4719146768 c 0,14,15
 149.922791402 27.6836244565 149.922791402 27.6836244565 153 34 c 0,16,17
 221 187 221 187 321 375 c 0,18,19
 322 378 322 378 332 396 c 128,-1,20
 342 414 342 414 345.5 421 c 2,21,-1
 357.5 445 l 2,22,23
 388 506 388 506 388 545 c 0,24,25
 388 603 388 603 280 603 c 0,26,27
 245 603 245 603 175.5 595 c 128,-1,28
 106 587 106 587 67.5 587 c 128,-1,29
 29 587 29 587 29 602 c 0,0,1
EndSplineSet
EndChar

StartChar: eight
Encoding: 56 56 61
Width: 600
Flags: HMW
HStem: 4 46<251.5 335.5 251.5 351.5> 633 52<269.5 335.5>
VStem: 56 69<482 529> 56 81 465 70<84.5 109 80.5 129> 489 67<517 578.5>
LayerCount: 2
Fore
SplineSet
336 685 m 0,0,1
 371 685 371 685 420 672 c 128,-1,2
 469 659 469 659 512.5 629.5 c 128,-1,3
 556 600 556 600 556 565.5 c 128,-1,4
 556 531 556 531 534.5 496 c 128,-1,5
 513 461 513 461 472 426 c 0,6,7
 406.902748414 370.429175476 406.902748414 370.429175476 309 309 c 1,8,9
 315 305 315 305 337 292.5 c 128,-1,10
 359 280 359 280 369.5 273.5 c 128,-1,11
 380 267 380 267 402 253.5 c 128,-1,12
 424 240 424 240 436.5 231 c 128,-1,13
 449 222 449 222 466.5 208.5 c 128,-1,14
 484 195 484 195 494.5 183.5 c 128,-1,15
 505 172 505 172 515.5 159 c 0,16,17
 535 134.857142857 535 134.857142857 535 109 c 0,18,19
 535 65 535 65 462 34.5 c 128,-1,20
 389 4 389 4 284 4 c 0,21,22
 63 4 63 4 63 116 c 0,23,24
 63 160 63 160 99.5 202 c 128,-1,25
 136 244 136 244 209 295 c 1,26,27
 56 383 56 383 56 469.5 c 128,-1,28
 56 556 56 556 144.5 620.5 c 128,-1,29
 233 685 233 685 336 685 c 0,0,1
434 153 m 0,30,31
 381.826086957 198.652173913 381.826086957 198.652173913 284 253 c 0,32,33
 257 268 257 268 251 272 c 1,34,35
 202 240 202 240 169.5 199 c 128,-1,36
 137 158 137 158 137 124 c 128,-1,37
 137 90 137 90 181 70 c 128,-1,38
 225 50 225 50 292.5 50 c 128,-1,39
 360 50 360 50 412.5 64 c 128,-1,40
 465 78 465 78 465 101.9375 c 128,-1,41
 465 125.875 465 125.875 434 153 c 0,30,31
125 482 m 1,42,43
 127.025 423.275 127.025 423.275 172.5 388.5 c 0,44,45
 207.144827586 362.006896552 207.144827586 362.006896552 264 332 c 1,46,47
 392.99900794 419.577308142 392.99900794 419.577308142 431.057613169 455.161865569 c 0,48,49
 489 509.337634209 489 509.337634209 489 553 c 0,50,51
 489 587 489 587 424 610 c 128,-1,52
 359 633 359 633 314 633 c 0,53,54
 234 633 234 633 179.5 594 c 128,-1,55
 125 555 125 555 125 482 c 1,42,43
EndSplineSet
EndChar

StartChar: nine
Encoding: 57 57 62
Width: 504
Flags: HMW
HStem: 277 45<157 190.5> 615 44<187.5 217>
VStem: 31 67<382 449 382 474.5> 354 65
LayerCount: 2
Fore
SplineSet
342 15 m 1,0,1
 354.75 94.05 354.75 94.05 354.75 245.875 c 0,2,3
 354.75 265.75 354.75 265.75 354.375 307.375 c 128,-1,4
 354 349 354 349 354 372 c 1,5,6
 259 277 259 277 152 277 c 0,7,8
 96 277 96 277 63.5 311 c 128,-1,9
 31 345 31 345 31 414 c 0,10,11
 31 507 31 507 90.5 583 c 128,-1,12
 150 659 150 659 227 659 c 128,-1,13
 304 659 304 659 360.5 619 c 128,-1,14
 417 579 417 579 419 507 c 1,15,16
 424.538461538 401.769230769 424.538461538 401.769230769 424.538461538 335.307692308 c 0,17,18
 424.538461538 128.349112426 424.538461538 128.349112426 411 19 c 0,19,20
 408.571428571 -0.428571428572 408.571428571 -0.428571428572 369.06122449 -0.428571428571 c 0,21,22
 345.428571429 -0.428571428571 345.428571429 -0.428571428571 342 15 c 1,0,1
355 500 m 0,23,24
 355 533 355 533 310.045454545 574.045454545 c 128,-1,25
 265.090909091 615.090909091 265.090909091 615.090909091 221.181818182 615.090909091 c 2,26,-1
 217 615 l 2,27,28
 175 615 175 615 136.5 543.5 c 128,-1,29
 98 472 98 472 98 420.5 c 128,-1,30
 98 369 98 369 121.5 345.5 c 128,-1,31
 145 322 145 322 178 322 c 0,32,33
 236 322 236 322 295.5 384.5 c 128,-1,34
 355 447 355 447 355 500 c 0,23,24
EndSplineSet
EndChar

StartChar: at
Encoding: 64 64 63
Width: 524
Flags: HMW
HStem: -166 30<219 288.5> 30 48<229 245> 51 27 51 46<400.5 419 400.5 431> 248 42<273 299> 439 38<225.5 318.5>
VStem: 44 59<47.5 169.5> 165 57<102 141 102 155> 165 204<80 244.5> 438 54<139.5 208>
LayerCount: 2
Fore
SplineSet
98 341 m 0,0,1
 125 401 125 401 174.5 439 c 128,-1,2
 224 477 224 477 286 477 c 128,-1,3
 348 477 348 477 396.5 423.5 c 128,-1,4
 445 370 445 370 468.5 299.5 c 128,-1,5
 492 229 492 229 492 174 c 128,-1,6
 492 119 492 119 468.5 85 c 128,-1,7
 445 51 445 51 395 51 c 128,-1,8
 345 51 345 51 327 110 c 1,9,10
 290 30 290 30 220 30 c 0,11,12
 165 30 165 30 165 104.5 c 128,-1,13
 165 179 165 179 206 234.5 c 128,-1,14
 247 290 247 290 303 290 c 0,15,16
 325 290 325 290 347 271.5 c 128,-1,17
 369 253 369 253 369 211.5 c 128,-1,18
 369 170 369 170 382 133.5 c 128,-1,19
 395 97 395 97 412 97 c 0,20,21
 423 97 423 97 430.5 111 c 128,-1,22
 438 125 438 125 438 148 c 0,23,24
 438 243 438 243 387 341 c 128,-1,25
 336 439 336 439 278 439 c 0,26,27
 228 439 228 439 187 389 c 128,-1,28
 146 339 146 339 124.5 265 c 128,-1,29
 103 191 103 191 103 117.5 c 128,-1,30
 103 44 103 44 120 -10 c 128,-1,31
 137 -64 137 -64 179.5 -100 c 128,-1,32
 222 -136 222 -136 285 -136 c 0,33,34
 324 -136 324 -136 373 -121 c 0,35,36
 381.909090909 -118.772727273 381.909090909 -118.772727273 387.983471074 -118.772727273 c 0,37,38
 401 -118.772727273 401 -118.772727273 401 -129 c 0,39,40
 401 -146 401 -146 354 -156 c 128,-1,41
 307 -166 307 -166 270 -166 c 0,42,43
 166 -166 166 -166 105 -100 c 128,-1,44
 44 -34 44 -34 44 93.5 c 128,-1,45
 44 221 44 221 98 341 c 0,0,1
233 78 m 0,46,47
 253 78 253 78 271 112.5 c 128,-1,48
 289 147 289 147 303.5 189.5 c 128,-1,49
 318 232 318 232 323 239 c 1,50,51
 310 248 310 248 295 248 c 0,52,53
 265 248 265 248 243.5 203.5 c 128,-1,54
 222 159 222 159 222 118.5 c 128,-1,55
 222 78 222 78 233 78 c 0,46,47
EndSplineSet
EndChar

StartChar: dollar
Encoding: 36 36 64
Width: 539
Flags: HMW
VStem: 94 67<491 542.5> 253 48 437 68<126 193.5>
LayerCount: 2
Fore
SplineSet
252 669 m 1,0,-1
 253 778 l 2,1,2
 253 785 253 785 266 790.5 c 128,-1,3
 279 796 279 796 290.5 796 c 128,-1,4
 302 796 302 796 304 792 c 1,5,-1
 304 677 l 1,6,7
 388 677 388 677 454 608 c 1,8,9
 459 598 459 598 445 589.5 c 128,-1,10
 431 581 431 581 414.5 579.5 c 128,-1,11
 398 578 398 578 390 583 c 1,12,13
 353 622 353 622 304 634 c 1,14,15
 302 456 302 456 301 366 c 1,16,17
 306 363 306 363 337 347 c 128,-1,18
 368 331 368 331 378.5 325 c 128,-1,19
 389 319 389 319 415 302.5 c 128,-1,20
 441 286 441 286 452 274 c 128,-1,21
 463 262 463 262 478 244 c 0,22,23
 505 211.6 505 211.6 505 165 c 0,24,25
 505 139 505 139 485.5 117 c 128,-1,26
 466 95 466 95 442.5 83 c 128,-1,27
 419 71 419 71 384 61 c 0,28,29
 344.058823529 49.5882352941 344.058823529 49.5882352941 296 42 c 1,30,31
 294 -102 294 -102 293 -175 c 0,32,33
 293 -183 293 -183 280.113636364 -187.772727273 c 128,-1,34
 267.227272727 -192.545454545 267.227272727 -192.545454545 255.25 -192.545454545 c 128,-1,35
 243.272727273 -192.545454545 243.272727273 -192.545454545 241 -188 c 1,36,37
 243 -36 243 -36 245 39 c 1,38,39
 109 39 109 39 32 97 c 0,40,41
 28.1441580536 98.9279209732 28.1441580536 98.9279209732 28.1441580536 101.434863502 c 0,42,43
 28.1441580536 107.110408811 28.1441580536 107.110408811 48.8917051149 116.184399745 c 128,-1,44
 69.6392521762 125.25839068 69.6392521762 125.25839068 80.3017787446 125.25839068 c 128,-1,45
 90.964305313 125.25839068 90.964305313 125.25839068 96 122 c 0,46,47
 157 78 157 78 245 70 c 1,48,-1
 249 331 l 1,49,50
 175 369 175 369 134.5 406 c 128,-1,51
 94 443 94 443 94 501.5 c 128,-1,52
 94 560 94 560 140 605 c 128,-1,53
 186 650 186 650 252 669 c 1,0,-1
161 516 m 0,54,55
 161 456 161 456 250 397 c 1,56,57
 250 477 250 477 252 635 c 1,58,59
 219 628 219 628 190 592 c 128,-1,60
 161 556 161 556 161 516 c 0,54,55
297 70 m 1,61,62
 337.840840841 72.042042042 337.840840841 72.042042042 372.42042042 86.021021021 c 0,63,64
 437 112.127659574 437 112.127659574 437 158 c 0,65,66
 437 183 437 183 420 209 c 128,-1,67
 403 235 403 235 378 254.5 c 0,68,69
 332.468599034 290.014492754 332.468599034 290.014492754 300 305 c 1,70,71
 298 149 298 149 297 70 c 1,61,62
EndSplineSet
EndChar

StartChar: cent
Encoding: 162 162 65
Width: 394
Flags: HMW
VStem: 48 190 180 58 198 56
LayerCount: 2
Fore
SplineSet
334.035087719 410.915974146 m 0,0,1
 334.035087719 390.590909091 334.035087719 390.590909091 294.649793388 390.590909091 c 0,2,3
 270.409090909 390.590909091 270.409090909 390.590909091 254 407 c 1,4,5
 239 168 239 168 238 115 c 1,6,7
 266 131 266 131 297 156 c 0,8,9
 304.466666667 162.533333333 304.466666667 162.533333333 331.8 162.533333333 c 128,-1,10
 359.133333333 162.533333333 359.133333333 162.533333333 359.133333333 151.118390805 c 128,-1,11
 359.133333333 139.703448276 359.133333333 139.703448276 315.066666667 112.351724138 c 128,-1,12
 271 85 271 85 237 73 c 1,13,14
 239.25 -11 239.25 -11 239.25 -28.75 c 128,-1,15
 239.25 -46.5 239.25 -46.5 239 -49 c 0,16,17
 238 -60 238 -60 225.513888889 -65.5972222222 c 128,-1,18
 213.027777778 -71.1944444444 213.027777778 -71.1944444444 203.077160494 -71.1944444444 c 0,19,20
 182 -71.1944444444 182 -71.1944444444 182 -57 c 0,21,22
 180.2 -25.2 180.2 -25.2 180.2 4.3 c 128,-1,23
 180.2 33.8 180.2 33.8 181 59 c 1,24,25
 179.534653465 58.9801980198 179.534653465 58.9801980198 178.085579845 58.9801980198 c 0,26,27
 106.356435644 58.9801980198 106.356435644 58.9801980198 76.7106853542 104.132956153 c 128,-1,28
 47.0649350649 149.285714286 47.0649350649 149.285714286 47.0649350649 212.805700793 c 0,29,30
 47.0649350649 297.12987013 47.0649350649 297.12987013 87 377 c 0,31,32
 104 411 104 411 133.5 435 c 128,-1,33
 163 459 163 459 201 466 c 1,34,35
 203 490 203 490 204 532.5 c 128,-1,36
 205 575 205 575 206 589 c 0,37,38
 208.051162791 609.511627907 208.051162791 609.511627907 235.525581395 609.511627907 c 128,-1,39
 263 609.511627907 263 609.511627907 263 589 c 0,40,41
 259 505 259 505 258 463 c 1,42,43
 280 455 280 455 307.01754386 439.280701754 c 128,-1,44
 334.035087719 423.561403509 334.035087719 423.561403509 334.035087719 410.915974146 c 0,0,1
117 252 m 1,45,46
 115.2 242.4 115.2 242.4 115.2 231.7 c 128,-1,47
 115.2 221 115.2 221 116.6 203.5 c 128,-1,48
 118 186 118 186 123 162.5 c 128,-1,49
 128 139 128 139 143 121 c 128,-1,50
 158 103 158 103 180 100 c 1,51,52
 183.2 176.8 183.2 176.8 189.6 282.4 c 128,-1,53
 196 388 196 388 198 424 c 1,54,55
 168 414 168 414 144.5 358 c 128,-1,56
 121 302 121 302 117 252 c 1,45,46
EndSplineSet
EndChar

StartChar: Euro
Encoding: 8364 8364 66
Width: 767
Flags: HMW
HStem: -7 45<376 479 376 482.5> 177 57 351 58 654 50<380.5 472>
LayerCount: 2
Fore
SplineSet
455 181 m 2,0,-1
 244.125 176.5 l 2,1,2
 217.5 176.5 217.5 176.5 194 177 c 1,3,4
 223 112 223 112 285.5 75 c 128,-1,5
 348 38 348 38 436 38 c 0,6,7
 510.5 38 510.5 38 562.5 70 c 0,8,9
 616.58490566 103.283018868 616.58490566 103.283018868 633.79245283 122.641509434 c 128,-1,10
 651 142 651 142 658.5 151 c 128,-1,11
 666 160 666 160 678.5 169 c 128,-1,12
 691 178 691 178 702.5 177 c 128,-1,13
 714 176 714 176 735 170 c 1,14,15
 691 84 691 84 606 38.5 c 128,-1,16
 521 -7 521 -7 409.5 -7 c 128,-1,17
 298 -7 298 -7 220 40.5 c 128,-1,18
 142 88 142 88 116 180 c 1,19,20
 52 185 52 185 52 198 c 128,-1,21
 52 211 52 211 69.5 224.5 c 128,-1,22
 87 238 87 238 105 238 c 2,23,-1
 106 238 l 1,24,25
 104.076923077 253.384615385 104.076923077 253.384615385 104.076923077 278.576923077 c 128,-1,26
 104.076923077 303.769230769 104.076923077 303.769230769 109 345 c 1,27,28
 89 341 89 341 82.9523809524 340.238095238 c 128,-1,29
 76.9047619048 339.476190476 76.9047619048 339.476190476 70.8095238095 339.476190476 c 1,30,-1
 51 343.5 l 1,31,32
 35 350 35 350 35 367 c 0,33,34
 35 392 35 392 119 402 c 1,35,36
 149 536 149 536 237.5 620 c 128,-1,37
 326 704 326 704 463 704 c 0,38,39
 543 704 543 704 588 668.5 c 128,-1,40
 633 633 633 633 658 564 c 1,41,42
 643 550 643 550 632 544 c 128,-1,43
 621 538 621 538 610.5 543 c 128,-1,44
 600 548 600 548 596 551 c 128,-1,45
 592 554 592 554 580.5 570.5 c 128,-1,46
 569 587 569 587 566 591 c 0,47,48
 515 654 515 654 442 654 c 0,49,50
 353 654 353 654 283.5 584.5 c 128,-1,51
 214 515 214 515 186 409 c 1,52,53
 239 412 239 412 363.5 414.5 c 128,-1,54
 488 417 488 417 519 421 c 1,55,56
 553.949582243 421 553.949582243 421 553.949582243 399.976695578 c 128,-1,57
 553.949582243 378.953391155 553.949582243 378.953391155 525.22082677 365.618007664 c 0,58,59
 500.476917655 354.132319833 500.476917655 354.132319833 357.238458828 353.566159916 c 128,-1,60
 214 353 214 353 174 351 c 1,61,62
 170.235294118 320.882352941 170.235294118 320.882352941 170.235294118 292.176470588 c 128,-1,63
 170.235294118 263.470588235 170.235294118 263.470588235 175 237 c 1,64,65
 481 234 481 234 484 234 c 0,66,67
 509.405262543 234 509.405262543 234 509.405262543 221.211783266 c 0,68,69
 509.405262543 203.818231808 509.405262543 203.818231808 479.870613513 188.173866035 c 0,70,71
 466.327231915 181 466.327231915 181 455 181 c 2,0,-1
EndSplineSet
EndChar

StartChar: yen
Encoding: 165 165 67
Width: 553
Flags: HMW
HStem: -13 21G<244 257.5> 264 57<76 166> 359 54
VStem: 58 225 228 249<217 300>
LayerCount: 2
Fore
SplineSet
199 363 m 1,0,-1
 100 359 l 2,1,2
 80 359 80 359 70 360 c 128,-1,3
 60 361 60 361 50 367.5 c 128,-1,4
 40 374 40 374 40 388 c 0,5,6
 40 411 40 411 65 411 c 0,7,8
 108 411 108 411 173 413 c 1,9,10
 155 451 155 451 118.5 537.5 c 128,-1,11
 82 624 82 624 70 645 c 128,-1,12
 58 666 58 666 58 671 c 0,13,14
 58 688 58 688 79.5 693.5 c 0,15,16
 85 694.906976744 85 694.906976744 94.1511627907 694.906976744 c 128,-1,17
 103.302325581 694.906976744 103.302325581 694.906976744 110 683 c 0,18,19
 142 629 142 629 188 521 c 128,-1,20
 234 413 234 413 260 368 c 1,21,22
 282 404 282 404 357 515.5 c 128,-1,23
 432 627 432 627 462 682 c 0,24,25
 469 696 469 696 486 696 c 128,-1,26
 503 696 503 696 511.333333333 687.666666667 c 128,-1,27
 519.666666667 679.333333333 519.666666667 679.333333333 519.666666667 673 c 128,-1,28
 519.666666667 666.666666667 519.666666667 666.666666667 518 662 c 0,29,30
 486 601 486 601 364 421 c 1,31,-1
 410 423 l 1,32,33
 475 423 475 423 475 394 c 0,34,35
 475 369 475 369 429 369 c 128,-1,36
 383 369 383 369 332 372 c 1,37,38
 312 342 312 342 299 316 c 1,39,-1
 445 323 l 2,40,41
 458 323 458 323 467.5 313.5 c 128,-1,42
 477 304 477 304 477 293 c 0,43,44
 477 264 477 264 355 264 c 1,45,-1
 288 265 l 1,46,-1
 279 9 l 1,47,48
 276 -13 276 -13 251 -13 c 0,49,50
 240 -13 240 -13 230 -5 c 128,-1,51
 220 3 220 3 220 15 c 1,52,53
 228 92 228 92 228 266 c 1,54,-1
 153 264 l 1,55,56
 57 264 57 264 57 295 c 0,57,58
 57 306 57 306 64.5 313.5 c 128,-1,59
 72 321 72 321 85 321 c 2,60,-1
 193.540816327 314.714285714 l 1,61,62
 211.142857143 314.714285714 211.142857143 314.714285714 227 316 c 1,63,64
 226 318 226 318 199 363 c 1,0,-1
EndSplineSet
EndChar

StartChar: sterling
Encoding: 163 163 68
Width: 725
Flags: HMW
HStem: 5 21G<79.5 115> 18 59<527.5 572.5 527.5 580> 121 46<330.5 352.5> 367 45 620 44<353.5 434>
VStem: 35 235<361 369 333.5 386.5> 195 75 195 238
LayerCount: 2
Fore
SplineSet
401 367 m 2,0,-1
 270 369 l 1,1,2
 270 289 270 289 289 160 c 1,3,4
 324 167 324 167 339 167 c 0,5,6
 368 167 368 167 447 122 c 128,-1,7
 526 77 526 77 562.5 77 c 128,-1,8
 599 77 599 77 619 112 c 0,9,10
 629.446487128 130.043932312 629.446487128 130.043932312 669.501055124 130.043932312 c 0,11,12
 691.469116904 130.043932312 691.469116904 130.043932312 691.469116904 116.961228537 c 0,13,14
 691.469116904 112.938233807 691.469116904 112.938233807 689 108 c 0,15,16
 635 18 635 18 552 18 c 0,17,18
 511 18 511 18 432 69.5 c 128,-1,19
 353 121 353 121 314 121 c 128,-1,20
 275 121 275 121 231 92 c 128,-1,21
 187 63 187 63 148.5 34 c 128,-1,22
 110 5 110 5 83 5 c 128,-1,23
 56 5 56 5 56 21 c 0,24,25
 56 34 56 34 115.5 73.5 c 128,-1,26
 175 113 175 113 215 132 c 1,27,28
 193 275 193 275 193 366 c 1,29,30
 129 363 129 363 94 354.5 c 0,31,32
 35 340.171428571 35 340.171428571 35 370 c 0,33,34
 35 402 35 402 195 412 c 1,35,36
 203.087114338 513.08892922 203.087114338 513.08892922 251 584 c 0,37,38
 276 621 276 621 317.5 642.5 c 128,-1,39
 359 664 359 664 421.5 664 c 128,-1,40
 484 664 484 664 541 614 c 128,-1,41
 598 564 598 564 624 484 c 1,42,43
 624 464 624 464 590 456 c 0,44,45
 579.12 453.44 579.12 453.44 566.44 453.44 c 128,-1,46
 553.76 453.44 553.76 453.44 549 465 c 1,47,48
 531 525 531 525 489.5 572.5 c 128,-1,49
 448 620 448 620 397 620 c 0,50,51
 292 620 292 620 271 415 c 1,52,-1
 344.28125 416.875 l 1,53,54
 433 416.875 433 416.875 433 395 c 0,55,56
 433 384 433 384 424 375.5 c 128,-1,57
 415 367 415 367 401 367 c 2,0,-1
EndSplineSet
EndChar

StartChar: ampersand
Encoding: 38 38 69
Width: 338
Flags: HMW
HStem: 228 223<190 293> 451 46<190 201 187 213>
VStem: 47 67<243.5 268.5> 71 66<383.5 413.5> 71 146<346.5 413.5> 71 170<382.5 487.5> 135 178<137 219>
LayerCount: 2
Fore
SplineSet
139 217 m 128,-1,1
 164 200 164 200 192 200 c 128,-1,2
 220 200 220 200 245 214 c 128,-1,3
 270 228 270 228 291.5 228 c 128,-1,4
 313 228 313 228 313 215 c 0,5,6
 313 196 313 196 273 178.5 c 128,-1,7
 233 161 233 161 199 157 c 1,8,9
 200 134 200 134 207 30 c 1,10,11
 206 20 206 20 190.53125 13.4375 c 128,-1,12
 175.0625 6.875 175.0625 6.875 168.125 6.875 c 0,13,14
 146.45 6.875 146.45 6.875 144 13 c 1,15,16
 135 123 135 123 135 162 c 1,17,18
 96 172 96 172 71.5 196.5 c 128,-1,19
 47 221 47 221 47 251 c 0,20,21
 47 302 47 302 105 342 c 1,22,23
 71 359 71 359 71 395 c 0,24,25
 71 449 71 449 124 478 c 1,26,27
 114.8125 508.625 114.8125 508.625 114.8125 543.40625 c 128,-1,28
 114.8125 578.1875 114.8125 578.1875 130 617 c 0,29,30
 132 622 132 622 148 626 c 128,-1,31
 164 630 164 630 177 630 c 128,-1,32
 190 630 190 630 192 629 c 1,33,34
 177.617021277 590.829787234 177.617021277 590.829787234 177.617021277 557.989361702 c 128,-1,35
 177.617021277 525.14893617 177.617021277 525.14893617 187 497 c 1,36,37
 241 497 241 497 241 480 c 0,38,39
 241 470 241 470 229 460.5 c 128,-1,40
 217 451 217 451 203.5 451 c 128,-1,41
 190 451 190 451 181 450 c 128,-1,42
 172 449 172 449 160.5 445 c 0,43,44
 137 436.826086957 137 436.826086957 137 407 c 0,45,46
 137 391 137 391 149.5 382.5 c 128,-1,47
 162 374 162 374 177 372.5 c 0,48,49
 217 368.5 217 368.5 217 358 c 0,50,51
 217 342 217 342 200.5 334.384615385 c 128,-1,52
 184 326.769230769 184 326.769230769 175.807692308 326.769230769 c 128,-1,53
 167.615384615 326.769230769 167.615384615 326.769230769 163 328 c 1,54,55
 141 325 141 325 127.5 306 c 128,-1,56
 114 287 114 287 114 260.5 c 128,-1,0
 114 234 114 234 139 217 c 128,-1,1
EndSplineSet
EndChar

StartChar: asterisk
Encoding: 42 42 70
Width: 442
Flags: HMW
HStem: 714 20G<212.5 248.5>
LayerCount: 2
Fore
SplineSet
215 726.5 m 128,-1,1
 223 734 223 734 236.770833333 734 c 128,-1,2
 250.541666667 734 250.541666667 734 250.541666667 694.902777778 c 0,3,4
 250.541666667 679.833333333 250.541666667 679.833333333 247.770833333 652.916666667 c 128,-1,5
 245 626 245 626 245 623 c 1,6,7
 248 625 248 625 260.5 636 c 128,-1,8
 273 647 273 647 281.5 653.5 c 128,-1,9
 290 660 290 660 304 670 c 128,-1,10
 318 680 318 680 329 686.5 c 0,11,12
 355.230769231 702 355.230769231 702 372.654525323 702 c 128,-1,13
 390.078281416 702 390.078281416 702 390.078281416 694.359045826 c 128,-1,14
 390.078281416 686.718091653 390.078281416 686.718091653 371.447019739 673.192164668 c 128,-1,15
 352.815758063 659.666237683 352.815758063 659.666237683 311.446755622 632.291328509 c 128,-1,16
 270.077753181 604.916419336 270.077753181 604.916419336 259 592 c 1,17,18
 265 587 265 587 300 560 c 0,19,20
 379 499.057142857 379 499.057142857 379 489 c 0,21,22
 379 466.454552223 379 466.454552223 360.46445419 466.454552223 c 0,23,24
 346.16414564 466.454552223 346.16414564 466.454552223 310.445327822 485.375707519 c 128,-1,25
 274.726510003 504.296862815 274.726510003 504.296862815 253.483612699 533.427288753 c 0,26,27
 251.265514371 536.468971259 251.265514371 536.468971259 250 539 c 1,28,-1
 259 446 l 2,29,30
 259 439 259 439 249.454545455 434.227272727 c 128,-1,31
 239.909090909 429.454545455 239.909090909 429.454545455 229.454545455 429.602272727 c 128,-1,32
 219 429.75 219 429.75 219 435 c 0,33,34
 211 512 211 512 208 545 c 1,35,36
 201 538 201 538 180 516 c 128,-1,37
 159 494 159 494 146.5 481.5 c 128,-1,38
 134 469 134 469 116 457.5 c 128,-1,39
 98 446 98 446 87.5 446 c 128,-1,40
 77 446 77 446 70.5 454.5 c 128,-1,41
 64 463 64 463 71 472 c 1,42,43
 95 495 95 495 139 531.5 c 128,-1,44
 183 568 183 568 198 581 c 1,45,46
 126 637 126 637 68 663 c 0,47,48
 56.4290550527 667.285535166 56.4290550527 667.285535166 56.4290550527 673.498097272 c 128,-1,49
 56.4290550527 679.710659379 56.4290550527 679.710659379 67.0204602096 688.35532969 c 128,-1,50
 77.6118653665 697 77.6118653665 697 87.3059326832 697 c 128,-1,51
 97 697 97 697 108 693 c 128,-1,52
 119 689 119 689 133 681 c 128,-1,53
 147 673 147 673 157 666.5 c 128,-1,54
 167 660 167 660 183 649 c 128,-1,55
 199 638 199 638 205 634 c 1,56,57
 205 639 205 639 203.5 654.5 c 128,-1,58
 202 670 202 670 202.5 681.5 c 128,-1,59
 203 693 203 693 205 706 c 128,-1,0
 207 719 207 719 215 726.5 c 128,-1,1
EndSplineSet
EndChar

StartChar: hyphen
Encoding: 45 45 71
Width: 545
Flags: HMW
HStem: 245 53<113 117.5>
LayerCount: 2
Fore
SplineSet
129 298 m 2,0,-1
 321.04 290.8 l 1,1,2
 386.866666667 290.8 386.866666667 290.8 415.241025641 296.592307692 c 128,-1,3
 443.615384615 302.384615385 443.615384615 302.384615385 449.50887574 302.384615385 c 0,4,5
 481 302.384615385 481 302.384615385 481 286 c 0,6,7
 481 264 481 264 446.5 252 c 128,-1,8
 412 240 412 240 366.583333333 238.333333333 c 128,-1,9
 321.166666667 236.666666667 321.166666667 236.666666667 295.25 236.666666667 c 128,-1,10
 269.333333333 236.666666667 269.333333333 236.666666667 235.666666667 237.333333333 c 128,-1,11
 202 238 202 238 151 241.5 c 128,-1,12
 100 245 100 245 92 245 c 0,13,14
 64.3856678312 245 64.3856678312 245 64.3856678312 256.218187214 c 0,15,16
 64.3856678312 272.626525131 64.3856678312 272.626525131 101.240348047 290.173072526 c 0,17,18
 117.679987289 298 117.679987289 298 129 298 c 2,0,-1
EndSplineSet
EndChar

StartChar: endash
Encoding: 8211 8211 72
Width: 659
Flags: HMW
HStem: 245 53<113 117.5>
LayerCount: 2
Fore
SplineSet
562.50887574 302.384615385 m 0,0,1
 594 302.384615385 594 302.384615385 594 286 c 0,2,3
 594 264 594 264 548 252 c 128,-1,4
 502 240 502 240 442 238.333333333 c 128,-1,5
 382 236.666666667 382 236.666666667 348 236.666666667 c 128,-1,6
 314 236.666666667 314 236.666666667 270 237.333333333 c 128,-1,7
 226 238 226 238 162 241.5 c 128,-1,8
 98 245 98 245 92 245 c 0,9,10
 64.3856678312 245 64.3856678312 245 64.3856678312 256.218187214 c 0,11,12
 64.3856678312 272.626525131 64.3856678312 272.626525131 101.240348047 290.173072526 c 0,13,14
 117.679987289 298 117.679987289 298 136.839993644 298 c 128,-1,15
 156 298 156 298 243.3 294.4 c 128,-1,16
 330.6 290.8 330.6 290.8 371.5 290.8 c 128,-1,17
 412.4 290.8 412.4 290.8 459.2 291.4 c 128,-1,18
 506 292 506 292 531.307692308 297.192307692 c 128,-1,19
 556.615384615 302.384615385 556.615384615 302.384615385 562.50887574 302.384615385 c 0,0,1
EndSplineSet
EndChar

StartChar: emdash
Encoding: 8212 8212 73
Width: 775
Flags: HMW
HStem: 245 53<116 120.5>
LayerCount: 2
Fore
SplineSet
672.50887574 302.384615385 m 0,0,1
 704 302.384615385 704 302.384615385 704 286 c 0,2,3
 704 264 704 264 647.5 252 c 128,-1,4
 591 240 591 240 517.25 238.333333333 c 128,-1,5
 443.5 236.666666667 443.5 236.666666667 401.75 236.666666667 c 128,-1,6
 360 236.666666667 360 236.666666667 306 237.333333333 c 128,-1,7
 252 238 252 238 176 241.5 c 128,-1,8
 100 245 100 245 95 245 c 0,9,10
 67.3856678312 245 67.3856678312 245 67.3856678312 256.218187214 c 0,11,12
 67.3856678312 272.626525131 67.3856678312 272.626525131 104.240348047 290.173072526 c 0,13,14
 120.679987289 298 120.679987289 298 137.339993644 298 c 128,-1,15
 154 298 154 298 268.75 294.4 c 128,-1,16
 383.5 290.8 383.5 290.8 437.65 290.8 c 128,-1,17
 491.8 290.8 491.8 290.8 553.9 291.4 c 128,-1,18
 616 292 616 292 641.307692308 297.192307692 c 128,-1,19
 666.615384615 302.384615385 666.615384615 302.384615385 672.50887574 302.384615385 c 0,0,1
EndSplineSet
EndChar

StartChar: asciitilde
Encoding: 126 126 74
Width: 558
Flags: HMW
HStem: 232 165<62.5 250> 247 61<366.5 418 366.5 426> 330 67<183 240.5>
LayerCount: 2
Fore
SplineSet
459 401 m 0,0,1
 461.56 421.48 461.56 421.48 482.7224 421.48 c 0,2,3
 492.5 421.48 492.5 421.48 503.25 413.74 c 128,-1,4
 514 406 514 406 514 391 c 0,5,6
 514 330 514 330 479 288.5 c 128,-1,7
 444 247 444 247 386 247 c 0,8,9
 351 247 351 247 296 288.5 c 128,-1,10
 241 330 241 330 204 330 c 0,11,12
 148 330 148 330 96 246 c 0,13,14
 88 232 88 232 72.5 232 c 128,-1,15
 57 232 57 232 49.8108108108 242.594594595 c 128,-1,16
 42.6216216216 253.189189189 42.6216216216 253.189189189 42.6216216216 260.445945946 c 128,-1,17
 42.6216216216 267.702702703 42.6216216216 267.702702703 47 275 c 0,18,19
 82 332 82 332 121 364.5 c 128,-1,20
 160 397 160 397 214 397 c 0,21,22
 250 397 250 397 308.5 352.5 c 128,-1,23
 367 308 367 308 396.5 308 c 128,-1,24
 426 308 426 308 438.5 328.5 c 128,-1,25
 451 349 451 349 459 401 c 0,0,1
EndSplineSet
EndChar

StartChar: ellipsis
Encoding: 8230 8230 75
Width: 745
Flags: HMW
HStem: -35 21G<360 383> -30 100<103 121> 53 20G<623 652.5>
VStem: 50 122<11.5 28> 312 122<6.5 23> 570 122<14.5 31>
LayerCount: 2
Fore
SplineSet
71 -16.5 m 128,-1,1
 50 -3 50 -3 50 16 c 128,-1,2
 50 35 50 35 72 52.5 c 128,-1,3
 94 70 94 70 117 70 c 128,-1,4
 140 70 140 70 156 57 c 128,-1,5
 172 44 172 44 172 24.5 c 128,-1,6
 172 5 172 5 150.5 -12.5 c 128,-1,7
 129 -30 129 -30 110.5 -30 c 128,-1,0
 92 -30 92 -30 71 -16.5 c 128,-1,1
333 -21.5 m 128,-1,9
 312 -8 312 -8 312 11 c 128,-1,10
 312 30 312 30 334 47.5 c 128,-1,11
 356 65 356 65 379 65 c 128,-1,12
 402 65 402 65 418 52 c 128,-1,13
 434 39 434 39 434 19.5 c 128,-1,14
 434 0 434 0 412.5 -17.5 c 128,-1,15
 391 -35 391 -35 372.5 -35 c 128,-1,8
 354 -35 354 -35 333 -21.5 c 128,-1,9
591 -13.5 m 128,-1,17
 570 0 570 0 570 19 c 128,-1,18
 570 38 570 38 592 55.5 c 128,-1,19
 614 73 614 73 637 73 c 128,-1,20
 660 73 660 73 676 60 c 128,-1,21
 692 47 692 47 692 27.5 c 128,-1,22
 692 8 692 8 670.5 -9.5 c 128,-1,23
 649 -27 649 -27 630.5 -27 c 128,-1,16
 612 -27 612 -27 591 -13.5 c 128,-1,17
EndSplineSet
EndChar

StartChar: colon
Encoding: 58 58 76
Width: 245
Flags: HMW
HStem: 42 86<92.5 138.5> 319 98<121 134.5 121 137>
VStem: 63 110<78.5 88> 77 96
LayerCount: 2
Fore
SplineSet
85 111 m 128,-1,1
 107 128 107 128 126 128 c 128,-1,2
 145 128 145 128 159 119 c 128,-1,3
 173 110 173 110 173 91.5 c 128,-1,4
 173 73 173 73 148 57.5 c 128,-1,5
 123 42 123 42 105 42 c 128,-1,6
 87 42 87 42 75 51.5 c 128,-1,7
 63 61 63 61 63 77.5 c 128,-1,0
 63 94 63 94 85 111 c 128,-1,1
121 417 m 1,8,9
 144 417 144 417 162.5 405.5 c 128,-1,10
 181 394 181 394 181 373 c 128,-1,11
 181 352 181 352 163 335.5 c 128,-1,12
 145 319 145 319 123.5 319 c 128,-1,13
 102 319 102 319 89.5 335.5 c 128,-1,14
 77 352 77 352 77 372 c 0,15,16
 77 412 77 412 121 417 c 1,8,9
EndSplineSet
EndChar

StartChar: period
Encoding: 46 46 77
Width: 226
Flags: HMW
HStem: -30 100<103 121>
VStem: 50 122<11.5 28>
LayerCount: 2
Fore
SplineSet
71 -16.5 m 128,-1,1
 50 -3 50 -3 50 16 c 128,-1,2
 50 35 50 35 72 52.5 c 128,-1,3
 94 70 94 70 117 70 c 128,-1,4
 140 70 140 70 156 57 c 128,-1,5
 172 44 172 44 172 24.5 c 128,-1,6
 172 5 172 5 150.5 -12.5 c 128,-1,7
 129 -30 129 -30 110.5 -30 c 128,-1,0
 92 -30 92 -30 71 -16.5 c 128,-1,1
EndSplineSet
EndChar

StartChar: comma
Encoding: 44 44 78
Width: 183
Flags: HMW
HStem: 75 20G<63 111>
VStem: 64 64<-48 -3>
LayerCount: 2
Fore
SplineSet
64 -22 m 0,0,1
 64 -13 64 -13 61 4.5 c 128,-1,2
 58 22 58 22 56.5 36 c 128,-1,3
 55 50 55 50 56 64.5 c 0,4,5
 58.1034482759 95 58.1034482759 95 96 95 c 0,6,7
 128 95 128 95 128 0 c 0,8,9
 128 -164 128 -164 19 -247 c 0,10,11
 7.40641855008 -254.58041864 7.40641855008 -254.58041864 -3.61369146328 -254.58041864 c 128,-1,12
 -14.6338014766 -254.58041864 -14.6338014766 -254.58041864 -25.0133530711 -249.558054966 c 128,-1,13
 -35.3929046656 -244.535691291 -35.3929046656 -244.535691291 -35.3929046656 -237.215493084 c 128,-1,14
 -35.3929046656 -229.895294876 -35.3929046656 -229.895294876 -23 -220 c 0,15,16
 64 -153 64 -153 64 -22 c 0,0,1
EndSplineSet
EndChar

StartChar: semicolon
Encoding: 59 59 79
Width: 244
Flags: HMW
HStem: 353 83<88.5 147>
VStem: 63 103 104 62<64.5 103.5>
LayerCount: 2
Fore
SplineSet
133 436 m 0,0,1
 152 436 152 436 164.5 424 c 128,-1,2
 177 412 177 412 177 400 c 0,3,4
 177 379 177 379 150 366 c 128,-1,5
 123 353 123 353 93 353 c 128,-1,6
 63 353 63 353 63 382 c 0,7,8
 63 436 63 436 133 436 c 0,0,1
48.4695380567 -110.01318613 m 0,9,10
 28.5419141423 -110.01318613 28.5419141423 -110.01318613 28.5419141423 -85.6642629742 c 0,11,12
 28.5419141423 -70.1650165111 28.5419141423 -70.1650165111 45 -67 c 0,13,14
 65 -62 65 -62 77 -50 c 128,-1,15
 89 -38 89 -38 93 -25 c 128,-1,16
 97 -12 97 -12 99.5 -4 c 128,-1,17
 102 4 102 4 103 21.5 c 128,-1,18
 104 39 104 39 104 45.5 c 2,19,-1
 104 93 l 2,20,21
 104 103 104 103 117.175 108.95 c 128,-1,22
 130.35 114.9 130.35 114.9 141.2 114.9 c 1,23,24
 166 112.5 166 112.5 166 98 c 0,25,26
 166 -12.7272727273 166 -12.7272727273 142 -52 c 0,27,28
 114.430379747 -97.1139240506 114.430379747 -97.1139240506 60 -108 c 0,29,30
 53.5944077695 -110.01318613 53.5944077695 -110.01318613 48.4695380567 -110.01318613 c 0,9,10
EndSplineSet
EndChar

StartChar: asciicircum
Encoding: 94 94 80
Width: 444
Flags: HW
LayerCount: 2
Fore
SplineSet
101 438 m 0,0,1
 93.0255275522 424.044673216 93.0255275522 424.044673216 69.2429824732 424.044673216 c 128,-1,2
 45.4604373942 424.044673216 45.4604373942 424.044673216 45.4604373942 435.879333499 c 0,3,4
 45.4604373942 439.275308178 45.4604373942 439.275308178 48 443 c 0,5,6
 68 480 68 480 84 546 c 128,-1,7
 100 612 100 612 121 667 c 128,-1,8
 142 722 142 722 181 757 c 0,9,10
 194.225806452 768.903225806 194.225806452 768.903225806 208.919354839 768.903225806 c 128,-1,11
 223.612903226 768.903225806 223.612903226 768.903225806 232 758 c 1,12,13
 258 699 258 699 315.5 589.5 c 0,14,15
 399.00947896 430.468905285 399.00947896 430.468905285 399.00947896 419.683227825 c 128,-1,16
 399.00947896 408.897550364 399.00947896 408.897550364 380.60254191 403.08691691 c 0,17,18
 370.889302639 400.020677649 370.889302639 400.020677649 360.311912555 400.020677649 c 0,19,20
 346.989661176 400.020677649 346.989661176 400.020677649 341 412 c 0,21,22
 316 467 316 467 264.5 566.5 c 128,-1,23
 213 666 213 666 195 704 c 1,24,25
 168 663 168 663 144.5 569 c 128,-1,26
 121 475 121 475 101 438 c 0,0,1
EndSplineSet
EndChar

StartChar: underscore
Encoding: 95 95 81
Width: 725
Flags: HMW
HStem: -115 36<570.5 601>
LayerCount: 2
Fore
SplineSet
135 -79 m 1,0,1
 210.338888889 -88.55 210.338888889 -88.55 290.294444444 -88.55 c 128,-1,2
 370.25 -88.55 370.25 -88.55 467.625 -84.275 c 128,-1,3
 565 -80 565 -80 610 -79 c 0,4,5
 626.228417776 -79 626.228417776 -79 626.228417776 -86.7496612464 c 0,6,7
 626.228417776 -90.3084645252 626.228417776 -90.3084645252 617.671855993 -101.709686172 c 128,-1,8
 609.11529421 -113.110907819 609.11529421 -113.110907819 596.557647105 -114.055453909 c 128,-1,9
 584 -115 584 -115 525 -117.5 c 0,10,11
 358.727272727 -124.545454545 358.727272727 -124.545454545 228.363636364 -124.545454545 c 128,-1,12
 98 -124.545454545 98 -124.545454545 98 -104 c 0,13,14
 98 -94 98 -94 110 -86.5 c 128,-1,15
 122 -79 122 -79 135 -79 c 1,0,1
EndSplineSet
EndChar

StartChar: question
Encoding: 63 63 82
Width: 440
Flags: HMW
HStem: 12 21G<155.5 186> 650 46<195.5 259>
VStem: 142 68 142 102 333 74<545.5 616.5>
LayerCount: 2
Fore
SplineSet
86 620 m 1,0,1
 78.2917380167 613.967447144 78.2917380167 613.967447144 68.6617545703 613.967447144 c 128,-1,2
 59.0317711239 613.967447144 59.0317711239 613.967447144 46.4081841926 622.030428842 c 128,-1,3
 33.7845972613 630.093410539 33.7845972613 630.093410539 33.7845972613 639.508665544 c 128,-1,4
 33.7845972613 648.923920549 33.7845972613 648.923920549 47 657 c 0,5,6
 113 696 113 696 225 696 c 0,7,8
 361.769230769 696 361.769230769 696 393 652.5 c 0,9,10
 407 633 407 633 407 598.5 c 128,-1,11
 407 564 407 564 377 512.5 c 128,-1,12
 347 461 347 461 311 418.5 c 128,-1,13
 275 376 275 376 243.5 326 c 128,-1,14
 212 276 212 276 210 242 c 0,15,16
 209 228 209 228 194.721153846 219.778846154 c 128,-1,17
 180.442307692 211.557692308 180.442307692 211.557692308 168.384615385 211.557692308 c 1,18,-1
 159.5 212.5 l 1,19,20
 143 216 143 216 142 233 c 1,21,22
 145 279 145 279 176 332 c 128,-1,23
 207 385 207 385 241.5 424.5 c 128,-1,24
 276 464 276 464 304.5 512 c 128,-1,25
 333 560 333 560 333 593 c 128,-1,26
 333 626 333 626 306 638 c 128,-1,27
 279 650 279 650 207.5 650 c 128,-1,28
 136 650 136 650 86 620 c 1,0,1
201 106 m 1,29,30
 218 104 218 104 231 93.5 c 128,-1,31
 244 83 244 83 244 63.5 c 128,-1,32
 244 44 244 44 220 28 c 128,-1,33
 196 12 196 12 170 12 c 0,34,35
 131 12 131 12 131 40.5 c 128,-1,36
 131 69 131 69 151 87.5 c 128,-1,37
 171 106 171 106 201 106 c 1,29,30
EndSplineSet
EndChar

StartChar: questiondown
Encoding: 191 191 83
Width: 430
Flags: HMW
HStem: -182 46<177 240.5 177 242.5> 482 20G<250 280.5>
VStem: 29 74<-102.5 -31.5> 192 102 226 68
LayerCount: 2
Fore
SplineSet
350 -106 m 1,0,1
 357.708261983 -99.9674471435 357.708261983 -99.9674471435 367.33824543 -99.9674471435 c 128,-1,2
 376.968228876 -99.9674471435 376.968228876 -99.9674471435 389.591815807 -108.030428842 c 128,-1,3
 402.215402739 -116.093410539 402.215402739 -116.093410539 402.215402739 -125.508665544 c 128,-1,4
 402.215402739 -134.923920549 402.215402739 -134.923920549 389 -143 c 0,5,6
 323 -182 323 -182 211 -182 c 0,7,8
 74.2307692308 -182 74.2307692308 -182 43 -138.5 c 0,9,10
 29 -119 29 -119 29 -84.5 c 128,-1,11
 29 -50 29 -50 59 1.5 c 128,-1,12
 89 53 89 53 125 95.5 c 128,-1,13
 161 138 161 138 192.5 188 c 128,-1,14
 224 238 224 238 226 272 c 0,15,16
 227 286 227 286 241.278846154 294.221153846 c 128,-1,17
 255.557692308 302.442307692 255.557692308 302.442307692 267.615384615 302.442307692 c 1,18,-1
 276.5 301.5 l 1,19,20
 293 298 293 298 294 281 c 1,21,22
 291 235 291 235 260 182 c 128,-1,23
 229 129 229 129 194.5 89.5 c 128,-1,24
 160 50 160 50 131.5 2 c 128,-1,25
 103 -46 103 -46 103 -79 c 128,-1,26
 103 -112 103 -112 130 -124 c 128,-1,27
 157 -136 157 -136 228.5 -136 c 128,-1,28
 300 -136 300 -136 350 -106 c 1,0,1
235 408 m 1,29,30
 218 410 218 410 205 420.5 c 128,-1,31
 192 431 192 431 192 450.5 c 128,-1,32
 192 470 192 470 216 486 c 128,-1,33
 240 502 240 502 266 502 c 0,34,35
 305 502 305 502 305 473.5 c 128,-1,36
 305 445 305 445 285 426.5 c 128,-1,37
 265 408 265 408 235 408 c 1,29,30
EndSplineSet
EndChar

StartChar: exclam
Encoding: 33 33 84
Width: 233
Flags: HMW
HStem: -30 21G<100 123> 686 20G<122.5 140>
VStem: 52 122<11.5 30> 90 70<605 693>
LayerCount: 2
Fore
SplineSet
90 679 m 1,0,1
 91 691 91 691 104 698.5 c 128,-1,2
 117 706 117 706 133 706 c 0,3,4
 160 706 160 706 160 686 c 0,5,6
 158 391 158 391 145 243 c 0,7,8
 144 232 144 232 129.5 224.5 c 128,-1,9
 115 217 115 217 101 217 c 0,10,11
 76 217 76 217 76 237 c 1,12,13
 90 384 90 384 90 679 c 1,0,1
98 69 m 0,14,15
 108.8 70.8 108.8 70.8 124.4 70.8 c 0,16,17
 140 70.8 140 70.8 157 58.9 c 0,18,19
 174 47 174 47 174 26 c 128,-1,20
 174 5 174 5 152.5 -12.5 c 128,-1,21
 131 -30 131 -30 112.5 -30 c 0,22,23
 94 -30 94 -30 73 -16.5 c 128,-1,24
 52 -3 52 -3 52 12 c 0,25,26
 52 60 52 60 98 69 c 0,14,15
EndSplineSet
EndChar

StartChar: exclamdown
Encoding: 161 161 85
Width: 214
Flags: HMW
HStem: -241 21G<82 99.5> 475 20G<99 122>
VStem: 48 122<435 453.5> 62 70<-228 -140>
LayerCount: 2
Fore
SplineSet
132 -214 m 1,0,1
 131 -226 131 -226 118 -233.5 c 128,-1,2
 105 -241 105 -241 89 -241 c 0,3,4
 62 -241 62 -241 62 -221 c 0,5,6
 64 74 64 74 77 222 c 0,7,8
 78 233 78 233 92.5 240.5 c 128,-1,9
 107 248 107 248 121 248 c 0,10,11
 146 248 146 248 146 228 c 1,12,13
 132 81 132 81 132 -214 c 1,0,1
124 396 m 0,14,15
 113.2 394.2 113.2 394.2 97.6 394.2 c 0,16,17
 82 394.2 82 394.2 65 406.1 c 0,18,19
 48 418 48 418 48 439 c 128,-1,20
 48 460 48 460 69.5 477.5 c 128,-1,21
 91 495 91 495 109.5 495 c 0,22,23
 128 495 128 495 149 481.5 c 128,-1,24
 170 468 170 468 170 453 c 0,25,26
 170 405 170 405 124 396 c 0,14,15
EndSplineSet
EndChar

StartChar: bracketleft
Encoding: 91 91 86
Width: 364
Flags: HMW
HStem: -65 21G<74.5 119> -5 21G<317.5 330> 659 43<271 344>
VStem: 57 55<-22.5 13.5>
LayerCount: 2
Fore
SplineSet
184.208185114 -27.5766299739 m 0,0,1
 231.673096205 -27.5766299739 231.673096205 -27.5766299739 318 -5 c 1,2,3
 334.15506568 -5 334.15506568 -5 332.074472907 -24.9109172849 c 0,4,5
 329.588817252 -48.6982171288 329.588817252 -48.6982171288 304 -52 c 0,6,7
 205 -65 205 -65 80 -65 c 0,8,9
 57 -65 57 -65 57 -51 c 0,10,11
 57 53 57 53 73.5 292.5 c 128,-1,12
 90 532 90 532 108 652 c 1,13,14
 109 666 109 666 127 676.5 c 0,15,16
 164.581081081 698.422297297 164.581081081 698.422297297 322 702 c 0,17,18
 344.156198787 702 344.156198787 702 344.156198787 689.874129431 c 0,19,20
 344.156198787 673.667403316 344.156198787 673.667403316 318.090079471 663.494633799 c 0,21,22
 305.999746175 659.194824125 305.999746175 659.194824125 294 659 c 0,23,24
 204 659 204 659 161 648 c 1,25,26
 162 618 162 618 137 334.5 c 128,-1,27
 112 51 112 51 112 20 c 0,28,29
 112 -27.5766299739 112 -27.5766299739 184.208185114 -27.5766299739 c 0,0,1
EndSplineSet
EndChar

StartChar: bracketright
Encoding: 93 93 87
Width: 355
Flags: HMW
HStem: -30 46<57 104 57 253> 660 51 675 51<186 211>
VStem: 211 55 234 57
LayerCount: 2
Fore
SplineSet
72 16 m 2,0,-1
 200.628099174 19.6363636364 l 2,1,2
 223.636363636 19.6363636364 223.636363636 19.6363636364 234 18 c 1,3,4
 232 82 232 82 211 675 c 1,5,6
 187 675 187 675 132.222222222 667.444444444 c 128,-1,7
 77.4444444444 659.888888889 77.4444444444 659.888888889 63.1111111111 659.888888889 c 128,-1,8
 48.7777777778 659.888888889 48.7777777778 659.888888889 46 660 c 0,9,10
 15.8990131004 660 15.8990131004 660 15.8990131004 679.298733019 c 128,-1,11
 15.8990131004 698.597466038 15.8990131004 698.597466038 38.2319072196 707.741289191 c 0,12,13
 45.2160376273 710.600822442 45.2160376273 710.600822442 61.6080188136 710.800411221 c 128,-1,14
 78 711 78 711 130 718.5 c 128,-1,15
 182 726 182 726 201.625 726 c 2,16,-1
 233.5 726 l 2,17,18
 239 726 239 726 241.5 725 c 128,-1,19
 244 724 244 724 248.5 723 c 128,-1,20
 253 722 253 722 255.5 720.5 c 128,-1,21
 258 719 258 719 260.5 716.5 c 0,22,23
 266 711 266 711 266 703 c 0,24,25
 291 316 291 316 291 -9 c 0,26,27
 291 -19 291 -19 277.5 -24.5 c 128,-1,28
 264 -30 264 -30 246 -29 c 128,-1,29
 228 -28 228 -28 178.25 -28 c 2,30,-1
 52.6171806237 -30.0180560585 l 2,31,32
 33.8684079784 -30.0180560585 33.8684079784 -30.0180560585 34.6235000411 -16.2364900962 c 0,33,34
 35.562761074 0.906436602407 35.562761074 0.906436602407 56.0137354826 11.7529095775 c 0,35,36
 64.0216047449 16 64.0216047449 16 72 16 c 2,0,-1
EndSplineSet
EndChar

StartChar: parenleft
Encoding: 40 40 88
Width: 274
Flags: HMW
VStem: 39 63<310 441.5>
LayerCount: 2
Fore
SplineSet
215 767 m 0,0,1
 102 585 102 585 102 387 c 0,2,3
 102 144 102 144 270 -51 c 0,4,5
 274.116702922 -55.1167029218 274.116702922 -55.1167029218 274.116702922 -59.2212814525 c 0,6,7
 274.116702922 -67.6675503389 274.116702922 -67.6675503389 257.481277647 -75.6789565727 c 128,-1,8
 240.845852372 -83.6903628066 240.845852372 -83.6903628066 230.341030175 -83.6903628066 c 0,9,10
 216.666583121 -83.6903628066 216.666583121 -83.6903628066 211 -76 c 0,11,12
 39 124 39 124 39 375 c 0,13,14
 39 580 39 580 156 768 c 0,15,16
 165.22137255 782.344357299 165.22137255 782.344357299 191.742793247 782.344357299 c 128,-1,17
 218.264213945 782.344357299 218.264213945 782.344357299 217.737257798 773.68515006 c 0,18,19
 217.559488348 770.763953453 217.559488348 770.763953453 215 767 c 0,0,1
EndSplineSet
EndChar

StartChar: parenright
Encoding: 41 41 89
Width: 238
Flags: HMW
VStem: 133 64<292.5 423.5>
LayerCount: 2
Fore
SplineSet
25 774 m 1,0,-1
 24 775 l 1,1,2
 24 784 24 784 45.6911764706 789.882352941 c 0,3,4
 67.3823529412 795.764705882 67.3823529412 795.764705882 76.3676470588 795.764705882 c 0,5,6
 85.3529411765 795.764705882 85.3529411765 795.764705882 88 791 c 0,7,8
 197 587 197 587 197 362.5 c 0,9,10
 197 138 197 138 83 -63 c 0,11,12
 80 -69 80 -69 64 -74 c 128,-1,13
 48 -79 48 -79 35.5 -79 c 128,-1,14
 23 -79 23 -79 20 -75 c 1,15,16
 133 128 133 128 133 350.5 c 0,17,18
 133 573 133 573 25 774 c 1,0,-1
EndSplineSet
EndChar

StartChar: slash
Encoding: 47 47 90
Width: 491
Flags: HW
LayerCount: 2
Fore
SplineSet
397 755 m 0,0,1
 406.180608597 774.381284815 406.180608597 774.381284815 449.810951349 774.381284815 c 0,2,3
 468.003063027 774.381284815 468.003063027 774.381284815 466 765 c 1,4,5
 399 627 399 627 291 340 c 128,-1,6
 183 53 183 53 94 -113 c 0,7,8
 83.0932057781 -131.45765176 83.0932057781 -131.45765176 41.1889364747 -131.45765176 c 0,9,10
 23.362219593 -131.45765176 23.362219593 -131.45765176 23.362219593 -126.181713746 c 0,11,12
 23.362219593 -124.637780407 23.362219593 -124.637780407 25 -123 c 0,13,14
 114 43 114 43 222 330 c 128,-1,15
 330 617 330 617 397 755 c 0,0,1
EndSplineSet
EndChar

StartChar: backslash
Encoding: 92 92 91
Width: 481
Flags: HW
LayerCount: 2
Fore
SplineSet
28 768 m 1,0,1
 27 775 27 775 39 781.5 c 0,2,3
 53.0769230769 789.125 53.0769230769 789.125 64.9759615385 789.125 c 128,-1,4
 76.875 789.125 76.875 789.125 83 783 c 1,5,6
 134 627 134 627 279.5 310.5 c 128,-1,7
 425 -6 425 -6 456 -83 c 1,8,9
 456 -90 456 -90 442.5 -96 c 0,10,11
 427.772727273 -102.545454545 427.772727273 -102.545454545 415.75 -102.545454545 c 128,-1,12
 403.727272727 -102.545454545 403.727272727 -102.545454545 401 -98 c 0,13,14
 370 -21 370 -21 224.5 295.5 c 128,-1,15
 79 612 79 612 28 768 c 1,0,1
EndSplineSet
EndChar

StartChar: braceleft
Encoding: 123 123 92
Width: 331
Flags: HMW
HStem: -41 54<192 245.5 192 253> -41 75<151.5 298.5> 698 20G<225 276.5>
LayerCount: 2
Fore
SplineSet
235 13 m 0,0,1
 245 13 245 13 262.5 23.5 c 128,-1,2
 280 34 280 34 291 34 c 128,-1,3
 302 34 302 34 310 25 c 128,-1,4
 318 16 318 16 318 0 c 128,-1,5
 318 -16 318 -16 291.5 -28.5 c 128,-1,6
 265 -41 265 -41 237 -41 c 0,7,8
 189 -41 189 -41 162.5 -12.5 c 128,-1,9
 136 16 136 16 126.5 61 c 128,-1,10
 117 106 117 106 111 153 c 128,-1,11
 105 200 105 200 88 245.5 c 128,-1,12
 71 291 71 291 40 312 c 0,13,14
 26 321 26 321 26 337 c 128,-1,15
 26 353 26 353 40 362 c 0,16,17
 77 383 77 383 92.0303030303 417.909090909 c 128,-1,18
 107.060606061 452.818181818 107.060606061 452.818181818 107.060606061 484.87144169 c 2,19,-1
 106.666666667 512.944444444 l 1,20,21
 106.666666667 605.212121212 106.666666667 605.212121212 122.333333333 646.606060606 c 128,-1,22
 138 688 138 688 170 703 c 128,-1,23
 202 718 202 718 260 718 c 0,24,25
 276 718 276 718 281 704.5 c 128,-1,26
 286 691 286 691 278.5 677 c 128,-1,27
 271 663 271 663 256 661 c 0,28,29
 189.325786164 655.116981132 189.325786164 655.116981132 175 606 c 0,30,31
 165.561797753 573.640449438 165.561797753 573.640449438 164.780898876 521.320224719 c 128,-1,32
 164 469 164 469 159 441 c 128,-1,33
 154 413 154 413 135 382.5 c 128,-1,34
 116 352 116 352 91 337 c 1,35,36
 144 305 144 305 157 251 c 0,37,38
 159 242 159 242 161 198 c 128,-1,39
 163 154 163 154 167 116 c 128,-1,40
 171 78 171 78 188 45.5 c 128,-1,41
 205 13 205 13 235 13 c 0,0,1
EndSplineSet
EndChar

StartChar: braceright
Encoding: 125 125 93
Width: 292
Flags: HMW
HStem: -63 59<100.5 133 86.5 182.5> 645 64<104 108.5>
VStem: 28 159<643.5 662.5 608.5 682> 129 135
LayerCount: 2
Fore
SplineSet
178.6 491.46 m 0,0,1
 178.6 395 178.6 395 218 395 c 0,2,3
 264 395 264 395 264 366 c 0,4,5
 264 356 264 356 255 348 c 0,6,7
 219.656953642 317.705960265 219.656953642 317.705960265 212 173.5 c 0,8,9
 209 117 209 117 202 62.5 c 128,-1,10
 195 8 195 8 172.5 -27.5 c 128,-1,11
 150 -63 150 -63 109 -63 c 0,12,13
 88 -63 88 -63 58 -53 c 128,-1,14
 28 -43 28 -43 28 -25 c 128,-1,15
 28 -7 28 -7 36.5 -0.5 c 128,-1,16
 45 6 45 6 54.5 4.5 c 128,-1,17
 64 3 64 3 78 -0.5 c 128,-1,18
 92 -4 92 -4 102 -4 c 128,-1,19
 112 -4 112 -4 123 5 c 128,-1,20
 134 14 134 14 140 31.5 c 128,-1,21
 146 49 146 49 150 66.5 c 0,22,23
 157 97.125 157 97.125 157 150.5 c 2,24,-1
 156 216 l 1,25,26
 156 305 156 305 196 350 c 1,27,28
 162 362 162 362 141 409.5 c 128,-1,29
 120 457 120 457 120 502 c 1,30,31
 129 603 l 1,32,33
 129 645 129 645 96 645 c 0,34,35
 90 645 90 645 76 642 c 128,-1,36
 62 639 62 639 53 638.5 c 128,-1,37
 44 638 44 638 36 644 c 128,-1,38
 28 650 28 650 28 666 c 0,39,40
 28 687 28 687 58.5 698 c 128,-1,41
 89 709 89 709 118 709 c 0,42,43
 187 709 187 709 187 628 c 0,44,45
 187 620 187 620 184 589 c 0,46,47
 178.6 533.2 178.6 533.2 178.6 491.46 c 0,0,1
EndSplineSet
EndChar

StartChar: bar
Encoding: 124 124 94
Width: 201
Flags: HMW
VStem: 62 57<723 740.5> 84 57<-78 -78>
LayerCount: 2
Fore
SplineSet
62 723 m 0,0,1
 62 735 62 735 71 742.5 c 128,-1,2
 80 750 80 750 90.5 750 c 128,-1,3
 101 750 101 750 110 743 c 128,-1,4
 119 736 119 736 119 723 c 0,5,6
 138 10 138 10 141 -78 c 0,7,8
 141 -95 141 -95 130.5 -100.25 c 0,9,10
 120 -105.5 120 -105.5 113 -105.5 c 1,11,-1
 99 -102 l 1,12,13
 85 -95 85 -95 84 -78 c 0,14,15
 81 10 81 10 62 723 c 0,0,1
EndSplineSet
EndChar

StartChar: Adieresis
Encoding: 196 196 95
Width: 694
Flags: HMW
HStem: 247 52 664 53<286.5 425.5> 776 85<236 241.5> 842 20G<460.5 487>
VStem: 183 125<810 821.5> 400 131<808 817.5>
LayerCount: 2
Fore
SplineSet
661 5 m 1,0,1
 645.013605442 -17.380952381 645.013605442 -17.380952381 615.095238095 -17.380952381 c 0,2,3
 606.619047619 -17.380952381 606.619047619 -17.380952381 599 -15 c 1,4,5
 577.027444254 35.2229845626 577.027444254 35.2229845626 562.5 161.5 c 0,6,7
 556 218 556 218 551 247 c 1,8,9
 441.814814815 251.481481481 441.814814815 251.481481481 332.87037037 251.481481481 c 128,-1,10
 223.925925926 251.481481481 223.925925926 251.481481481 138 242 c 1,11,12
 129 201 129 201 118.5 119.5 c 128,-1,13
 108 38 108 38 103 10 c 1,14,15
 82.5689655172 -6.34482758621 82.5689655172 -6.34482758621 57.8275862069 -6.34482758621 c 0,16,17
 49.3793103448 -6.34482758621 49.3793103448 -6.34482758621 38 2 c 1,18,19
 41 26 41 26 54.2211055276 140.582914573 c 128,-1,20
 67.4422110553 255.165829146 67.4422110553 255.165829146 88.5 355.5 c 0,21,22
 136.72319202 585.269326683 136.72319202 585.269326683 233 665.5 c 0,23,24
 294.8 717 294.8 717 372 717 c 0,25,26
 441 717 441 717 489.5 661 c 128,-1,27
 538 605 538 605 563 514 c 128,-1,28
 588 423 588 423 603 331 c 128,-1,29
 618 239 618 239 632 143 c 128,-1,30
 646 47 646 47 661 5 c 1,0,1
267 621 m 128,-1,32
 226 578 226 578 202.5 513.5 c 0,33,34
 159.176870748 394.591836735 159.176870748 394.591836735 148 294 c 1,35,36
 248.181818182 304.939393939 248.181818182 304.939393939 349 304.939393939 c 128,-1,37
 449.818181818 304.939393939 449.818181818 304.939393939 544 299 c 1,38,39
 540 314 540 314 529 370 c 128,-1,40
 518 426 518 426 506.5 468.5 c 128,-1,41
 495 511 495 511 475.5 560 c 128,-1,42
 456 609 456 609 426 636.5 c 128,-1,43
 396 664 396 664 352 664 c 128,-1,31
 308 664 308 664 267 621 c 128,-1,32
259 861 m 0,44,45
 272 861 272 861 290 852.5 c 128,-1,46
 308 844 308 844 308 831 c 0,47,48
 308 802 308 802 282.5 789 c 128,-1,49
 257 776 257 776 220 776 c 128,-1,50
 183 776 183 776 183 799 c 0,51,52
 183 861 183 861 259 861 c 0,44,45
424.5 844 m 128,-1,54
 449 862 449 862 471.5 862 c 128,-1,55
 494 862 494 862 512.5 851.5 c 128,-1,56
 531 841 531 841 531 827 c 0,57,58
 531 802 531 802 499.5 789 c 128,-1,59
 468 776 468 776 445 776 c 0,60,61
 400 776 400 776 400 798 c 0,62,53
 400 826 400 826 424.5 844 c 128,-1,54
EndSplineSet
EndChar

StartChar: Aring
Encoding: 197 197 96
Width: 694
Flags: HMW
HStem: 247 52 664 53<286.5 425.5> 750 35<361.5 384 361.5 394> 750 177
VStem: 263 74<811.5 834 811.5 844.5> 418 69<836.5 857.5>
LayerCount: 2
Fore
SplineSet
661 5 m 1,0,1
 645.013605442 -17.380952381 645.013605442 -17.380952381 615.095238095 -17.380952381 c 0,2,3
 606.619047619 -17.380952381 606.619047619 -17.380952381 599 -15 c 1,4,5
 577.027444254 35.2229845626 577.027444254 35.2229845626 562.5 161.5 c 0,6,7
 556 218 556 218 551 247 c 1,8,9
 441.814814815 251.481481481 441.814814815 251.481481481 332.87037037 251.481481481 c 128,-1,10
 223.925925926 251.481481481 223.925925926 251.481481481 138 242 c 1,11,12
 129 201 129 201 118.5 119.5 c 128,-1,13
 108 38 108 38 103 10 c 1,14,15
 82.5689655172 -6.34482758621 82.5689655172 -6.34482758621 57.8275862069 -6.34482758621 c 0,16,17
 49.3793103448 -6.34482758621 49.3793103448 -6.34482758621 38 2 c 1,18,19
 41 26 41 26 54.2211055276 140.582914573 c 128,-1,20
 67.4422110553 255.165829146 67.4422110553 255.165829146 88.5 355.5 c 0,21,22
 136.72319202 585.269326683 136.72319202 585.269326683 233 665.5 c 0,23,24
 294.8 717 294.8 717 372 717 c 0,25,26
 441 717 441 717 489.5 661 c 128,-1,27
 538 605 538 605 563 514 c 128,-1,28
 588 423 588 423 603 331 c 128,-1,29
 618 239 618 239 632 143 c 128,-1,30
 646 47 646 47 661 5 c 1,0,1
267 621 m 128,-1,32
 226 578 226 578 202.5 513.5 c 0,33,34
 159.176870748 394.591836735 159.176870748 394.591836735 148 294 c 1,35,36
 248.181818182 304.939393939 248.181818182 304.939393939 349 304.939393939 c 128,-1,37
 449.818181818 304.939393939 449.818181818 304.939393939 544 299 c 1,38,39
 540 314 540 314 529 370 c 128,-1,40
 518 426 518 426 506.5 468.5 c 128,-1,41
 495 511 495 511 475.5 560 c 128,-1,42
 456 609 456 609 426 636.5 c 128,-1,43
 396 664 396 664 352 664 c 128,-1,31
 308 664 308 664 267 621 c 128,-1,32
400 927 m 1,44,45
 429 924 429 924 458 908.5 c 128,-1,46
 487 893 487 893 487 869 c 0,47,48
 487 819 487 819 449.5 784.5 c 128,-1,49
 412 750 412 750 360 750 c 0,50,51
 328 750 328 750 295.5 767 c 128,-1,52
 263 784 263 784 263 809 c 0,53,54
 263 859 263 859 305.5 892 c 128,-1,55
 348 925 348 925 400 927 c 1,44,45
347 796 m 128,-1,57
 357 785 357 785 373 785 c 128,-1,58
 389 785 389 785 403.5 807 c 128,-1,59
 418 829 418 829 418 846 c 128,-1,60
 418 863 418 863 407.5 876.5 c 128,-1,61
 397 890 397 890 382 892 c 1,62,63
 337 861 337 861 337 819 c 0,64,56
 337 807 337 807 347 796 c 128,-1,57
EndSplineSet
EndChar

StartChar: Agrave
Encoding: 192 192 97
Width: 694
Flags: HMW
HStem: 247 52 664 53<286.5 425.5>
LayerCount: 2
Fore
SplineSet
661 5 m 1,0,1
 645.013605442 -17.380952381 645.013605442 -17.380952381 615.095238095 -17.380952381 c 0,2,3
 606.619047619 -17.380952381 606.619047619 -17.380952381 599 -15 c 1,4,5
 577.027444254 35.2229845626 577.027444254 35.2229845626 562.5 161.5 c 0,6,7
 556 218 556 218 551 247 c 1,8,9
 441.814814815 251.481481481 441.814814815 251.481481481 332.87037037 251.481481481 c 128,-1,10
 223.925925926 251.481481481 223.925925926 251.481481481 138 242 c 1,11,12
 129 201 129 201 118.5 119.5 c 128,-1,13
 108 38 108 38 103 10 c 1,14,15
 82.5689655172 -6.34482758621 82.5689655172 -6.34482758621 57.8275862069 -6.34482758621 c 0,16,17
 49.3793103448 -6.34482758621 49.3793103448 -6.34482758621 38 2 c 1,18,19
 41 26 41 26 54.2211055276 140.582914573 c 128,-1,20
 67.4422110553 255.165829146 67.4422110553 255.165829146 88.5 355.5 c 0,21,22
 136.72319202 585.269326683 136.72319202 585.269326683 233 665.5 c 0,23,24
 294.8 717 294.8 717 372 717 c 0,25,26
 441 717 441 717 489.5 661 c 128,-1,27
 538 605 538 605 563 514 c 128,-1,28
 588 423 588 423 603 331 c 128,-1,29
 618 239 618 239 632 143 c 128,-1,30
 646 47 646 47 661 5 c 1,0,1
267 621 m 128,-1,32
 226 578 226 578 202.5 513.5 c 0,33,34
 159.176870748 394.591836735 159.176870748 394.591836735 148 294 c 1,35,36
 248.181818182 304.939393939 248.181818182 304.939393939 349 304.939393939 c 128,-1,37
 449.818181818 304.939393939 449.818181818 304.939393939 544 299 c 1,38,39
 540 314 540 314 529 370 c 128,-1,40
 518 426 518 426 506.5 468.5 c 128,-1,41
 495 511 495 511 475.5 560 c 128,-1,42
 456 609 456 609 426 636.5 c 128,-1,43
 396 664 396 664 352 664 c 128,-1,31
 308 664 308 664 267 621 c 128,-1,32
479 814 m 0,44,45
 492.493182629 809.373765956 492.493182629 809.373765956 492.493182629 799.690924838 c 0,46,47
 492.493182629 792.721226002 492.493182629 792.721226002 481.779156478 778.024673025 c 128,-1,48
 471.065130327 763.328120047 471.065130327 763.328120047 453.598689893 763.328120047 c 0,49,50
 448.495748992 763.328120047 448.495748992 763.328120047 445 765 c 0,51,52
 363 794 363 794 262 875 c 0,53,54
 254.615384615 880.538461538 254.615384615 880.538461538 254.615384615 886.884615385 c 128,-1,55
 254.615384615 893.230769231 254.615384615 893.230769231 259.807692308 903.615384615 c 0,56,57
 269.065217391 922.130434783 269.065217391 922.130434783 293.661625709 922.130434783 c 0,58,59
 300.739130435 922.130434783 300.739130435 922.130434783 307 919 c 1,60,61
 407 840 407 840 479 814 c 0,44,45
EndSplineSet
EndChar

StartChar: Atilde
Encoding: 195 195 98
Width: 694
Flags: HMW
HStem: 247 52 664 53<286.5 425.5> 764 50<418 443.5> 814 52<290.5 314>
LayerCount: 2
Fore
SplineSet
661 5 m 1,0,1
 645.013605442 -17.380952381 645.013605442 -17.380952381 615.095238095 -17.380952381 c 0,2,3
 606.619047619 -17.380952381 606.619047619 -17.380952381 599 -15 c 1,4,5
 577.027444254 35.2229845626 577.027444254 35.2229845626 562.5 161.5 c 0,6,7
 556 218 556 218 551 247 c 1,8,9
 441.814814815 251.481481481 441.814814815 251.481481481 332.87037037 251.481481481 c 128,-1,10
 223.925925926 251.481481481 223.925925926 251.481481481 138 242 c 1,11,12
 129 201 129 201 118.5 119.5 c 128,-1,13
 108 38 108 38 103 10 c 1,14,15
 82.5689655172 -6.34482758621 82.5689655172 -6.34482758621 57.8275862069 -6.34482758621 c 0,16,17
 49.3793103448 -6.34482758621 49.3793103448 -6.34482758621 38 2 c 1,18,19
 41 26 41 26 54.2211055276 140.582914573 c 128,-1,20
 67.4422110553 255.165829146 67.4422110553 255.165829146 88.5 355.5 c 0,21,22
 136.72319202 585.269326683 136.72319202 585.269326683 233 665.5 c 0,23,24
 294.8 717 294.8 717 372 717 c 0,25,26
 441 717 441 717 489.5 661 c 128,-1,27
 538 605 538 605 563 514 c 128,-1,28
 588 423 588 423 603 331 c 128,-1,29
 618 239 618 239 632 143 c 128,-1,30
 646 47 646 47 661 5 c 1,0,1
267 621 m 128,-1,32
 226 578 226 578 202.5 513.5 c 0,33,34
 159.176870748 394.591836735 159.176870748 394.591836735 148 294 c 1,35,36
 248.181818182 304.939393939 248.181818182 304.939393939 349 304.939393939 c 128,-1,37
 449.818181818 304.939393939 449.818181818 304.939393939 544 299 c 1,38,39
 540 314 540 314 529 370 c 128,-1,40
 518 426 518 426 506.5 468.5 c 128,-1,41
 495 511 495 511 475.5 560 c 128,-1,42
 456 609 456 609 426 636.5 c 128,-1,43
 396 664 396 664 352 664 c 128,-1,31
 308 664 308 664 267 621 c 128,-1,32
248 779 m 0,44,45
 236.616962913 766.194083277 236.616962913 766.194083277 207.699666987 766.194083277 c 128,-1,46
 178.782371061 766.194083277 178.782371061 766.194083277 178.782371061 779.387439561 c 0,47,48
 178.782371061 784.248687811 178.782371061 784.248687811 183 790 c 0,49,50
 247 866 247 866 303 866 c 0,51,52
 335 866 335 866 378 840 c 128,-1,53
 421 814 421 814 431 814 c 128,-1,54
 441 814 441 814 447.5 820 c 128,-1,55
 454 826 454 826 458 832 c 0,56,57
 466 844 466 844 477 866 c 1,58,59
 486.420129767 881.941758067 486.420129767 881.941758067 515.038524099 881.941758067 c 0,60,61
 516.862988874 881.941758067 516.862988874 881.941758067 518.7654802 881.876966773 c 0,62,63
 546.555946027 880.930533949 546.555946027 880.930533949 544.862235712 863.14387362 c 1,64,-1
 542 854 l 1,65,66
 498 764 498 764 421 764 c 0,67,68
 395 764 395 764 353.5 789 c 128,-1,69
 312 814 312 814 299 814 c 0,70,71
 277 814 277 814 248 779 c 0,44,45
EndSplineSet
EndChar

StartChar: Acircumflex
Encoding: 194 194 99
Width: 694
Flags: HMW
HStem: 247 52 664 53<286.5 425.5> 771 110<198 372>
LayerCount: 2
Fore
SplineSet
661 5 m 1,0,1
 645.013605442 -17.380952381 645.013605442 -17.380952381 615.095238095 -17.380952381 c 0,2,3
 606.619047619 -17.380952381 606.619047619 -17.380952381 599 -15 c 1,4,5
 577.027444254 35.2229845626 577.027444254 35.2229845626 562.5 161.5 c 0,6,7
 556 218 556 218 551 247 c 1,8,9
 441.814814815 251.481481481 441.814814815 251.481481481 332.87037037 251.481481481 c 128,-1,10
 223.925925926 251.481481481 223.925925926 251.481481481 138 242 c 1,11,12
 129 201 129 201 118.5 119.5 c 128,-1,13
 108 38 108 38 103 10 c 1,14,15
 82.5689655172 -6.34482758621 82.5689655172 -6.34482758621 57.8275862069 -6.34482758621 c 0,16,17
 49.3793103448 -6.34482758621 49.3793103448 -6.34482758621 38 2 c 1,18,19
 41 26 41 26 54.2211055276 140.582914573 c 128,-1,20
 67.4422110553 255.165829146 67.4422110553 255.165829146 88.5 355.5 c 0,21,22
 136.72319202 585.269326683 136.72319202 585.269326683 233 665.5 c 0,23,24
 294.8 717 294.8 717 372 717 c 0,25,26
 441 717 441 717 489.5 661 c 128,-1,27
 538 605 538 605 563 514 c 128,-1,28
 588 423 588 423 603 331 c 128,-1,29
 618 239 618 239 632 143 c 128,-1,30
 646 47 646 47 661 5 c 1,0,1
267 621 m 128,-1,32
 226 578 226 578 202.5 513.5 c 0,33,34
 159.176870748 394.591836735 159.176870748 394.591836735 148 294 c 1,35,36
 248.181818182 304.939393939 248.181818182 304.939393939 349 304.939393939 c 128,-1,37
 449.818181818 304.939393939 449.818181818 304.939393939 544 299 c 1,38,39
 540 314 540 314 529 370 c 128,-1,40
 518 426 518 426 506.5 468.5 c 128,-1,41
 495 511 495 511 475.5 560 c 128,-1,42
 456 609 456 609 426 636.5 c 128,-1,43
 396 664 396 664 352 664 c 128,-1,31
 308 664 308 664 267 621 c 128,-1,32
296 867.5 m 128,-1,45
 327 881 327 881 363.5 881 c 128,-1,46
 400 881 400 881 423.5 869.5 c 128,-1,47
 447 858 447 858 460.5 844 c 128,-1,48
 474 830 474 830 491 811 c 128,-1,49
 508 792 508 792 520 783 c 0,50,51
 523.125 779.875 523.125 779.875 523.125 777.091796875 c 0,52,53
 523.125 770.96875 523.125 770.96875 504.5625 765.484375 c 128,-1,54
 486 760 486 760 467 760 c 128,-1,55
 448 760 448 760 408.5 800.5 c 128,-1,56
 369 841 369 841 351 849 c 1,57,58
 339 842 339 842 314 819 c 128,-1,59
 289 796 289 796 263 783.5 c 128,-1,60
 237 771 237 771 207.837119114 771 c 128,-1,61
 178.674238227 771 178.674238227 771 178.122321038 777.307625018 c 1,62,-1
 180 781 l 1,63,64
 186 785 186 785 225.5 819.5 c 128,-1,44
 265 854 265 854 296 867.5 c 128,-1,45
EndSplineSet
EndChar

StartChar: Aacute
Encoding: 193 193 100
Width: 694
Flags: HMW
HStem: 247 52 664 53<286.5 425.5>
LayerCount: 2
Fore
SplineSet
661 5 m 1,0,1
 645.013605442 -17.380952381 645.013605442 -17.380952381 615.095238095 -17.380952381 c 0,2,3
 606.619047619 -17.380952381 606.619047619 -17.380952381 599 -15 c 1,4,5
 577.027444254 35.2229845626 577.027444254 35.2229845626 562.5 161.5 c 0,6,7
 556 218 556 218 551 247 c 1,8,9
 441.814814815 251.481481481 441.814814815 251.481481481 332.87037037 251.481481481 c 128,-1,10
 223.925925926 251.481481481 223.925925926 251.481481481 138 242 c 1,11,12
 129 201 129 201 118.5 119.5 c 128,-1,13
 108 38 108 38 103 10 c 1,14,15
 82.5689655172 -6.34482758621 82.5689655172 -6.34482758621 57.8275862069 -6.34482758621 c 0,16,17
 49.3793103448 -6.34482758621 49.3793103448 -6.34482758621 38 2 c 1,18,19
 41 26 41 26 54.2211055276 140.582914573 c 128,-1,20
 67.4422110553 255.165829146 67.4422110553 255.165829146 88.5 355.5 c 0,21,22
 136.72319202 585.269326683 136.72319202 585.269326683 233 665.5 c 0,23,24
 294.8 717 294.8 717 372 717 c 0,25,26
 441 717 441 717 489.5 661 c 128,-1,27
 538 605 538 605 563 514 c 128,-1,28
 588 423 588 423 603 331 c 128,-1,29
 618 239 618 239 632 143 c 128,-1,30
 646 47 646 47 661 5 c 1,0,1
267 621 m 128,-1,32
 226 578 226 578 202.5 513.5 c 0,33,34
 159.176870748 394.591836735 159.176870748 394.591836735 148 294 c 1,35,36
 248.181818182 304.939393939 248.181818182 304.939393939 349 304.939393939 c 128,-1,37
 449.818181818 304.939393939 449.818181818 304.939393939 544 299 c 1,38,39
 540 314 540 314 529 370 c 128,-1,40
 518 426 518 426 506.5 468.5 c 128,-1,41
 495 511 495 511 475.5 560 c 128,-1,42
 456 609 456 609 426 636.5 c 128,-1,43
 396 664 396 664 352 664 c 128,-1,31
 308 664 308 664 267 621 c 128,-1,32
317.5 871.5 m 128,-1,45
 385 914 385 914 398.894461694 923.371538559 c 128,-1,46
 412.788923388 932.743077118 412.788923388 932.743077118 426.582386143 932.743077118 c 128,-1,47
 440.375848897 932.743077118 440.375848897 932.743077118 457.810734017 927.437603541 c 128,-1,48
 475.245619137 922.132129964 475.245619137 922.132129964 475.245619137 913.818438659 c 0,49,50
 475.245619137 908.117717424 475.245619137 908.117717424 463.622809569 900.058858712 c 128,-1,51
 452 892 452 892 384 848.5 c 128,-1,52
 316 805 316 805 282 779 c 0,53,54
 274.076099183 772.744288829 274.076099183 772.744288829 261.265370103 772.744288829 c 128,-1,55
 248.454641023 772.744288829 248.454641023 772.744288829 229.099828878 778.68898113 c 128,-1,56
 209.745016734 784.633673432 209.745016734 784.633673432 209.745016734 793.36713551 c 0,57,58
 209.745016734 797.11590147 209.745016734 797.11590147 216 803 c 0,59,44
 250 829 250 829 317.5 871.5 c 128,-1,45
EndSplineSet
EndChar

StartChar: AE
Encoding: 198 198 101
Width: 985
Flags: HMW
HStem: 11 21G<33 48.5> 27 64 236 50 345 67 644 55 644 71
VStem: 513 66
LayerCount: 2
Fore
SplineSet
584 345 m 1,0,1
 584 339 584 339 579 84 c 1,2,3
 598 85 598 85 907 91 c 0,4,5
 931.169997025 91 931.169997025 91 942.987978963 68.2539444027 c 0,6,7
 947.235023086 60.079663696 947.235023086 60.079663696 947.235023086 53.8856538903 c 0,8,9
 947.235023086 37.6523879377 947.235023086 37.6523879377 923 36 c 0,10,11
 854 30 854 30 728 29.5 c 128,-1,12
 602 29 602 29 560 27 c 1,13,14
 514 27 514 27 514 80 c 1,15,-1
 517 236 l 1,16,17
 477 236 477 236 388.175 230.05 c 128,-1,18
 299.35 224.1 299.35 224.1 263.725 224.1 c 128,-1,19
 228.1 224.1 228.1 224.1 211 225 c 1,20,21
 117 104 117 104 67 23 c 0,22,23
 59 11 59 11 42.5 11 c 128,-1,24
 26 11 26 11 15.08 23.09 c 128,-1,25
 4.16 35.18 4.16 35.18 4.16 43.07 c 128,-1,26
 4.16 50.96 4.16 50.96 9 58 c 0,27,28
 67 131 67 131 154 254.5 c 128,-1,29
 241 378 241 378 322.5 486 c 128,-1,30
 404 594 404 594 485 681 c 0,31,32
 502 699 502 699 558 699 c 128,-1,33
 614 699 614 699 907 715 c 1,34,35
 933.013691542 715 933.013691542 715 943.831359329 691.72708637 c 0,36,37
 947.222727621 684.430964611 947.222727621 684.430964611 947.222727621 678.654433775 c 0,38,39
 947.222727621 664.479074386 947.222727621 664.479074386 923 659 c 1,40,41
 840.632508834 647.869257951 840.632508834 647.869257951 780.816254417 646.934628975 c 0,42,43
 593 644 593 644 562 644 c 1,44,45
 579 544 579 544 583 403 c 1,46,47
 655 412 655 412 772 412 c 0,48,49
 854 412 854 412 854 375 c 0,50,51
 854 352 854 352 830 352 c 0,52,53
 784 352 784 352 584 345 c 1,0,1
255 281 m 1,54,-1
 518 292 l 1,55,-1
 509 605 l 1,56,57
 455 544 455 544 360.5 419.5 c 128,-1,58
 266 295 266 295 255 281 c 1,54,-1
EndSplineSet
EndChar

StartChar: Ccedilla
Encoding: 199 199 102
Width: 736
Flags: HMW
HStem: -217 37<276.5 310> -217 76<204.5 310> -83 30<318.5 364.5> -6 45 655 50<339.5 448>
VStem: 48 66<219.5 383.5> 273 163<-150.5 -64.5> 368 68<-142.5 -113.5>
LayerCount: 2
Fore
SplineSet
722 171 m 1,0,1
 681 90 681 90 584.5 43.5 c 128,-1,2
 488 -3 488 -3 372 -6 c 1,3,4
 369 -12 369 -12 359 -28 c 128,-1,5
 349 -44 349 -44 345 -53 c 1,6,7
 380 -53 380 -53 408 -68.5 c 128,-1,8
 436 -84 436 -84 436 -115 c 0,9,10
 436 -165 436 -165 386.5 -191 c 128,-1,11
 337 -217 337 -217 268 -217 c 128,-1,12
 199 -217 199 -217 169 -168 c 1,13,14
 169 -159 169 -159 184 -150 c 128,-1,15
 199 -141 199 -141 217 -141 c 0,16,17
 224 -141 224 -141 248.5 -160.5 c 128,-1,18
 273 -180 273 -180 302 -180 c 128,-1,19
 331 -180 331 -180 349.5 -165.5 c 128,-1,20
 368 -151 368 -151 368 -129.5 c 128,-1,21
 368 -108 368 -108 354 -95.5 c 128,-1,22
 340 -83 340 -83 323 -83 c 0,23,24
 322 -83 322 -83 307 -85 c 0,25,26
 273 -89.5333333333 273 -89.5333333333 273 -79 c 0,27,28
 273 -40 273 -40 313 -4 c 1,29,30
 196 7 196 7 122 77 c 128,-1,31
 48 147 48 147 48 271 c 0,32,33
 48 355 48 355 76 433.5 c 128,-1,34
 104 512 104 512 153.5 572.5 c 128,-1,35
 203 633 203 633 277.5 669 c 128,-1,36
 352 705 352 705 439 705 c 0,37,38
 594 705 594 705 645 565 c 1,39,40
 630 551 630 551 619 545 c 128,-1,41
 608 539 608 539 597.5 544 c 128,-1,42
 587 549 587 549 583 552 c 128,-1,43
 579 555 579 555 567.5 571.5 c 128,-1,44
 556 588 556 588 553 592 c 0,45,46
 502 655 502 655 421.5 655 c 128,-1,47
 341 655 341 655 270.5 603.5 c 128,-1,48
 200 552 200 552 157 468 c 128,-1,49
 114 384 114 384 114 293 c 0,50,51
 114 181 114 181 188.5 110 c 128,-1,52
 263 39 263 39 386.5 39 c 128,-1,53
 510 39 510 39 603 108 c 0,54,55
 617.807692308 118.769230769 617.807692308 118.769230769 635.403846154 139.884615385 c 128,-1,56
 653 161 653 161 665.5 170 c 128,-1,57
 678 179 678 179 689.5 178 c 128,-1,58
 701 177 701 177 722 171 c 1,0,1
EndSplineSet
EndChar

StartChar: Eacute
Encoding: 201 201 103
Width: 630
Flags: HMW
HStem: 1 63 314 60<355 406.5> 651 64<463.5 506.5 432.5 539.5>
VStem: 84 71
LayerCount: 2
Fore
SplineSet
303.6875 653.625 m 2,0,1
 221.5 653.625 221.5 653.625 166 649 c 1,2,3
 155.4 592.971428571 155.4 592.971428571 155.4 488.42 c 2,4,-1
 155.666666667 443 l 2,5,6
 155.666666667 413.666666667 155.666666667 413.666666667 155 381 c 1,7,8
 201.4 373 201.4 373 275 373 c 2,9,-1
 409.782206651 374.090334197 l 2,10,11
 482 374.090334197 482 374.090334197 482 352 c 0,12,13
 482 314 482 314 385 314 c 1,14,-1
 158 321 l 1,15,16
 157 297 157 297 155.459183673 207.632653061 c 128,-1,17
 153.918367347 118.265306122 153.918367347 118.265306122 147 56 c 1,18,19
 210.846153846 52.1538461538 210.846153846 52.1538461538 253.784615385 52.1538461538 c 128,-1,20
 296.723076923 52.1538461538 296.723076923 52.1538461538 409 59 c 0,21,22
 491 64 491 64 531.5 64 c 128,-1,23
 572 64 572 64 587 58.5 c 128,-1,24
 602 53 602 53 602 37.3333333333 c 128,-1,25
 602 21.6666666667 602 21.6666666667 593.5 16 c 0,26,27
 589 13 589 13 584 10.5 c 128,-1,28
 579 8 579 8 571.5 6.5 c 128,-1,29
 564 5 564 5 558.5 4 c 128,-1,30
 553 3 553 3 543.5 2.5 c 128,-1,31
 534 2 534 2 528.5 1.5 c 128,-1,32
 523 1 523 1 513.5 1 c 128,-1,33
 504 1 504 1 404 -3.66666666667 c 128,-1,34
 304 -8.33333333333 304 -8.33333333333 249.333333333 -8.33333333333 c 0,35,36
 84 -8.33333333333 84 -8.33333333333 84 38 c 0,37,38
 82.3666666667 130.866666667 82.3666666667 130.866666667 82.3666666667 215.131111111 c 0,39,40
 82.3666666667 492 82.3666666667 492 100 676 c 1,41,42
 110 692 110 692 149.71875 704.8125 c 128,-1,43
 189.4375 717.625 189.4375 717.625 333.15625 717.625 c 1,44,-1
 487 715 l 1,45,46
 564 715 564 715 593 697 c 1,47,48
 590 669 590 669 572 660 c 128,-1,49
 554 651 554 651 520 651 c 2,50,-1
 303.6875 653.625 l 2,0,1
335.5 872.5 m 128,-1,52
 403 915 403 915 416.894461694 924.371538559 c 128,-1,53
 430.788923388 933.743077118 430.788923388 933.743077118 444.582386143 933.743077118 c 128,-1,54
 458.375848897 933.743077118 458.375848897 933.743077118 475.810734017 928.437603541 c 128,-1,55
 493.245619137 923.132129964 493.245619137 923.132129964 493.245619137 914.818438659 c 0,56,57
 493.245619137 909.117717424 493.245619137 909.117717424 481.622809569 901.058858712 c 128,-1,58
 470 893 470 893 402 849.5 c 128,-1,59
 334 806 334 806 300 780 c 0,60,61
 292.076099183 773.744288829 292.076099183 773.744288829 279.265370103 773.744288829 c 128,-1,62
 266.454641023 773.744288829 266.454641023 773.744288829 247.099828878 779.68898113 c 128,-1,63
 227.745016734 785.633673432 227.745016734 785.633673432 227.745016734 794.36713551 c 0,64,65
 227.745016734 798.11590147 227.745016734 798.11590147 234 804 c 0,66,51
 268 830 268 830 335.5 872.5 c 128,-1,52
EndSplineSet
EndChar

StartChar: Ecircumflex
Encoding: 202 202 104
Width: 630
Flags: HMW
HStem: 1 63 64 250<347.5 558> 314 60<355 406.5> 651 64<463.5 506.5 432.5 539.5> 778 110<186 360>
VStem: 84 71
LayerCount: 2
Fore
SplineSet
303.6875 653.625 m 2,0,1
 221.5 653.625 221.5 653.625 166 649 c 1,2,3
 155.4 592.971428571 155.4 592.971428571 155.4 488.42 c 2,4,-1
 155.666666667 443 l 2,5,6
 155.666666667 413.666666667 155.666666667 413.666666667 155 381 c 1,7,8
 201.4 373 201.4 373 275 373 c 2,9,-1
 409.782206651 374.090334197 l 2,10,11
 482 374.090334197 482 374.090334197 482 352 c 0,12,13
 482 314 482 314 385 314 c 1,14,-1
 158 321 l 1,15,16
 157 297 157 297 155.459183673 207.632653061 c 128,-1,17
 153.918367347 118.265306122 153.918367347 118.265306122 147 56 c 1,18,19
 210.846153846 52.1538461538 210.846153846 52.1538461538 253.784615385 52.1538461538 c 128,-1,20
 296.723076923 52.1538461538 296.723076923 52.1538461538 409 59 c 0,21,22
 491 64 491 64 531.5 64 c 128,-1,23
 572 64 572 64 587 58.5 c 128,-1,24
 602 53 602 53 602 37.3333333333 c 128,-1,25
 602 21.6666666667 602 21.6666666667 593.5 16 c 0,26,27
 589 13 589 13 584 10.5 c 128,-1,28
 579 8 579 8 571.5 6.5 c 128,-1,29
 564 5 564 5 558.5 4 c 128,-1,30
 553 3 553 3 543.5 2.5 c 128,-1,31
 534 2 534 2 528.5 1.5 c 128,-1,32
 523 1 523 1 513.5 1 c 128,-1,33
 504 1 504 1 404 -3.66666666667 c 128,-1,34
 304 -8.33333333333 304 -8.33333333333 249.333333333 -8.33333333333 c 0,35,36
 84 -8.33333333333 84 -8.33333333333 84 38 c 0,37,38
 82.3666666667 130.866666667 82.3666666667 130.866666667 82.3666666667 215.131111111 c 0,39,40
 82.3666666667 492 82.3666666667 492 100 676 c 1,41,42
 110 692 110 692 149.71875 704.8125 c 128,-1,43
 189.4375 717.625 189.4375 717.625 333.15625 717.625 c 1,44,-1
 487 715 l 1,45,46
 564 715 564 715 593 697 c 1,47,48
 590 669 590 669 572 660 c 128,-1,49
 554 651 554 651 520 651 c 2,50,-1
 303.6875 653.625 l 2,0,1
284 874.5 m 128,-1,52
 315 888 315 888 351.5 888 c 128,-1,53
 388 888 388 888 411.5 876.5 c 128,-1,54
 435 865 435 865 448.5 851 c 128,-1,55
 462 837 462 837 479 818 c 128,-1,56
 496 799 496 799 508 790 c 0,57,58
 511.125 786.875 511.125 786.875 511.125 784.091796875 c 0,59,60
 511.125 777.96875 511.125 777.96875 492.5625 772.484375 c 128,-1,61
 474 767 474 767 455 767 c 128,-1,62
 436 767 436 767 396.5 807.5 c 128,-1,63
 357 848 357 848 339 856 c 1,64,65
 327 849 327 849 302 826 c 128,-1,66
 277 803 277 803 251 790.5 c 128,-1,67
 225 778 225 778 195.837119114 778 c 128,-1,68
 166.674238227 778 166.674238227 778 166.122321038 784.307625018 c 1,69,-1
 168 788 l 1,70,71
 174 792 174 792 213.5 826.5 c 128,-1,51
 253 861 253 861 284 874.5 c 128,-1,52
EndSplineSet
EndChar

StartChar: Edieresis
Encoding: 203 203 105
Width: 630
Flags: HMW
HStem: 1 63 314 60<355 406.5> 651 64<463.5 506.5 432.5 539.5> 778 85<217 222.5> 844 20G<441.5 468>
VStem: 84 71 289 92<812 819.5 793.5 843>
LayerCount: 2
Fore
SplineSet
303.6875 653.625 m 2,0,1
 221.5 653.625 221.5 653.625 166 649 c 1,2,3
 155.4 592.971428571 155.4 592.971428571 155.4 488.42 c 2,4,-1
 155.666666667 443 l 2,5,6
 155.666666667 413.666666667 155.666666667 413.666666667 155 381 c 1,7,8
 201.4 373 201.4 373 275 373 c 2,9,-1
 409.782206651 374.090334197 l 2,10,11
 482 374.090334197 482 374.090334197 482 352 c 0,12,13
 482 314 482 314 385 314 c 1,14,-1
 158 321 l 1,15,16
 157 297 157 297 155.459183673 207.632653061 c 128,-1,17
 153.918367347 118.265306122 153.918367347 118.265306122 147 56 c 1,18,19
 210.846153846 52.1538461538 210.846153846 52.1538461538 253.784615385 52.1538461538 c 128,-1,20
 296.723076923 52.1538461538 296.723076923 52.1538461538 409 59 c 0,21,22
 491 64 491 64 531.5 64 c 128,-1,23
 572 64 572 64 587 58.5 c 128,-1,24
 602 53 602 53 602 37.3333333333 c 128,-1,25
 602 21.6666666667 602 21.6666666667 593.5 16 c 0,26,27
 589 13 589 13 584 10.5 c 128,-1,28
 579 8 579 8 571.5 6.5 c 128,-1,29
 564 5 564 5 558.5 4 c 128,-1,30
 553 3 553 3 543.5 2.5 c 128,-1,31
 534 2 534 2 528.5 1.5 c 128,-1,32
 523 1 523 1 513.5 1 c 128,-1,33
 504 1 504 1 404 -3.66666666667 c 128,-1,34
 304 -8.33333333333 304 -8.33333333333 249.333333333 -8.33333333333 c 0,35,36
 84 -8.33333333333 84 -8.33333333333 84 38 c 0,37,38
 82.3666666667 130.866666667 82.3666666667 130.866666667 82.3666666667 215.131111111 c 0,39,40
 82.3666666667 492 82.3666666667 492 100 676 c 1,41,42
 110 692 110 692 149.71875 704.8125 c 128,-1,43
 189.4375 717.625 189.4375 717.625 333.15625 717.625 c 1,44,-1
 487 715 l 1,45,46
 564 715 564 715 593 697 c 1,47,48
 590 669 590 669 572 660 c 128,-1,49
 554 651 554 651 520 651 c 2,50,-1
 303.6875 653.625 l 2,0,1
240 863 m 0,51,52
 253 863 253 863 271 854.5 c 128,-1,53
 289 846 289 846 289 833 c 0,54,55
 289 804 289 804 263.5 791 c 128,-1,56
 238 778 238 778 201 778 c 128,-1,57
 164 778 164 778 164 801 c 0,58,59
 164 863 164 863 240 863 c 0,51,52
405.5 846 m 128,-1,61
 430 864 430 864 452.5 864 c 128,-1,62
 475 864 475 864 493.5 853.5 c 128,-1,63
 512 843 512 843 512 829 c 0,64,65
 512 804 512 804 480.5 791 c 128,-1,66
 449 778 449 778 426 778 c 0,67,68
 381 778 381 778 381 800 c 0,69,60
 381 828 381 828 405.5 846 c 128,-1,61
EndSplineSet
EndChar

StartChar: Egrave
Encoding: 200 200 106
Width: 630
Flags: HMW
HStem: 1 63 314 60<355 406.5> 651 64<463.5 506.5 432.5 539.5>
VStem: 84 71
LayerCount: 2
Fore
SplineSet
303.6875 653.625 m 2,0,1
 221.5 653.625 221.5 653.625 166 649 c 1,2,3
 155.4 592.971428571 155.4 592.971428571 155.4 488.42 c 2,4,-1
 155.666666667 443 l 2,5,6
 155.666666667 413.666666667 155.666666667 413.666666667 155 381 c 1,7,8
 201.4 373 201.4 373 275 373 c 2,9,-1
 409.782206651 374.090334197 l 2,10,11
 482 374.090334197 482 374.090334197 482 352 c 0,12,13
 482 314 482 314 385 314 c 1,14,-1
 158 321 l 1,15,16
 157 297 157 297 155.459183673 207.632653061 c 128,-1,17
 153.918367347 118.265306122 153.918367347 118.265306122 147 56 c 1,18,19
 210.846153846 52.1538461538 210.846153846 52.1538461538 253.784615385 52.1538461538 c 128,-1,20
 296.723076923 52.1538461538 296.723076923 52.1538461538 409 59 c 0,21,22
 491 64 491 64 531.5 64 c 128,-1,23
 572 64 572 64 587 58.5 c 128,-1,24
 602 53 602 53 602 37.3333333333 c 128,-1,25
 602 21.6666666667 602 21.6666666667 593.5 16 c 0,26,27
 589 13 589 13 584 10.5 c 128,-1,28
 579 8 579 8 571.5 6.5 c 128,-1,29
 564 5 564 5 558.5 4 c 128,-1,30
 553 3 553 3 543.5 2.5 c 128,-1,31
 534 2 534 2 528.5 1.5 c 128,-1,32
 523 1 523 1 513.5 1 c 128,-1,33
 504 1 504 1 404 -3.66666666667 c 128,-1,34
 304 -8.33333333333 304 -8.33333333333 249.333333333 -8.33333333333 c 0,35,36
 84 -8.33333333333 84 -8.33333333333 84 38 c 0,37,38
 82.3666666667 130.866666667 82.3666666667 130.866666667 82.3666666667 215.131111111 c 0,39,40
 82.3666666667 492 82.3666666667 492 100 676 c 1,41,42
 110 692 110 692 149.71875 704.8125 c 128,-1,43
 189.4375 717.625 189.4375 717.625 333.15625 717.625 c 1,44,-1
 487 715 l 1,45,46
 564 715 564 715 593 697 c 1,47,48
 590 669 590 669 572 660 c 128,-1,49
 554 651 554 651 520 651 c 2,50,-1
 303.6875 653.625 l 2,0,1
453 822 m 0,51,52
 466.493182629 817.373765956 466.493182629 817.373765956 466.493182629 807.690924838 c 0,53,54
 466.493182629 800.721226002 466.493182629 800.721226002 455.779156478 786.024673025 c 128,-1,55
 445.065130327 771.328120047 445.065130327 771.328120047 427.598689893 771.328120047 c 0,56,57
 422.495748992 771.328120047 422.495748992 771.328120047 419 773 c 0,58,59
 337 802 337 802 236 883 c 0,60,61
 228.615384615 888.538461538 228.615384615 888.538461538 228.615384615 894.884615385 c 128,-1,62
 228.615384615 901.230769231 228.615384615 901.230769231 233.807692308 911.615384615 c 0,63,64
 243.065217391 930.130434783 243.065217391 930.130434783 267.661625709 930.130434783 c 0,65,66
 274.739130435 930.130434783 274.739130435 930.130434783 281 927 c 1,67,68
 381 848 381 848 453 822 c 0,51,52
EndSplineSet
EndChar

StartChar: Iacute
Encoding: 205 205 107
Width: 244
Flags: HMW
VStem: 83 80
LayerCount: 2
Fore
SplineSet
127.402777778 714.083333333 m 0,0,1
 141 714.083333333 141 714.083333333 163 704 c 1,2,3
 153 252 153 252 152 -2 c 1,4,5
 136.780487805 -18.487804878 136.780487805 -18.487804878 125.256097561 -18.487804878 c 128,-1,6
 113.731707317 -18.487804878 113.731707317 -18.487804878 105.5 -13 c 0,7,8
 83 2 83 2 83 43 c 0,9,10
 85 524 85 524 91 618 c 1,11,12
 91 714.083333333 91 714.083333333 127.402777778 714.083333333 c 0,0,1
101.5 868.5 m 128,-1,14
 169 911 169 911 182.894461694 920.371538559 c 128,-1,15
 196.788923388 929.743077118 196.788923388 929.743077118 210.582386143 929.743077118 c 128,-1,16
 224.375848897 929.743077118 224.375848897 929.743077118 241.810734017 924.437603541 c 128,-1,17
 259.245619137 919.132129964 259.245619137 919.132129964 259.245619137 910.818438659 c 0,18,19
 259.245619137 905.117717424 259.245619137 905.117717424 247.622809569 897.058858712 c 128,-1,20
 236 889 236 889 168 845.5 c 128,-1,21
 100 802 100 802 66 776 c 0,22,23
 58.076099183 769.744288829 58.076099183 769.744288829 45.265370103 769.744288829 c 128,-1,24
 32.454641023 769.744288829 32.454641023 769.744288829 13.0998288783 775.68898113 c 128,-1,25
 -6.25498326631 781.633673432 -6.25498326631 781.633673432 -6.25498326631 790.36713551 c 0,26,27
 -6.25498326631 794.11590147 -6.25498326631 794.11590147 0 800 c 0,28,13
 34 826 34 826 101.5 868.5 c 128,-1,14
EndSplineSet
EndChar

StartChar: Icircumflex
Encoding: 206 206 108
Width: 244
Flags: HMW
HStem: 779 110<-27 147>
VStem: 83 80
LayerCount: 2
Fore
SplineSet
127.402777778 714.083333333 m 0,0,1
 141 714.083333333 141 714.083333333 163 704 c 1,2,3
 153 252 153 252 152 -2 c 1,4,5
 136.780487805 -18.487804878 136.780487805 -18.487804878 125.256097561 -18.487804878 c 128,-1,6
 113.731707317 -18.487804878 113.731707317 -18.487804878 105.5 -13 c 0,7,8
 83 2 83 2 83 43 c 0,9,10
 85 524 85 524 91 618 c 1,11,12
 91 714.083333333 91 714.083333333 127.402777778 714.083333333 c 0,0,1
71 875.5 m 128,-1,14
 102 889 102 889 138.5 889 c 128,-1,15
 175 889 175 889 198.5 877.5 c 128,-1,16
 222 866 222 866 235.5 852 c 128,-1,17
 249 838 249 838 266 819 c 128,-1,18
 283 800 283 800 295 791 c 0,19,20
 298.125 787.875 298.125 787.875 298.125 785.091796875 c 0,21,22
 298.125 778.96875 298.125 778.96875 279.5625 773.484375 c 128,-1,23
 261 768 261 768 242 768 c 128,-1,24
 223 768 223 768 183.5 808.5 c 128,-1,25
 144 849 144 849 126 857 c 1,26,27
 114 850 114 850 89 827 c 128,-1,28
 64 804 64 804 38 791.5 c 128,-1,29
 12 779 12 779 -17.1628808864 779 c 128,-1,30
 -46.3257617729 779 -46.3257617729 779 -46.8776789619 785.307625018 c 1,31,-1
 -45 789 l 1,32,33
 -39 793 -39 793 0.5 827.5 c 128,-1,13
 40 862 40 862 71 875.5 c 128,-1,14
EndSplineSet
EndChar

StartChar: Idieresis
Encoding: 207 207 109
Width: 244
Flags: HMW
HStem: 779 85<12 17.5> 845 20G<236.5 263>
VStem: -41 124 176 131<811 820.5>
LayerCount: 2
Fore
SplineSet
127.402777778 714.083333333 m 0,0,1
 141 714.083333333 141 714.083333333 163 704 c 1,2,3
 153 252 153 252 152 -2 c 1,4,5
 136.780487805 -18.487804878 136.780487805 -18.487804878 125.256097561 -18.487804878 c 128,-1,6
 113.731707317 -18.487804878 113.731707317 -18.487804878 105.5 -13 c 0,7,8
 83 2 83 2 83 43 c 0,9,10
 85 524 85 524 91 618 c 1,11,12
 91 714.083333333 91 714.083333333 127.402777778 714.083333333 c 0,0,1
35 864 m 0,13,14
 48 864 48 864 66 855.5 c 128,-1,15
 84 847 84 847 84 834 c 0,16,17
 84 805 84 805 58.5 792 c 128,-1,18
 33 779 33 779 -4 779 c 128,-1,19
 -41 779 -41 779 -41 802 c 0,20,21
 -41 864 -41 864 35 864 c 0,13,14
200.5 847 m 128,-1,23
 225 865 225 865 247.5 865 c 128,-1,24
 270 865 270 865 288.5 854.5 c 128,-1,25
 307 844 307 844 307 830 c 0,26,27
 307 805 307 805 275.5 792 c 128,-1,28
 244 779 244 779 221 779 c 0,29,30
 176 779 176 779 176 801 c 0,31,22
 176 829 176 829 200.5 847 c 128,-1,23
EndSplineSet
EndChar

StartChar: Igrave
Encoding: 204 204 110
Width: 244
Flags: HMW
VStem: 83 80
LayerCount: 2
Fore
SplineSet
127.402777778 714.083333333 m 0,0,1
 141 714.083333333 141 714.083333333 163 704 c 1,2,3
 153 252 153 252 152 -2 c 1,4,5
 136.780487805 -18.487804878 136.780487805 -18.487804878 125.256097561 -18.487804878 c 128,-1,6
 113.731707317 -18.487804878 113.731707317 -18.487804878 105.5 -13 c 0,7,8
 83 2 83 2 83 43 c 0,9,10
 85 524 85 524 91 618 c 1,11,12
 91 714.083333333 91 714.083333333 127.402777778 714.083333333 c 0,0,1
235 820 m 0,13,14
 248.493182629 815.373765956 248.493182629 815.373765956 248.493182629 805.690924838 c 0,15,16
 248.493182629 798.721226002 248.493182629 798.721226002 237.779156478 784.024673025 c 128,-1,17
 227.065130327 769.328120047 227.065130327 769.328120047 209.598689893 769.328120047 c 0,18,19
 204.495748992 769.328120047 204.495748992 769.328120047 201 771 c 0,20,21
 119 800 119 800 18 881 c 0,22,23
 10.6153846154 886.538461538 10.6153846154 886.538461538 10.6153846154 892.884615385 c 128,-1,24
 10.6153846154 899.230769231 10.6153846154 899.230769231 15.8076923077 909.615384615 c 0,25,26
 25.0652173913 928.130434783 25.0652173913 928.130434783 49.6616257089 928.130434783 c 0,27,28
 56.7391304348 928.130434783 56.7391304348 928.130434783 63 925 c 1,29,30
 163 846 163 846 235 820 c 0,13,14
EndSplineSet
EndChar

StartChar: Ntilde
Encoding: 209 209 111
Width: 781
Flags: HMW
HStem: -20 21G<88 102.5> 755 50<464 489.5> 805 52<336.5 360>
VStem: 88 68 620 71
LayerCount: 2
Fore
SplineSet
689.8 25.72 m 2,0,1
 689.8 5.6 689.8 5.6 690 -12 c 1,2,3
 661.991803279 -30.6721311475 661.991803279 -30.6721311475 633.714285714 -34.3928571429 c 0,4,5
 627.607142857 -34.3928571429 627.607142857 -34.3928571429 619.803571429 -30.6964285714 c 128,-1,6
 612 -27 612 -27 606.5 -24.5 c 128,-1,7
 601 -22 601 -22 592 -10.5 c 128,-1,8
 583 1 583 1 580 6 c 128,-1,9
 577 11 577 11 566.5 28 c 128,-1,10
 556 45 556 45 552 51.5 c 128,-1,11
 548 58 548 58 494.831210191 143.576433121 c 128,-1,12
 441.662420382 229.152866242 441.662420382 229.152866242 369.5 337 c 0,13,14
 260.375128999 500.087719298 260.375128999 500.087719298 156 596 c 1,15,16
 160.761904762 465.047619048 160.761904762 465.047619048 160.761904762 316.119047619 c 128,-1,17
 160.761904762 167.19047619 160.761904762 167.19047619 155 -2 c 1,18,19
 143 -20 143 -20 88 -20 c 1,20,21
 88 545 88 545 84 676 c 1,22,23
 103.439814815 694.296296296 103.439814815 694.296296296 123.718106996 694.296296296 c 0,24,25
 155.703703704 694.296296296 155.703703704 694.296296296 214 636 c 0,26,27
 320 530 320 530 414.5 395 c 128,-1,28
 509 260 509 260 620 78 c 1,29,30
 620 185 620 185 624.5 391.5 c 128,-1,31
 629 598 629 598 629 698 c 1,32,33
 645.48 714.48 645.48 714.48 663.2 714.48 c 128,-1,34
 680.92 714.48 680.92 714.48 691 708 c 1,35,36
 698.111111111 574.666666667 698.111111111 574.666666667 698.111111111 488.740740741 c 1,37,-1
 689.8 25.72 l 2,0,1
294 770 m 0,38,39
 282.616962913 757.194083277 282.616962913 757.194083277 253.699666987 757.194083277 c 128,-1,40
 224.782371061 757.194083277 224.782371061 757.194083277 224.782371061 770.387439561 c 0,41,42
 224.782371061 775.248687811 224.782371061 775.248687811 229 781 c 0,43,44
 293 857 293 857 349 857 c 0,45,46
 381 857 381 857 424 831 c 128,-1,47
 467 805 467 805 477 805 c 128,-1,48
 487 805 487 805 493.5 811 c 128,-1,49
 500 817 500 817 504 823 c 0,50,51
 512 835 512 835 523 857 c 1,52,53
 532.420129767 872.941758067 532.420129767 872.941758067 561.038524099 872.941758067 c 0,54,55
 562.862988874 872.941758067 562.862988874 872.941758067 564.7654802 872.876966773 c 0,56,57
 592.555946027 871.930533949 592.555946027 871.930533949 590.862235712 854.14387362 c 1,58,-1
 588 845 l 1,59,60
 544 755 544 755 467 755 c 0,61,62
 441 755 441 755 399.5 780 c 128,-1,63
 358 805 358 805 345 805 c 0,64,65
 323 805 323 805 294 770 c 0,38,39
EndSplineSet
EndChar

StartChar: Odieresis
Encoding: 214 214 112
Width: 815
Flags: HMW
HStem: -20 53<302.5 474.5> 629 59<323.5 478> 752 85<281 286.5> 818 20G<505.5 532>
VStem: 49 66<230 424 230 442.5> 49 179 353 92<786 793.5 767.5 817> 576 191 696 71<251 428.5>
LayerCount: 2
Fore
SplineSet
732 189 m 128,-1,1
 697 114 697 114 641 70 c 0,2,3
 526.454545455 -20 526.454545455 -20 392 -20 c 0,4,5
 247 -20 247 -20 148 70.5 c 128,-1,6
 49 161 49 161 49 318 c 0,7,8
 49 437 49 437 100.5 523 c 128,-1,9
 152 609 152 609 231 648.5 c 128,-1,10
 310 688 310 688 404 688 c 0,11,12
 544.1 688 544.1 688 652 605 c 0,13,14
 704 565 704 565 735.5 500.5 c 128,-1,15
 767 436 767 436 767 350 c 128,-1,0
 767 264 767 264 732 189 c 128,-1,1
115 316 m 0,16,17
 115 187 115 187 188.5 110 c 128,-1,18
 262 33 262 33 384 33 c 0,19,20
 525 33 525 33 610.5 119.5 c 128,-1,21
 696 206 696 206 696 338.5 c 128,-1,22
 696 471 696 471 610 550 c 128,-1,23
 524 629 524 629 401 629 c 128,-1,24
 278 629 278 629 196.5 548.5 c 128,-1,25
 115 468 115 468 115 316 c 0,16,17
304 837 m 0,26,27
 317 837 317 837 335 828.5 c 128,-1,28
 353 820 353 820 353 807 c 0,29,30
 353 778 353 778 327.5 765 c 128,-1,31
 302 752 302 752 265 752 c 128,-1,32
 228 752 228 752 228 775 c 0,33,34
 228 837 228 837 304 837 c 0,26,27
469.5 820 m 128,-1,36
 494 838 494 838 516.5 838 c 128,-1,37
 539 838 539 838 557.5 827.5 c 128,-1,38
 576 817 576 817 576 803 c 0,39,40
 576 778 576 778 544.5 765 c 128,-1,41
 513 752 513 752 490 752 c 0,42,43
 445 752 445 752 445 774 c 0,44,35
 445 802 445 802 469.5 820 c 128,-1,36
EndSplineSet
EndChar

StartChar: Oacute
Encoding: 211 211 113
Width: 815
Flags: HMW
HStem: -20 53<302.5 474.5> 629 59<323.5 478>
VStem: 49 66<230 424 230 442.5> 696 71<251 428.5>
LayerCount: 2
Fore
SplineSet
732 189 m 128,-1,1
 697 114 697 114 641 70 c 0,2,3
 526.454545455 -20 526.454545455 -20 392 -20 c 0,4,5
 247 -20 247 -20 148 70.5 c 128,-1,6
 49 161 49 161 49 318 c 0,7,8
 49 437 49 437 100.5 523 c 128,-1,9
 152 609 152 609 231 648.5 c 128,-1,10
 310 688 310 688 404 688 c 0,11,12
 544.1 688 544.1 688 652 605 c 0,13,14
 704 565 704 565 735.5 500.5 c 128,-1,15
 767 436 767 436 767 350 c 128,-1,0
 767 264 767 264 732 189 c 128,-1,1
115 316 m 0,16,17
 115 187 115 187 188.5 110 c 128,-1,18
 262 33 262 33 384 33 c 0,19,20
 525 33 525 33 610.5 119.5 c 128,-1,21
 696 206 696 206 696 338.5 c 128,-1,22
 696 471 696 471 610 550 c 128,-1,23
 524 629 524 629 401 629 c 128,-1,24
 278 629 278 629 196.5 548.5 c 128,-1,25
 115 468 115 468 115 316 c 0,16,17
377.5 851.5 m 128,-1,27
 445 894 445 894 458.894461694 903.371538559 c 128,-1,28
 472.788923388 912.743077118 472.788923388 912.743077118 486.582386143 912.743077118 c 128,-1,29
 500.375848897 912.743077118 500.375848897 912.743077118 517.810734017 907.437603541 c 128,-1,30
 535.245619137 902.132129964 535.245619137 902.132129964 535.245619137 893.818438659 c 0,31,32
 535.245619137 888.117717424 535.245619137 888.117717424 523.622809569 880.058858712 c 128,-1,33
 512 872 512 872 444 828.5 c 128,-1,34
 376 785 376 785 342 759 c 0,35,36
 334.076099183 752.744288829 334.076099183 752.744288829 321.265370103 752.744288829 c 128,-1,37
 308.454641023 752.744288829 308.454641023 752.744288829 289.099828878 758.68898113 c 128,-1,38
 269.745016734 764.633673432 269.745016734 764.633673432 269.745016734 773.36713551 c 0,39,40
 269.745016734 777.11590147 269.745016734 777.11590147 276 783 c 0,41,26
 310 809 310 809 377.5 851.5 c 128,-1,27
EndSplineSet
EndChar

StartChar: Ocircumflex
Encoding: 212 212 114
Width: 815
Flags: HMW
HStem: -20 53<302.5 474.5> 629 59<323.5 478> 760 110<242 416>
VStem: 49 66<230 424 230 442.5> 696 71<251 428.5>
LayerCount: 2
Fore
SplineSet
732 189 m 128,-1,1
 697 114 697 114 641 70 c 0,2,3
 526.454545455 -20 526.454545455 -20 392 -20 c 0,4,5
 247 -20 247 -20 148 70.5 c 128,-1,6
 49 161 49 161 49 318 c 0,7,8
 49 437 49 437 100.5 523 c 128,-1,9
 152 609 152 609 231 648.5 c 128,-1,10
 310 688 310 688 404 688 c 0,11,12
 544.1 688 544.1 688 652 605 c 0,13,14
 704 565 704 565 735.5 500.5 c 128,-1,15
 767 436 767 436 767 350 c 128,-1,0
 767 264 767 264 732 189 c 128,-1,1
115 316 m 0,16,17
 115 187 115 187 188.5 110 c 128,-1,18
 262 33 262 33 384 33 c 0,19,20
 525 33 525 33 610.5 119.5 c 128,-1,21
 696 206 696 206 696 338.5 c 128,-1,22
 696 471 696 471 610 550 c 128,-1,23
 524 629 524 629 401 629 c 128,-1,24
 278 629 278 629 196.5 548.5 c 128,-1,25
 115 468 115 468 115 316 c 0,16,17
340 856.5 m 128,-1,27
 371 870 371 870 407.5 870 c 128,-1,28
 444 870 444 870 467.5 858.5 c 128,-1,29
 491 847 491 847 504.5 833 c 128,-1,30
 518 819 518 819 535 800 c 128,-1,31
 552 781 552 781 564 772 c 0,32,33
 567.125 768.875 567.125 768.875 567.125 766.091796875 c 0,34,35
 567.125 759.96875 567.125 759.96875 548.5625 754.484375 c 128,-1,36
 530 749 530 749 511 749 c 128,-1,37
 492 749 492 749 452.5 789.5 c 128,-1,38
 413 830 413 830 395 838 c 1,39,40
 383 831 383 831 358 808 c 128,-1,41
 333 785 333 785 307 772.5 c 128,-1,42
 281 760 281 760 251.837119114 760 c 128,-1,43
 222.674238227 760 222.674238227 760 222.122321038 766.307625018 c 1,44,-1
 224 770 l 1,45,46
 230 774 230 774 269.5 808.5 c 128,-1,26
 309 843 309 843 340 856.5 c 128,-1,27
EndSplineSet
EndChar

StartChar: Ograve
Encoding: 210 210 115
Width: 815
Flags: HMW
HStem: -20 53<302.5 474.5> 629 59<323.5 478>
VStem: 49 66<230 424 230 442.5> 696 71<251 428.5>
LayerCount: 2
Fore
SplineSet
732 189 m 128,-1,1
 697 114 697 114 641 70 c 0,2,3
 526.454545455 -20 526.454545455 -20 392 -20 c 0,4,5
 247 -20 247 -20 148 70.5 c 128,-1,6
 49 161 49 161 49 318 c 0,7,8
 49 437 49 437 100.5 523 c 128,-1,9
 152 609 152 609 231 648.5 c 128,-1,10
 310 688 310 688 404 688 c 0,11,12
 544.1 688 544.1 688 652 605 c 0,13,14
 704 565 704 565 735.5 500.5 c 128,-1,15
 767 436 767 436 767 350 c 128,-1,0
 767 264 767 264 732 189 c 128,-1,1
115 316 m 0,16,17
 115 187 115 187 188.5 110 c 128,-1,18
 262 33 262 33 384 33 c 0,19,20
 525 33 525 33 610.5 119.5 c 128,-1,21
 696 206 696 206 696 338.5 c 128,-1,22
 696 471 696 471 610 550 c 128,-1,23
 524 629 524 629 401 629 c 128,-1,24
 278 629 278 629 196.5 548.5 c 128,-1,25
 115 468 115 468 115 316 c 0,16,17
489 806 m 0,26,27
 502.493182629 801.373765956 502.493182629 801.373765956 502.493182629 791.690924838 c 0,28,29
 502.493182629 784.721226002 502.493182629 784.721226002 491.779156478 770.024673025 c 128,-1,30
 481.065130327 755.328120047 481.065130327 755.328120047 463.598689893 755.328120047 c 0,31,32
 458.495748992 755.328120047 458.495748992 755.328120047 455 757 c 0,33,34
 373 786 373 786 272 867 c 0,35,36
 264.615384615 872.538461538 264.615384615 872.538461538 264.615384615 878.884615385 c 128,-1,37
 264.615384615 885.230769231 264.615384615 885.230769231 269.807692308 895.615384615 c 0,38,39
 279.065217391 914.130434783 279.065217391 914.130434783 303.661625709 914.130434783 c 0,40,41
 310.739130435 914.130434783 310.739130435 914.130434783 317 911 c 1,42,43
 417 832 417 832 489 806 c 0,26,27
EndSplineSet
EndChar

StartChar: Otilde
Encoding: 213 213 116
Width: 815
Flags: HMW
HStem: -20 53<302.5 474.5> 629 59<323.5 478> 745 50<461 486.5> 795 52<333.5 357>
VStem: 49 66<230 424 230 442.5> 696 71<251 428.5>
LayerCount: 2
Fore
SplineSet
732 189 m 128,-1,1
 697 114 697 114 641 70 c 0,2,3
 526.454545455 -20 526.454545455 -20 392 -20 c 0,4,5
 247 -20 247 -20 148 70.5 c 128,-1,6
 49 161 49 161 49 318 c 0,7,8
 49 437 49 437 100.5 523 c 128,-1,9
 152 609 152 609 231 648.5 c 128,-1,10
 310 688 310 688 404 688 c 0,11,12
 544.1 688 544.1 688 652 605 c 0,13,14
 704 565 704 565 735.5 500.5 c 128,-1,15
 767 436 767 436 767 350 c 128,-1,0
 767 264 767 264 732 189 c 128,-1,1
115 316 m 0,16,17
 115 187 115 187 188.5 110 c 128,-1,18
 262 33 262 33 384 33 c 0,19,20
 525 33 525 33 610.5 119.5 c 128,-1,21
 696 206 696 206 696 338.5 c 128,-1,22
 696 471 696 471 610 550 c 128,-1,23
 524 629 524 629 401 629 c 128,-1,24
 278 629 278 629 196.5 548.5 c 128,-1,25
 115 468 115 468 115 316 c 0,16,17
291 760 m 0,26,27
 279.616962913 747.194083277 279.616962913 747.194083277 250.699666987 747.194083277 c 128,-1,28
 221.782371061 747.194083277 221.782371061 747.194083277 221.782371061 760.387439561 c 0,29,30
 221.782371061 765.248687811 221.782371061 765.248687811 226 771 c 0,31,32
 290 847 290 847 346 847 c 0,33,34
 378 847 378 847 421 821 c 128,-1,35
 464 795 464 795 474 795 c 128,-1,36
 484 795 484 795 490.5 801 c 128,-1,37
 497 807 497 807 501 813 c 0,38,39
 509 825 509 825 520 847 c 1,40,41
 529.420129767 862.941758067 529.420129767 862.941758067 558.038524099 862.941758067 c 0,42,43
 559.862988874 862.941758067 559.862988874 862.941758067 561.7654802 862.876966773 c 0,44,45
 589.555946027 861.930533949 589.555946027 861.930533949 587.862235712 844.14387362 c 1,46,-1
 585 835 l 1,47,48
 541 745 541 745 464 745 c 0,49,50
 438 745 438 745 396.5 770 c 128,-1,51
 355 795 355 795 342 795 c 0,52,53
 320 795 320 795 291 760 c 0,26,27
EndSplineSet
EndChar

StartChar: OE
Encoding: 338 338 117
Width: 1203
Flags: HMW
HStem: -20 53<302.5 444.5> 1 63 314 60<928 979.5> 629 59<323.5 461 313 478> 651 64<1036.5 1079.5 1005.5 1112.5>
VStem: 49 66<230 424 230 442.5> 652 76
LayerCount: 2
Fore
SplineSet
906.15625 717.625 m 2,0,-1
 1060 715 l 1,1,2
 1137 715 1137 715 1166 697 c 1,3,4
 1163 669 1163 669 1145 660 c 128,-1,5
 1127 651 1127 651 1093 651 c 2,6,-1
 876.6875 653.625 l 2,7,8
 794.5 653.625 794.5 653.625 739 649 c 1,9,10
 728.4 592.971428571 728.4 592.971428571 728.4 488.42 c 2,11,-1
 728.666666667 443 l 2,12,13
 728.666666667 413.666666667 728.666666667 413.666666667 728 381 c 1,14,15
 774.4 373 774.4 373 848 373 c 2,16,-1
 967 374 l 2,17,18
 1034.86602495 374 1034.86602495 374 1048.08324186 364.58939032 c 0,19,20
 1054.47195069 358.813224245 1054.47195069 358.813224245 1055 352 c 0,21,22
 1055 314 1055 314 958 314 c 1,23,-1
 731 321 l 1,24,25
 730 297 730 297 729 239 c 0,26,27
 726.918367347 118.265306122 726.918367347 118.265306122 720 56 c 1,28,29
 783.846153846 52.1538461538 783.846153846 52.1538461538 812.076923077 52.1538461538 c 128,-1,30
 840.307692308 52.1538461538 840.307692308 52.1538461538 870.153846154 53.0769230769 c 128,-1,31
 900 54 900 54 982 59 c 128,-1,32
 1064 64 1064 64 1104.5 64 c 128,-1,33
 1145 64 1145 64 1160 58.5 c 128,-1,34
 1175 53 1175 53 1175 34 c 0,35,36
 1175 21.6666666667 1175 21.6666666667 1168.5 17.3333333333 c 128,-1,37
 1162 13 1162 13 1157 10.5 c 128,-1,38
 1152 8 1152 8 1144.5 6.5 c 128,-1,39
 1137 5 1137 5 1131.5 4 c 128,-1,40
 1126 3 1126 3 1116.5 2.5 c 128,-1,41
 1107 2 1107 2 1101.5 1.5 c 128,-1,42
 1096 1 1096 1 1086.5 1 c 2,43,-1
 1073 1 l 1,44,45
 877 -8.33333333333 877 -8.33333333333 822.333333333 -8.33333333333 c 0,46,47
 657 -8.33333333333 657 -8.33333333333 657 38 c 1,48,-1
 655 127 l 1,49,50
 613 54 613 54 543.5 17 c 128,-1,51
 474 -20 474 -20 392 -20 c 0,52,53
 247 -20 247 -20 148 70.5 c 128,-1,54
 49 161 49 161 49 318 c 0,55,56
 49 408 49 408 78.5 480 c 128,-1,57
 108 552 108 552 158.5 596.5 c 0,58,59
 262.337078652 688 262.337078652 688 404 688 c 0,60,61
 490 688 490 688 557 652 c 128,-1,62
 624 616 624 616 663 547 c 1,63,64
 665 586 665 586 673 676 c 1,65,66
 693.903225806 709.44516129 693.903225806 709.44516129 795 714.5 c 0,67,68
 857.5 717.625 857.5 717.625 906.15625 717.625 c 2,0,-1
115 316 m 0,69,70
 115 187 115 187 188.5 110 c 128,-1,71
 262 33 262 33 391.5 33 c 128,-1,72
 521 33 521 33 586.5 115 c 128,-1,73
 652 197 652 197 652 335 c 128,-1,74
 652 473 652 473 585.5 551 c 128,-1,75
 519 629 519 629 398.5 629 c 128,-1,76
 278 629 278 629 196.5 548.5 c 128,-1,77
 115 468 115 468 115 316 c 0,69,70
EndSplineSet
EndChar

StartChar: Oslash
Encoding: 216 216 118
Width: 797
Flags: HMW
HStem: -20 21G<142.5 162.5> 33 53<342 428.5 338.5 460> 668 53<352 434> 742 20G<686.5 708>
VStem: 50 60<283.5 343.5 279 355> 705 60<390 437>
LayerCount: 2
Fore
SplineSet
649 625 m 1,0,1
 765 527 765 527 765 395 c 0,2,3
 765 300 765 300 704.5 215 c 128,-1,4
 644 130 644 130 552 81.5 c 128,-1,5
 460 33 460 33 377 33 c 128,-1,6
 294 33 294 33 231 61 c 1,7,8
 226 55 226 55 216.5 42.5 c 128,-1,9
 207 30 207 30 199.5 20.5 c 128,-1,10
 192 11 192 11 183 1 c 0,11,12
 164.1 -20 164.1 -20 151 -20 c 128,-1,13
 138 -20 138 -20 126.5 -11.5 c 128,-1,14
 115 -3 115 -3 115 7.5 c 128,-1,15
 115 18 115 18 177 90 c 1,16,17
 50 175 50 175 50 330 c 0,18,19
 50 403 50 403 80 482 c 0,20,21
 82 485 82 485 94.5 516 c 0,22,23
 121.266055046 582.379816514 121.266055046 582.379816514 140 588 c 1,24,25
 189 651 189 651 258 686 c 128,-1,26
 327 721 327 721 404 721 c 0,27,28
 505 721 505 721 600 661 c 1,29,30
 605 667 605 667 617 682.5 c 128,-1,31
 629 698 629 698 638.5 710 c 128,-1,32
 648 722 648 722 660 735 c 0,33,34
 684.923076923 762 684.923076923 762 699 762 c 128,-1,35
 713 762 713 762 724.5 753.5 c 128,-1,36
 736 745 736 745 736 736 c 128,-1,37
 736 727 736 727 720.5 707 c 128,-1,38
 705 687 705 687 680 659.5 c 128,-1,39
 655 632 655 632 649 625 c 1,0,1
253 617.5 m 128,-1,41
 184 567 184 567 147 479.5 c 128,-1,42
 110 392 110 392 110 317 c 0,43,44
 110 187 110 187 206 127 c 1,45,46
 266 205 266 205 385.5 372.5 c 128,-1,47
 505 540 505 540 571 623 c 1,48,49
 497 668 497 668 409.5 668 c 128,-1,40
 322 668 322 668 253 617.5 c 128,-1,41
695 332 m 0,50,51
 705 365 705 365 705 401 c 0,52,53
 705 509 705 509 620 587 c 1,54,55
 556 505 556 505 439 341 c 128,-1,56
 322 177 322 177 263 101 c 1,57,58
 323 86 323 86 355 86 c 0,59,60
 467 86 467 86 565.5 156 c 128,-1,61
 664 226 664 226 695 332 c 0,50,51
EndSplineSet
EndChar

StartChar: Udieresis
Encoding: 220 220 119
Width: 686
Flags: HMW
HStem: -24 58<254 401.5 254 425.5> 769 85<228 233.5> 835 20G<452.5 479>
VStem: 69 65<328 443.5 328 447.5> 300 92<803 810.5 784.5 834> 564 72<319.5 448>
LayerCount: 2
Fore
SplineSet
99 692 m 1,0,1
 131.16 713.44 131.16 713.44 155 704.5 c 0,2,3
 167 700 167 700 164 682 c 0,4,5
 134 484 134 484 134 379.670731707 c 128,-1,6
 134 275.341463415 134 275.341463415 171.5 166.5 c 0,7,8
 192 107 192 107 236 70.5 c 128,-1,9
 280 34 280 34 343 34 c 0,10,11
 431 34 431 34 497.5 141.5 c 128,-1,12
 564 249 564 249 564 400.5 c 128,-1,13
 564 552 564 552 493 697 c 1,14,15
 514.428571429 714.857142857 514.428571429 714.857142857 530.5 714.857142857 c 128,-1,16
 546.571428571 714.857142857 546.571428571 714.857142857 556 712 c 1,17,18
 636 597 636 597 636 413 c 0,19,20
 636 261.613333333 636 261.613333333 557.5 124.5 c 0,21,22
 520 59 520 59 458 17.5 c 128,-1,23
 396 -24 396 -24 328.5 -24 c 128,-1,24
 261 -24 261 -24 214.5 4.5 c 128,-1,25
 168 33 168 33 141.5 76.5 c 128,-1,26
 115 120 115 120 98 178.5 c 0,27,28
 69 278.294117647 69 278.294117647 69 397 c 0,29,30
 69 573 69 573 99 692 c 1,0,1
251 854 m 0,31,32
 264 854 264 854 282 845.5 c 128,-1,33
 300 837 300 837 300 824 c 0,34,35
 300 795 300 795 274.5 782 c 128,-1,36
 249 769 249 769 212 769 c 128,-1,37
 175 769 175 769 175 792 c 0,38,39
 175 854 175 854 251 854 c 0,31,32
416.5 837 m 128,-1,41
 441 855 441 855 463.5 855 c 128,-1,42
 486 855 486 855 504.5 844.5 c 128,-1,43
 523 834 523 834 523 820 c 0,44,45
 523 795 523 795 491.5 782 c 128,-1,46
 460 769 460 769 437 769 c 0,47,48
 392 769 392 769 392 791 c 0,49,40
 392 819 392 819 416.5 837 c 128,-1,41
EndSplineSet
EndChar

StartChar: Uacute
Encoding: 218 218 120
Width: 686
Flags: HMW
HStem: -24 58<254 401.5 254 425.5>
VStem: 69 65<328 443.5 328 447.5> 564 72<319.5 448>
LayerCount: 2
Fore
SplineSet
99 692 m 1,0,1
 131.16 713.44 131.16 713.44 155 704.5 c 0,2,3
 167 700 167 700 164 682 c 0,4,5
 134 484 134 484 134 379.670731707 c 128,-1,6
 134 275.341463415 134 275.341463415 171.5 166.5 c 0,7,8
 192 107 192 107 236 70.5 c 128,-1,9
 280 34 280 34 343 34 c 0,10,11
 431 34 431 34 497.5 141.5 c 128,-1,12
 564 249 564 249 564 400.5 c 128,-1,13
 564 552 564 552 493 697 c 1,14,15
 514.428571429 714.857142857 514.428571429 714.857142857 530.5 714.857142857 c 128,-1,16
 546.571428571 714.857142857 546.571428571 714.857142857 556 712 c 1,17,18
 636 597 636 597 636 413 c 0,19,20
 636 261.613333333 636 261.613333333 557.5 124.5 c 0,21,22
 520 59 520 59 458 17.5 c 128,-1,23
 396 -24 396 -24 328.5 -24 c 128,-1,24
 261 -24 261 -24 214.5 4.5 c 128,-1,25
 168 33 168 33 141.5 76.5 c 128,-1,26
 115 120 115 120 98 178.5 c 0,27,28
 69 278.294117647 69 278.294117647 69 397 c 0,29,30
 69 573 69 573 99 692 c 1,0,1
334.5 871.5 m 128,-1,32
 402 914 402 914 415.894461694 923.371538559 c 128,-1,33
 429.788923388 932.743077118 429.788923388 932.743077118 443.582386143 932.743077118 c 128,-1,34
 457.375848897 932.743077118 457.375848897 932.743077118 474.810734017 927.437603541 c 128,-1,35
 492.245619137 922.132129964 492.245619137 922.132129964 492.245619137 913.818438659 c 0,36,37
 492.245619137 908.117717424 492.245619137 908.117717424 480.622809569 900.058858712 c 128,-1,38
 469 892 469 892 401 848.5 c 128,-1,39
 333 805 333 805 299 779 c 0,40,41
 291.076099183 772.744288829 291.076099183 772.744288829 278.265370103 772.744288829 c 128,-1,42
 265.454641023 772.744288829 265.454641023 772.744288829 246.099828878 778.68898113 c 128,-1,43
 226.745016734 784.633673432 226.745016734 784.633673432 226.745016734 793.36713551 c 0,44,45
 226.745016734 797.11590147 226.745016734 797.11590147 233 803 c 0,46,31
 267 829 267 829 334.5 871.5 c 128,-1,32
EndSplineSet
EndChar

StartChar: Ucircumflex
Encoding: 219 219 121
Width: 686
Flags: HMW
HStem: -24 58<254 401.5 254 425.5> 774 110<174 348>
VStem: 69 65<328 443.5 328 447.5> 564 72<319.5 448>
LayerCount: 2
Fore
SplineSet
99 692 m 1,0,1
 131.16 713.44 131.16 713.44 155 704.5 c 0,2,3
 167 700 167 700 164 682 c 0,4,5
 134 484 134 484 134 379.670731707 c 128,-1,6
 134 275.341463415 134 275.341463415 171.5 166.5 c 0,7,8
 192 107 192 107 236 70.5 c 128,-1,9
 280 34 280 34 343 34 c 0,10,11
 431 34 431 34 497.5 141.5 c 128,-1,12
 564 249 564 249 564 400.5 c 128,-1,13
 564 552 564 552 493 697 c 1,14,15
 514.428571429 714.857142857 514.428571429 714.857142857 530.5 714.857142857 c 128,-1,16
 546.571428571 714.857142857 546.571428571 714.857142857 556 712 c 1,17,18
 636 597 636 597 636 413 c 0,19,20
 636 261.613333333 636 261.613333333 557.5 124.5 c 0,21,22
 520 59 520 59 458 17.5 c 128,-1,23
 396 -24 396 -24 328.5 -24 c 128,-1,24
 261 -24 261 -24 214.5 4.5 c 128,-1,25
 168 33 168 33 141.5 76.5 c 128,-1,26
 115 120 115 120 98 178.5 c 0,27,28
 69 278.294117647 69 278.294117647 69 397 c 0,29,30
 69 573 69 573 99 692 c 1,0,1
272 870.5 m 128,-1,32
 303 884 303 884 339.5 884 c 128,-1,33
 376 884 376 884 399.5 872.5 c 128,-1,34
 423 861 423 861 436.5 847 c 128,-1,35
 450 833 450 833 467 814 c 128,-1,36
 484 795 484 795 496 786 c 0,37,38
 499.125 782.875 499.125 782.875 499.125 780.091796875 c 0,39,40
 499.125 773.96875 499.125 773.96875 480.5625 768.484375 c 128,-1,41
 462 763 462 763 443 763 c 128,-1,42
 424 763 424 763 384.5 803.5 c 128,-1,43
 345 844 345 844 327 852 c 1,44,45
 315 845 315 845 290 822 c 128,-1,46
 265 799 265 799 239 786.5 c 128,-1,47
 213 774 213 774 183.837119114 774 c 128,-1,48
 154.674238227 774 154.674238227 774 154.122321038 780.307625018 c 1,49,-1
 156 784 l 1,50,51
 162 788 162 788 201.5 822.5 c 128,-1,31
 241 857 241 857 272 870.5 c 128,-1,32
EndSplineSet
EndChar

StartChar: Ugrave
Encoding: 217 217 122
Width: 686
Flags: HMW
HStem: -24 58<254 401.5 254 425.5>
VStem: 69 65<328 443.5 328 447.5> 564 72<319.5 448>
LayerCount: 2
Fore
SplineSet
99 692 m 1,0,1
 131.16 713.44 131.16 713.44 155 704.5 c 0,2,3
 167 700 167 700 164 682 c 0,4,5
 134 484 134 484 134 379.670731707 c 128,-1,6
 134 275.341463415 134 275.341463415 171.5 166.5 c 0,7,8
 192 107 192 107 236 70.5 c 128,-1,9
 280 34 280 34 343 34 c 0,10,11
 431 34 431 34 497.5 141.5 c 128,-1,12
 564 249 564 249 564 400.5 c 128,-1,13
 564 552 564 552 493 697 c 1,14,15
 514.428571429 714.857142857 514.428571429 714.857142857 530.5 714.857142857 c 128,-1,16
 546.571428571 714.857142857 546.571428571 714.857142857 556 712 c 1,17,18
 636 597 636 597 636 413 c 0,19,20
 636 261.613333333 636 261.613333333 557.5 124.5 c 0,21,22
 520 59 520 59 458 17.5 c 128,-1,23
 396 -24 396 -24 328.5 -24 c 128,-1,24
 261 -24 261 -24 214.5 4.5 c 128,-1,25
 168 33 168 33 141.5 76.5 c 128,-1,26
 115 120 115 120 98 178.5 c 0,27,28
 69 278.294117647 69 278.294117647 69 397 c 0,29,30
 69 573 69 573 99 692 c 1,0,1
419 816 m 0,31,32
 432.493182629 811.373765956 432.493182629 811.373765956 432.493182629 801.690924838 c 0,33,34
 432.493182629 794.721226002 432.493182629 794.721226002 421.779156478 780.024673025 c 128,-1,35
 411.065130327 765.328120047 411.065130327 765.328120047 393.598689893 765.328120047 c 0,36,37
 388.495748992 765.328120047 388.495748992 765.328120047 385 767 c 0,38,39
 303 796 303 796 202 877 c 0,40,41
 194.615384615 882.538461538 194.615384615 882.538461538 194.615384615 888.884615385 c 128,-1,42
 194.615384615 895.230769231 194.615384615 895.230769231 199.807692308 905.615384615 c 0,43,44
 209.065217391 924.130434783 209.065217391 924.130434783 233.661625709 924.130434783 c 0,45,46
 240.739130435 924.130434783 240.739130435 924.130434783 247 921 c 1,47,48
 347 842 347 842 419 816 c 0,31,32
EndSplineSet
EndChar

StartChar: Ydieresis
Encoding: 376 376 123
Width: 597
Flags: HMW
HStem: -20 21G<218 270.5> 766 85<179 184.5> 832 20G<403.5 430>
VStem: 126 125<800 811.5> 343 131<798 807.5>
LayerCount: 2
Fore
SplineSet
336 320 m 1,0,1
 405.915254237 501.779661017 405.915254237 501.779661017 432 561.5 c 0,2,3
 451 605 451 605 464.5 625 c 128,-1,4
 478 645 478 645 496 666.5 c 128,-1,5
 514 688 514 688 533 696 c 128,-1,6
 552 704 552 704 567.5 704 c 128,-1,7
 583 704 583 704 600 699 c 1,8,9
 562 677 562 677 506 559 c 128,-1,10
 450 441 450 441 403.5 314 c 128,-1,11
 357 187 357 187 305.5 83.5 c 128,-1,12
 254 -20 254 -20 222 -20 c 0,13,14
 209 -20 209 -20 194 -14 c 1,15,16
 213 27 213 27 247.5 116.5 c 128,-1,17
 282 206 282 206 307 255 c 1,18,19
 168 404 168 404 93.5 516 c 128,-1,20
 19 628 19 628 19 687 c 0,21,22
 19 697 19 697 31 704.5 c 128,-1,23
 43 712 43 712 58 712 c 128,-1,24
 73 712 73 712 84 695 c 128,-1,25
 95 678 95 678 110.5 642.5 c 128,-1,26
 126 607 126 607 148.5 562.5 c 128,-1,27
 171 518 171 518 220 452 c 128,-1,28
 269 386 269 386 336 320 c 1,0,1
202 851 m 0,29,30
 215 851 215 851 233 842.5 c 128,-1,31
 251 834 251 834 251 821 c 0,32,33
 251 792 251 792 225.5 779 c 128,-1,34
 200 766 200 766 163 766 c 128,-1,35
 126 766 126 766 126 789 c 0,36,37
 126 851 126 851 202 851 c 0,29,30
367.5 834 m 128,-1,39
 392 852 392 852 414.5 852 c 128,-1,40
 437 852 437 852 455.5 841.5 c 128,-1,41
 474 831 474 831 474 817 c 0,42,43
 474 792 474 792 442.5 779 c 128,-1,44
 411 766 411 766 388 766 c 0,45,46
 343 766 343 766 343 788 c 0,47,38
 343 816 343 816 367.5 834 c 128,-1,39
EndSplineSet
EndChar

StartChar: aacute
Encoding: 225 225 124
Width: 449
Flags: HMW
HStem: -8 44 -2 21G<367 424.5> 450 55<183 265>
VStem: 40 62<108 174 108 221> 312 63<277 343.5 259 348>
LayerCount: 2
Fore
SplineSet
375 288 m 1,0,-1
 370 173 l 1,1,2
 370 85.92 370 85.92 389.5 55.5 c 0,3,4
 402 36 402 36 423 36 c 0,5,6
 429 36 429 36 440 39 c 0,7,8
 461.455445545 44.8514851485 461.455445545 44.8514851485 475 33 c 1,9,10
 468 -2 468 -2 405 -2 c 0,11,12
 361.710526316 -2 361.710526316 -2 347.5 34 c 0,13,14
 336.994906621 60.6129032258 336.994906621 60.6129032258 331.997453311 101.306451613 c 128,-1,15
 327 142 327 142 324 157 c 1,16,17
 258.796470588 33.4564705882 258.796470588 33.4564705882 198 6 c 0,18,19
 167 -8 167 -8 126 -8 c 128,-1,20
 85 -8 85 -8 62.5 31.5 c 128,-1,21
 40 71 40 71 40 147 c 128,-1,22
 40 223 40 223 65 306.5 c 128,-1,23
 90 390 90 390 138 447.5 c 128,-1,24
 186 505 186 505 243 505 c 0,25,26
 325.212121212 505 325.212121212 505 352 437 c 0,27,28
 375 378.615384615 375 378.615384615 375 288 c 1,0,-1
109 217.5 m 128,-1,30
 102 169 102 169 102 131.5 c 128,-1,31
 102 94 102 94 117.5 67 c 128,-1,32
 133 40 133 40 158 40 c 0,33,34
 212 40 212 40 262 142 c 128,-1,35
 312 244 312 244 312 332 c 0,36,37
 312 388.75 312 388.75 282 425.5 c 0,38,39
 262 450 262 450 229.5 450 c 128,-1,40
 197 450 197 450 170.5 412.5 c 128,-1,41
 144 375 144 375 130 320.5 c 128,-1,29
 116 266 116 266 109 217.5 c 128,-1,30
215.5 637.5 m 128,-1,43
 283 680 283 680 296.894461694 689.371538559 c 128,-1,44
 310.788923388 698.743077118 310.788923388 698.743077118 324.582386143 698.743077118 c 128,-1,45
 338.375848897 698.743077118 338.375848897 698.743077118 355.810734017 693.437603541 c 128,-1,46
 373.245619137 688.132129964 373.245619137 688.132129964 373.245619137 679.818438659 c 0,47,48
 373.245619137 674.117717424 373.245619137 674.117717424 361.622809569 666.058858712 c 128,-1,49
 350 658 350 658 282 614.5 c 128,-1,50
 214 571 214 571 180 545 c 0,51,52
 172.076099183 538.744288829 172.076099183 538.744288829 159.265370103 538.744288829 c 128,-1,53
 146.454641023 538.744288829 146.454641023 538.744288829 127.099828878 544.68898113 c 128,-1,54
 107.745016734 550.633673432 107.745016734 550.633673432 107.745016734 559.36713551 c 0,55,56
 107.745016734 563.11590147 107.745016734 563.11590147 114 569 c 0,57,42
 148 595 148 595 215.5 637.5 c 128,-1,43
EndSplineSet
EndChar

StartChar: agrave
Encoding: 224 224 125
Width: 449
Flags: HMW
HStem: -8 44 -2 21G<367 424.5> 450 55<183 265>
VStem: 40 62<108 174 108 221> 312 63<277 343.5 259 348>
LayerCount: 2
Fore
SplineSet
375 288 m 1,0,-1
 370 173 l 1,1,2
 370 85.92 370 85.92 389.5 55.5 c 0,3,4
 402 36 402 36 423 36 c 0,5,6
 429 36 429 36 440 39 c 0,7,8
 461.455445545 44.8514851485 461.455445545 44.8514851485 475 33 c 1,9,10
 468 -2 468 -2 405 -2 c 0,11,12
 361.710526316 -2 361.710526316 -2 347.5 34 c 0,13,14
 336.994906621 60.6129032258 336.994906621 60.6129032258 331.997453311 101.306451613 c 128,-1,15
 327 142 327 142 324 157 c 1,16,17
 258.796470588 33.4564705882 258.796470588 33.4564705882 198 6 c 0,18,19
 167 -8 167 -8 126 -8 c 128,-1,20
 85 -8 85 -8 62.5 31.5 c 128,-1,21
 40 71 40 71 40 147 c 128,-1,22
 40 223 40 223 65 306.5 c 128,-1,23
 90 390 90 390 138 447.5 c 128,-1,24
 186 505 186 505 243 505 c 0,25,26
 325.212121212 505 325.212121212 505 352 437 c 0,27,28
 375 378.615384615 375 378.615384615 375 288 c 1,0,-1
109 217.5 m 128,-1,30
 102 169 102 169 102 131.5 c 128,-1,31
 102 94 102 94 117.5 67 c 128,-1,32
 133 40 133 40 158 40 c 0,33,34
 212 40 212 40 262 142 c 128,-1,35
 312 244 312 244 312 332 c 0,36,37
 312 388.75 312 388.75 282 425.5 c 0,38,39
 262 450 262 450 229.5 450 c 128,-1,40
 197 450 197 450 170.5 412.5 c 128,-1,41
 144 375 144 375 130 320.5 c 128,-1,29
 116 266 116 266 109 217.5 c 128,-1,30
373 596 m 0,42,43
 386.493182629 591.373765956 386.493182629 591.373765956 386.493182629 581.690924838 c 0,44,45
 386.493182629 574.721226002 386.493182629 574.721226002 375.779156478 560.024673025 c 128,-1,46
 365.065130327 545.328120047 365.065130327 545.328120047 347.598689893 545.328120047 c 0,47,48
 342.495748992 545.328120047 342.495748992 545.328120047 339 547 c 0,49,50
 257 576 257 576 156 657 c 0,51,52
 148.615384615 662.538461538 148.615384615 662.538461538 148.615384615 668.884615385 c 128,-1,53
 148.615384615 675.230769231 148.615384615 675.230769231 153.807692308 685.615384615 c 0,54,55
 163.065217391 704.130434783 163.065217391 704.130434783 187.661625709 704.130434783 c 0,56,57
 194.739130435 704.130434783 194.739130435 704.130434783 201 701 c 1,58,59
 301 622 301 622 373 596 c 0,42,43
EndSplineSet
EndChar

StartChar: acircumflex
Encoding: 226 226 126
Width: 449
Flags: HMW
HStem: -8 44 -2 21G<367 424.5> 450 55<183 265> 565 110<90 264>
VStem: 40 62<108 174 108 221> 312 63<277 343.5 259 348>
LayerCount: 2
Fore
SplineSet
375 288 m 1,0,-1
 370 173 l 1,1,2
 370 85.92 370 85.92 389.5 55.5 c 0,3,4
 402 36 402 36 423 36 c 0,5,6
 429 36 429 36 440 39 c 0,7,8
 461.455445545 44.8514851485 461.455445545 44.8514851485 475 33 c 1,9,10
 468 -2 468 -2 405 -2 c 0,11,12
 361.710526316 -2 361.710526316 -2 347.5 34 c 0,13,14
 336.994906621 60.6129032258 336.994906621 60.6129032258 331.997453311 101.306451613 c 128,-1,15
 327 142 327 142 324 157 c 1,16,17
 258.796470588 33.4564705882 258.796470588 33.4564705882 198 6 c 0,18,19
 167 -8 167 -8 126 -8 c 128,-1,20
 85 -8 85 -8 62.5 31.5 c 128,-1,21
 40 71 40 71 40 147 c 128,-1,22
 40 223 40 223 65 306.5 c 128,-1,23
 90 390 90 390 138 447.5 c 128,-1,24
 186 505 186 505 243 505 c 0,25,26
 325.212121212 505 325.212121212 505 352 437 c 0,27,28
 375 378.615384615 375 378.615384615 375 288 c 1,0,-1
109 217.5 m 128,-1,30
 102 169 102 169 102 131.5 c 128,-1,31
 102 94 102 94 117.5 67 c 128,-1,32
 133 40 133 40 158 40 c 0,33,34
 212 40 212 40 262 142 c 128,-1,35
 312 244 312 244 312 332 c 0,36,37
 312 388.75 312 388.75 282 425.5 c 0,38,39
 262 450 262 450 229.5 450 c 128,-1,40
 197 450 197 450 170.5 412.5 c 128,-1,41
 144 375 144 375 130 320.5 c 128,-1,29
 116 266 116 266 109 217.5 c 128,-1,30
188 661.5 m 128,-1,43
 219 675 219 675 255.5 675 c 128,-1,44
 292 675 292 675 315.5 663.5 c 128,-1,45
 339 652 339 652 352.5 638 c 128,-1,46
 366 624 366 624 383 605 c 128,-1,47
 400 586 400 586 412 577 c 0,48,49
 415.125 573.875 415.125 573.875 415.125 571.091796875 c 0,50,51
 415.125 564.96875 415.125 564.96875 396.5625 559.484375 c 128,-1,52
 378 554 378 554 359 554 c 128,-1,53
 340 554 340 554 300.5 594.5 c 128,-1,54
 261 635 261 635 243 643 c 1,55,56
 231 636 231 636 206 613 c 128,-1,57
 181 590 181 590 155 577.5 c 128,-1,58
 129 565 129 565 99.8371191136 565 c 128,-1,59
 70.6742382271 565 70.6742382271 565 70.1223210381 571.307625018 c 1,60,-1
 72 575 l 1,61,62
 78 579 78 579 117.5 613.5 c 128,-1,42
 157 648 157 648 188 661.5 c 128,-1,43
EndSplineSet
EndChar

